<?xml version="1.0" encoding="utf-8"?>
<!-- Generator: Adobe Illustrator 16.0.0, SVG Export Plug-In . SVG Version: 6.00 Build 0)  -->
<!DOCTYPE svg PUBLIC "-//W3C//DTD SVG 1.1//EN" "http://www.w3.org/Graphics/SVG/1.1/DTD/svg11.dtd">
<svg version="1.1" id="Calque_1" xmlns:sketch="http://www.bohemiancoding.com/sketch/ns"
	 xmlns="http://www.w3.org/2000/svg" xmlns:xlink="http://www.w3.org/1999/xlink" x="0px" y="0px" width="222.5px" height="194px"
	 viewBox="0 0 222.5 194" enable-background="new 0 0 222.5 194" xml:space="preserve">
<title>Fill 1 + Group 24</title>
<desc>Created with Sketch.</desc>
<g id="Page-1" sketch:type="MSPage">
	<g id="Fill-1-_x2B_-Group-24" sketch:type="MSLayerGroup">
		<g id="Group-24" sketch:type="MSShapeGroup">
			<g id="Group">
				<path id="Fill-4" fill="#E24329" d="M105.062,193.655L105.062,193.655l38.64-118.921h-77.28L105.062,193.655L105.062,193.655z"
					/>
				<path id="Fill-6" fill="#E24329" d="M0,0"/>
				<path id="Fill-8" fill="#FC6D26" d="M105.062,193.654L66.421,74.734H12.269L105.062,193.654z"/>
				<path id="Fill-10" fill="#FC6D26" d="M0,0"/>
				<path id="Fill-12" fill="#FCA326" d="M12.269,74.734L12.269,74.734L0.527,110.873c-1.071,3.296,0.102,6.907,2.906,8.943
					l101.629,73.839L12.269,74.734z"/>
				<path id="Fill-14" fill="#FCA326" d="M0,0"/>
				<path id="Fill-16" fill="#E24329" d="M12.269,74.734h54.152L43.149,3.109c-1.197-3.686-6.411-3.685-7.608,0L12.269,74.734z"/>
				<path id="Fill-18" fill="#FC6D26" d="M105.062,193.654l38.64-118.92h54.153L105.062,193.654z"/>
				<path id="Fill-20" fill="#FCA326" d="M197.855,74.734L197.855,74.734l11.741,36.139c1.071,3.296-0.102,6.907-2.905,8.943
					l-101.629,73.839L197.855,74.734z"/>
				<path id="Fill-22" fill="#E24329" d="M197.855,74.734h-54.153l23.273-71.625c1.196-3.686,6.41-3.685,7.607,0L197.855,74.734z"/>
			</g>
		</g>
	</g>
</g>
</svg>
