<?xml version="1.0" encoding="utf-8"?>
<!DOCTYPE svg PUBLIC "-//W3C//DTD SVG 1.1//EN" "http://www.w3.org/Graphics/SVG/1.1/DTD/svg11.dtd" [
	<!ENTITY ns_flows "http://ns.adobe.com/Flows/1.0/">
]>
<svg version="1.1"
	 xmlns="http://www.w3.org/2000/svg" xmlns:xlink="http://www.w3.org/1999/xlink" xmlns:a="http://ns.adobe.com/AdobeSVGViewerExtensions/3.0/"
	 x="0px" y="0px" width="194px" height="185px" viewBox="0 0 194 185" overflow="visible" enable-background="new 0 0 194 185"
	 xml:space="preserve">
<defs>
</defs>
<path fill="#663D1C" d="M149.6,0H54.291c-2.952,0-5.346,2.394-5.346,5.346v95.309c0,1.827,0.92,3.437,2.318,4.401
	c12.632-32.927,27.139-53.265,27.139-53.265c-3.092-6.49,0.309-17.771,4.326-19.007c4.019-1.236,10.045,9.117,10.045,9.117
	c4.173,0,7.108-8.808,7.727-13.135c0.617-4.327-0.928-7.881,2.781-9.426c3.708-1.545,2.781,5.718,2.163,8.963
	c-0.618,3.246,1.236,10.199,2.318,14.835c1.081,4.636,7.263,8.19,9.271,8.962c2.01,0.773,4.791,4.018,4.791,4.018
	c0.464,1.854,18.853,21.943,23.643,27.815s2.627,12.139,2.627,12.139s-2.627,1.77-8.808,1.306c-4.578-0.344-8.39-4.582-9.434-5.881
	c0.003,0.003,0.004,0.005,0.007,0.009c0,0-8.345-0.309-18.698-4.945s-12.054-3.245-15.453-2.473c0,0-4.172,0.309-6.336,7.417
	c-1.59,5.226-2.179,6.952-3.423,14.496H149.6c2.952,0,5.346-2.394,5.346-5.346V5.346C154.945,2.394,152.552,0,149.6,0z"/>
<path fill="#663D1C" d="M36.025,141.197c-0.84,0.746-1.61,1.283-2.311,1.609c-0.699,0.327-1.307,0.28-1.819-0.14
	c-0.374-0.28-0.561-0.63-0.561-1.05s0.046-0.816,0.141-1.19c0.14-0.466,0.35-0.933,0.63-1.399c0.326-0.606,0.815-1.201,1.47-1.785
	c0.653-0.584,1.354-1.144,2.101-1.68c0.745-0.537,1.492-1.039,2.239-1.506c0.746-0.466,1.4-0.84,1.96-1.119
	c1.073-0.701,2.136-1.109,3.186-1.226s1.761,0.245,2.135,1.085c0.093,0.234,0.046,0.734-0.14,1.505
	c-0.188,0.771-0.433,1.634-0.735,2.59c-0.304,0.957-0.619,1.914-0.945,2.87c-0.327,0.957-0.56,1.739-0.699,2.346
	c-0.28,0.934-0.55,1.948-0.806,3.045c-0.257,1.097-0.467,2.158-0.63,3.185c-0.164,1.026-0.257,1.937-0.28,2.729
	c-0.023,0.795,0.081,1.354,0.315,1.68c0.42,0.701,1.107,1.027,2.064,0.98c0.956-0.046,2.111-0.582,3.466-1.609
	c1.353-1.026,2.32-1.656,2.904-1.891c0.583-0.232,1.016-0.256,1.295-0.07c0.141,0.095,0.304,0.281,0.49,0.561
	s0.245,0.654,0.175,1.12c-0.069,0.467-0.326,1.026-0.77,1.68c-0.444,0.654-1.202,1.354-2.275,2.101
	c-1.354,0.887-2.707,1.634-4.06,2.24c-1.167,0.514-2.415,0.944-3.745,1.295c-1.33,0.35-2.555,0.36-3.675,0.035
	c-1.12-0.326-1.938-0.841-2.45-1.541c-0.514-0.699-0.829-1.492-0.945-2.38c-0.117-0.886-0.117-1.784,0-2.694
	c0.116-0.91,0.245-1.715,0.386-2.416c0.093-0.605,0.232-1.364,0.42-2.274c0.186-0.91,0.373-1.808,0.56-2.694
	c0.186-0.887,0.361-1.691,0.525-2.416C35.804,142.049,35.932,141.523,36.025,141.197z M43.025,127.337
	c-1.214-0.466-2.054-1.306-2.521-2.521c-0.467-1.213-0.443-2.473,0.07-3.779c0.513-1.307,1.341-2.264,2.485-2.87
	c1.143-0.606,2.32-0.7,3.535-0.28c1.166,0.467,1.982,1.307,2.449,2.52c0.467,1.215,0.443,2.498-0.069,3.851
	c-0.515,1.308-1.343,2.265-2.485,2.87C45.347,127.734,44.191,127.804,43.025,127.337z"/>
<path fill="#663D1C" d="M49.744,144.417c-0.56,0.28-1.026,0.432-1.399,0.454c-0.374,0.025-0.677,0-0.91-0.069
	s-0.408-0.175-0.525-0.315c-0.115-0.14-0.197-0.256-0.244-0.35c-0.046-0.046-0.128-0.21-0.245-0.49
	c-0.116-0.279-0.163-0.605-0.141-0.979c0.024-0.373,0.176-0.806,0.455-1.296c0.28-0.489,0.771-1.014,1.471-1.574
	c2.006-1.54,3.768-2.625,5.284-3.255s2.461-1.015,2.835-1.155h0.07c0.046,0,0.093-0.023,0.14-0.07v0.07
	c0.467-0.093,0.746-0.141,0.841-0.141c0.14,0,0.232,0.025,0.279,0.07c1.073,0.094,1.727,0.362,1.96,0.805
	c0.233,0.445,0.233,1.062,0,1.855c0.466-0.186,1.026-0.42,1.681-0.699c0.652-0.281,1.295-0.514,1.925-0.701
	c0.63-0.186,1.225-0.314,1.785-0.385c0.56-0.07,0.979-0.035,1.26,0.105c0.84,0.42,1.306,1.098,1.4,2.029
	c0.093,0.935-0.07,1.681-0.49,2.24c-0.188,0.28-0.643,0.537-1.365,0.771c-0.724,0.233-1.587,0.502-2.59,0.805
	c-1.004,0.304-2.089,0.7-3.255,1.19c-1.167,0.49-2.311,1.109-3.431,1.855c-0.374,1.026-0.699,2.053-0.979,3.079
	c-0.28,1.027-0.549,1.995-0.805,2.905c-0.258,0.91-0.468,1.715-0.631,2.415c-0.164,0.7-0.269,1.19-0.314,1.47
	c-0.374,1.494-0.922,2.625-1.646,3.395c-0.724,0.771-1.552,1.108-2.484,1.016c-0.888-0.093-1.447-0.279-1.681-0.561
	c-0.233-0.279-0.396-0.676-0.489-1.189c-0.047-0.232-0.07-0.746-0.07-1.54c0-0.793,0.07-1.785,0.21-2.976
	c0.14-1.189,0.373-2.53,0.7-4.024C48.671,147.684,49.138,146.097,49.744,144.417z"/>
<path fill="#663D1C" d="M73.124,159.188c-0.794,0.139-1.681,0.174-2.66,0.104c-0.98-0.07-1.891-0.315-2.73-0.735
	s-1.574-1.05-2.205-1.89c-0.63-0.841-0.991-1.937-1.085-3.29c-0.14-1.773,0.023-3.523,0.49-5.25
	c0.373-1.493,1.085-3.057,2.135-4.689c1.051-1.634,2.695-3.127,4.936-4.48c1.54-0.934,3.195-1.738,4.97-2.415
	c1.773-0.677,3.476-1.132,5.11-1.365c0.046,0,0.36-0.035,0.944-0.104c0.583-0.07,1.307-0.094,2.17-0.07s1.831,0.105,2.905,0.244
	c1.073,0.141,2.123,0.421,3.15,0.841l0.069,0.069c0.606,0.234,1.166,0.515,1.681,0.84c0.605,0.515,0.956,1.086,1.05,1.716
	c0.093,0.63-0.117,1.249-0.63,1.854c-0.374,0.375-0.922,0.678-1.646,0.91c-0.724,0.234-1.832,0.234-3.324,0
	c-0.095,0.141-0.152,0.293-0.176,0.455c-0.023,0.164-0.059,0.292-0.104,0.385c-0.234,0.935-0.479,1.926-0.735,2.976
	c-0.257,1.05-0.455,2.054-0.595,3.01c-0.14,0.957-0.222,1.819-0.245,2.59c-0.024,0.771,0.058,1.319,0.245,1.646
	c0.42,0.654,1.085,0.945,1.995,0.875s2.018-0.571,3.325-1.506c1.306-0.933,2.228-1.516,2.765-1.75
	c0.536-0.232,0.945-0.279,1.225-0.14c0.141,0.095,0.291,0.28,0.455,0.56c0.163,0.281,0.21,0.643,0.141,1.086
	c-0.07,0.443-0.315,0.969-0.735,1.574c-0.42,0.607-1.144,1.285-2.17,2.03c-1.307,0.841-2.59,1.54-3.85,2.101
	c-1.074,0.514-2.253,0.934-3.535,1.26c-1.284,0.326-2.462,0.326-3.535,0c-0.935-0.232-1.622-0.618-2.065-1.155
	c-0.443-0.536-0.781-1.131-1.015-1.784c-0.84,0.653-1.867,1.342-3.08,2.064C75.55,158.477,74.337,158.953,73.124,159.188z
	 M71.794,148.757c-0.095,0.467-0.141,0.957-0.141,1.47c-0.047,0.42-0.047,0.852,0,1.295c0.046,0.444,0.141,0.853,0.28,1.225
	c0.14,0.281,0.385,0.48,0.735,0.596c0.35,0.117,0.734,0.175,1.154,0.175c0.421,0,0.852-0.058,1.296-0.175
	c0.442-0.115,0.805-0.245,1.085-0.385c0.42-0.233,1.003-0.618,1.75-1.155c0.745-0.536,1.445-1.155,2.1-1.854
	c0.093-0.514,0.21-1.144,0.35-1.891c0.141-0.746,0.28-1.505,0.42-2.275c0.141-0.77,0.291-1.504,0.455-2.205
	c0.163-0.699,0.291-1.282,0.386-1.75c-0.7,0-1.575,0.141-2.625,0.42c-1.051,0.281-2.077,0.701-3.08,1.261
	c-1.004,0.56-1.902,1.272-2.695,2.135C72.47,146.506,71.979,147.544,71.794,148.757z"/>
<path fill="#663D1C" d="M88.313,184.667c-1.214-0.515-2.089-1.365-2.625-2.556c-0.536-1.189-0.793-2.578-0.771-4.164
	c0.024-1.588,0.315-3.314,0.875-5.181c0.561-1.866,1.307-3.733,2.24-5.6c1.074-2.147,2.252-4.247,3.535-6.3
	c1.284-2.053,2.509-3.967,3.675-5.74c0.793-4.34,1.68-8.493,2.66-12.46c0.979-3.966,1.936-7.49,2.87-10.57
	c1.072-3.593,2.146-6.952,3.22-10.08c0.56-1.213,1.26-2.204,2.1-2.975s1.471-1.248,1.891-1.435c1.306-0.514,2.31-0.701,3.01-0.561
	s1.155,0.549,1.365,1.225c0.21,0.678,0.197,1.564-0.035,2.66c-0.234,1.098-0.607,2.369-1.12,3.814
	c-0.514,1.447-1.004,2.953-1.47,4.516c-0.468,1.564-1.005,3.162-1.61,4.795c-0.327,0.84-0.735,1.973-1.225,3.395
	c-0.49,1.425-0.97,2.871-1.436,4.341c-0.467,1.47-0.898,2.823-1.295,4.06c-0.396,1.237-0.665,2.135-0.805,2.695
	c0.84-0.561,1.726-1.051,2.66-1.471c0.933-0.42,1.89-0.745,2.869-0.979c0.7-0.14,1.307-0.14,1.82,0
	c0.466,0.095,0.886,0.339,1.26,0.735c0.373,0.396,0.514,1.039,0.42,1.925c-0.047,0.327-0.21,0.63-0.489,0.91
	c-0.28,0.28-0.607,0.524-0.98,0.735c-0.374,0.209-0.747,0.385-1.12,0.524c-0.374,0.14-0.653,0.233-0.84,0.28
	c-0.14,0.047-0.432,0.164-0.875,0.35c-0.444,0.188-1.015,0.49-1.715,0.91s-1.482,0.945-2.345,1.575
	c-0.864,0.63-1.739,1.389-2.625,2.274c-0.28,1.168-0.584,2.485-0.91,3.955c-0.327,1.471-0.654,2.893-0.98,4.271
	c-0.327,1.376-0.619,2.601-0.875,3.675c-0.257,1.072-0.455,1.82-0.595,2.24c-0.514,2.053-1.027,4.095-1.54,6.125
	c-0.514,2.029-1.074,3.65-1.68,4.865c-0.561,1.213-1.144,2.088-1.75,2.625c-0.606,0.535-1.201,0.875-1.785,1.015
	c-0.583,0.14-1.131,0.151-1.646,0.034C89.13,185.005,88.688,184.853,88.313,184.667z M91.883,171.367
	c-0.232,0.513-0.49,1.119-0.77,1.82c-0.28,0.699-0.501,1.387-0.665,2.064c-0.163,0.676-0.245,1.271-0.245,1.785
	c0,0.513,0.14,0.815,0.42,0.91c0.28,0.092,0.525,0.022,0.735-0.211s0.396-0.549,0.56-0.944c0.164-0.397,0.315-0.853,0.455-1.365
	c0.14-0.515,0.28-1.026,0.42-1.54c0.047-0.141,0.129-0.479,0.245-1.016c0.117-0.536,0.257-1.178,0.42-1.924
	c0.164-0.748,0.339-1.564,0.525-2.451c0.186-0.887,0.35-1.75,0.489-2.59c-0.326,0.746-0.652,1.471-0.979,2.17
	c-0.28,0.606-0.571,1.213-0.875,1.82C92.315,170.503,92.07,170.992,91.883,171.367z"/>
<path fill="#663D1C" d="M113.863,154.287c-0.515,0.14-1.062,0.14-1.646,0c-0.584-0.141-0.992-0.373-1.225-0.7
	c-0.374-0.606-0.501-1.166-0.385-1.681c0.115-0.512,0.29-0.91,0.524-1.189c0.233-0.326,0.513-0.583,0.84-0.77
	c0.326-0.187,0.63-0.326,0.91-0.42c0-0.561,0.046-1.086,0.14-1.576c0.094-0.489,0.187-0.92,0.28-1.295
	c0.561-2.053,1.376-3.92,2.45-5.6c0.933-1.4,2.146-2.718,3.64-3.955c1.493-1.236,3.384-1.925,5.67-2.064
	c0.887-0.047,1.75,0.023,2.591,0.209c0.699,0.141,1.399,0.386,2.1,0.736c0.7,0.35,1.283,0.875,1.75,1.574
	c0.373,0.514,0.583,1.051,0.63,1.61c0.046,0.56,0.023,1.144-0.07,1.75h0.07c-0.28,1.634-1.027,3.104-2.24,4.409
	c-1.214,1.308-2.52,2.451-3.92,3.431c-1.399,0.979-2.729,1.763-3.989,2.345c-1.261,0.584-2.077,0.945-2.45,1.086
	c0.279,0.514,0.605,0.898,0.979,1.154c0.373,0.257,0.758,0.443,1.155,0.561c0.396,0.117,0.758,0.187,1.085,0.209
	c0.326,0.024,0.56,0.035,0.7,0.035c0.232,0,0.605-0.011,1.12-0.035c0.513-0.022,1.12-0.14,1.819-0.35
	c0.7-0.21,1.481-0.561,2.346-1.05c0.862-0.49,1.784-1.155,2.765-1.995c0.513-0.373,1.026-0.652,1.54-0.84
	c0.42-0.141,0.851-0.163,1.295-0.07c0.443,0.094,0.851,0.467,1.225,1.12c0.887,1.634,0.07,3.267-2.449,4.899
	c-0.607,0.42-1.4,0.923-2.38,1.506c-0.98,0.584-2.101,1.062-3.36,1.435c-1.26,0.374-2.66,0.572-4.2,0.595
	c-1.54,0.024-3.15-0.314-4.83-1.015c-1.167-0.513-2.112-1.12-2.835-1.819C114.784,155.826,114.236,155.081,113.863,154.287z
	 M119.463,146.938c-0.094,0.373-0.14,0.606-0.14,0.699c0.933-0.42,1.761-0.921,2.484-1.505c0.724-0.583,1.341-1.131,1.855-1.646
	c0.605-0.605,1.143-1.235,1.609-1.89c0.467-0.7,0.781-1.26,0.945-1.68c0.163-0.421,0.245-0.771,0.245-1.05
	c-0.28,0-0.712,0.059-1.295,0.175c-0.584,0.116-1.225,0.397-1.925,0.84c-0.7,0.444-1.39,1.144-2.065,2.101
	C120.501,143.939,119.929,145.257,119.463,146.938z M126.323,139.447l-0.351-0.561C126.113,139.074,126.229,139.261,126.323,139.447
	z"/>
<path fill="#663D1C" d="M142.843,159.188c-0.794,0.139-1.681,0.174-2.66,0.104c-0.98-0.07-1.891-0.315-2.73-0.735
	s-1.574-1.05-2.205-1.89c-0.63-0.841-0.991-1.937-1.085-3.29c-0.14-1.773,0.023-3.523,0.49-5.25
	c0.373-1.493,1.085-3.057,2.135-4.689c1.051-1.634,2.695-3.127,4.936-4.48c1.54-0.934,3.195-1.738,4.97-2.415
	c1.773-0.677,3.476-1.132,5.11-1.365c0.046,0,0.36-0.035,0.944-0.104c0.583-0.07,1.307-0.094,2.17-0.07s1.831,0.105,2.905,0.244
	c1.073,0.141,2.123,0.421,3.15,0.841l0.069,0.069c0.606,0.234,1.166,0.515,1.681,0.84c0.605,0.515,0.956,1.086,1.05,1.716
	c0.093,0.63-0.117,1.249-0.63,1.854c-0.374,0.375-0.922,0.678-1.646,0.91c-0.724,0.234-1.832,0.234-3.324,0
	c-0.095,0.141-0.152,0.293-0.176,0.455c-0.023,0.164-0.059,0.292-0.104,0.385c-0.234,0.935-0.479,1.926-0.735,2.976
	c-0.257,1.05-0.455,2.054-0.595,3.01c-0.14,0.957-0.222,1.819-0.245,2.59c-0.024,0.771,0.058,1.319,0.245,1.646
	c0.42,0.654,1.085,0.945,1.995,0.875s2.018-0.571,3.325-1.506c1.306-0.933,2.228-1.516,2.765-1.75
	c0.536-0.232,0.945-0.279,1.225-0.14c0.141,0.095,0.291,0.28,0.455,0.56c0.163,0.281,0.21,0.643,0.141,1.086
	c-0.07,0.443-0.315,0.969-0.735,1.574c-0.42,0.607-1.144,1.285-2.17,2.03c-1.307,0.841-2.59,1.54-3.85,2.101
	c-1.074,0.514-2.253,0.934-3.535,1.26c-1.284,0.326-2.462,0.326-3.535,0c-0.935-0.232-1.622-0.618-2.065-1.155
	c-0.443-0.536-0.781-1.131-1.015-1.784c-0.84,0.653-1.867,1.342-3.08,2.064C145.269,158.477,144.056,158.953,142.843,159.188z
	 M141.513,148.757c-0.095,0.467-0.141,0.957-0.141,1.47c-0.047,0.42-0.047,0.852,0,1.295c0.046,0.444,0.141,0.853,0.28,1.225
	c0.14,0.281,0.385,0.48,0.735,0.596c0.35,0.117,0.734,0.175,1.154,0.175c0.421,0,0.852-0.058,1.296-0.175
	c0.442-0.115,0.805-0.245,1.085-0.385c0.42-0.233,1.003-0.618,1.75-1.155c0.745-0.536,1.445-1.155,2.1-1.854
	c0.093-0.514,0.21-1.144,0.35-1.891c0.141-0.746,0.28-1.505,0.42-2.275c0.141-0.77,0.291-1.504,0.455-2.205
	c0.163-0.699,0.291-1.282,0.386-1.75c-0.7,0-1.575,0.141-2.625,0.42c-1.051,0.281-2.077,0.701-3.08,1.261
	c-1.004,0.56-1.902,1.272-2.695,2.135C142.188,146.506,141.698,147.544,141.513,148.757z"/>
<path fill="#663D1C" d="M169.762,159.227c-0.907,0-1.72-0.08-2.439-0.24c-0.721-0.16-1.32-0.466-1.801-0.92
	c-0.479-0.452-0.867-1.08-1.16-1.879c-0.293-0.801-0.439-1.841-0.439-3.121c-0.054-1.6,0.093-3.279,0.439-5.039
	c0.347-1.761,0.893-3.652,1.641-5.681c0.053-0.212,0.24-0.732,0.56-1.56c0.32-0.826,0.706-1.76,1.16-2.801
	c0.452-1.039,0.946-2.053,1.48-3.039c0.532-0.986,1.065-1.721,1.6-2.201c0.213-0.212,0.48-0.399,0.8-0.559
	c0.267-0.107,0.601-0.201,1-0.281c0.4-0.08,0.893-0.066,1.48,0.041c0.372,0.053,0.746,0.174,1.12,0.359
	c0.372,0.188,0.652,0.48,0.84,0.881c0.187,0.399,0.226,0.893,0.12,1.479c-0.107,0.587-0.428,1.308-0.96,2.159
	c-1.228,2.295-2.24,4.48-3.04,6.561c-0.694,1.814-1.254,3.641-1.681,5.48s-0.373,3.348,0.16,4.52c0.32,0.48,0.8,0.668,1.44,0.561
	c0.586-0.107,1.386-0.453,2.399-1.041c1.013-0.586,2.373-1.732,4.08-3.439c0.053-1.439,0.24-3.013,0.561-4.721
	c0.319-1.705,0.692-3.332,1.12-4.879c0.479-1.76,0.986-3.521,1.52-5.28c0.427-1.066,1.026-1.812,1.8-2.24
	c0.772-0.427,1.906-0.64,3.4-0.64c0.746,0,1.292,0.16,1.64,0.48c0.347,0.319,0.572,0.707,0.681,1.159
	c0.105,0.454,0.119,0.894,0.04,1.32c-0.08,0.427-0.148,0.773-0.2,1.04c-0.054,0.16-0.188,0.68-0.4,1.56
	c-0.214,0.88-0.454,1.894-0.72,3.04c-0.268,1.147-0.561,2.334-0.88,3.561c-0.32,1.227-0.614,2.24-0.88,3.039
	c-0.268,0.854-0.428,1.694-0.48,2.521c-0.054,0.827-0.067,1.56-0.04,2.2c0.026,0.64,0.106,1.174,0.24,1.6
	c0.133,0.428,0.252,0.668,0.36,0.721c0.159,0.053,0.399,0.014,0.72-0.121c0.319-0.132,0.64-0.292,0.96-0.479
	c0.32-0.187,0.652-0.372,1-0.56c0.346-0.187,0.652-0.333,0.92-0.44c0.532-0.159,1.066-0.253,1.6-0.28
	c0.533-0.025,1.04,0.2,1.521,0.68c0.479,0.48,0.612,1.041,0.399,1.681c-0.107,0.319-0.239,0.64-0.399,0.96
	c-0.054,0.107-0.374,0.468-0.96,1.08c-0.588,0.613-1.84,1.294-3.76,2.04c-1.975,0.747-3.388,1.093-4.24,1.04
	c-0.854-0.054-1.574-0.293-2.16-0.721c-0.907-0.639-1.708-1.945-2.4-3.92c-0.587,0.48-1.268,0.975-2.04,1.48
	c-0.773,0.508-1.587,0.988-2.439,1.439c-0.854,0.455-1.734,0.814-2.641,1.08C171.494,159.174,170.614,159.281,169.762,159.227z"/>
<path fill="#663D1C" d="M33.08,116.365c0.466,0.048,0.91,0.164,1.33,0.351c0.373,0.14,0.688,0.362,0.945,0.665
	c0.256,0.305,0.408,0.689,0.455,1.154c0.046,0.561-0.047,1.098-0.28,1.611c-0.234,0.42-0.595,0.828-1.085,1.225
	c-0.49,0.396-1.272,0.664-2.345,0.805c-0.747,0.047-1.447,0.117-2.1,0.21c-0.607,0.095-1.214,0.175-1.82,0.245
	c-0.607,0.07-1.12,0.129-1.54,0.175c0.466,1.354,0.945,3.115,1.435,5.285c0.49,2.17,0.746,4.574,0.77,7.21
	c0.023,2.637-0.327,5.391-1.05,8.26c-0.724,2.87-2.065,5.682-4.025,8.436c-0.887,1.447-2.007,2.73-3.36,3.85
	c-1.167,0.934-2.66,1.762-4.48,2.485s-4.014,0.968-6.58,0.735c-1.68-0.187-3.174-0.701-4.48-1.541
	c-1.12-0.699-2.182-1.772-3.185-3.22c-1.003-1.446-1.551-3.452-1.645-6.021c-0.093-1.119-0.023-2.122,0.21-3.01
	c0.234-0.793,0.606-1.527,1.12-2.205c0.513-0.676,1.353-1.061,2.52-1.154c0.653,0,1.236,0.117,1.75,0.35
	c0.42,0.234,0.77,0.631,1.05,1.19c0.28,0.56,0.373,1.377,0.28,2.45c-0.094,0.793-0.047,1.563,0.14,2.31
	c0.14,0.654,0.443,1.295,0.91,1.925c0.466,0.631,1.19,1.155,2.17,1.575c0.84,0.374,1.703,0.49,2.59,0.351
	c0.793-0.094,1.668-0.443,2.625-1.051c0.956-0.605,1.925-1.726,2.905-3.359c1.306-2.193,2.24-4.573,2.8-7.141
	c0.233-1.072,0.408-2.24,0.525-3.5c0.116-1.26,0.128-2.59,0.035-3.99c-0.094-1.399-0.35-2.834-0.77-4.305
	c-0.42-1.47-1.027-2.951-1.82-4.445c-1.354,0.28-2.695,0.561-4.025,0.84c-1.33,0.281-2.532,0.537-3.605,0.771
	c-1.26,0.28-2.45,0.537-3.57,0.771c-1.027,0.187-1.82,0.152-2.38-0.105c-0.56-0.256-1.004-0.57-1.33-0.945
	c-0.374-0.42-0.607-0.933-0.7-1.539c-0.14-0.606-0.012-1.144,0.385-1.61c0.396-0.466,0.851-0.886,1.365-1.261
	c0.606-0.42,1.33-0.77,2.17-1.049c1.4-0.514,3.045-0.957,4.935-1.33s3.698-0.701,5.425-0.98c2.006-0.326,4.083-0.605,6.23-0.84
	c1.26-0.094,2.496-0.211,3.71-0.35c0.98-0.094,1.983-0.176,3.01-0.246C31.726,116.331,32.52,116.32,33.08,116.365z"/>
</svg>
