<?xml version="1.0" encoding="UTF-8"?>
<!-- Generator: Adobe Illustrator 19.2.1, SVG Export Plug-In . SVG Version: 6.00 Build 0)  -->
<!DOCTYPE svg PUBLIC "-//W3C//DTD SVG 1.1//EN" "http://www.w3.org/Graphics/SVG/1.1/DTD/svg11.dtd">
<svg version="1.1" xmlns="http://www.w3.org/2000/svg" xmlns:xlink="http://www.w3.org/1999/xlink" x="0px" y="0px" viewBox="0 0 1060 326" style="enable-background:new 0 0 1060 326;" xml:space="preserve">
<style type="text/css">
	.st0{fill:#37455B;}
	.st1{fill:#A1C90E;}
</style>
<g id="Calque_2">
	<path class="st0" d="M131.6,297.3l-99.5-99.5c-18.7-18.7-18.7-49.4,0-68.1l99.5-99.5c18.7-18.7,49.4-18.7,68.1,0l99.5,99.5   c18.7,18.7,18.7,49.4,0,68.1l-99.5,99.5C181,316,150.3,316,131.6,297.3z"/>
</g>
<g id="Calque_1">
	<title>maison</title>
	<path id="maison.svg_2_" class="st1" d="M1027.4,209.9h-22v-48h-45v48h-22c0,0,0.1-41.8,0.2-60.6c0-6.1,2.4-8.5,8.7-8.5   c20.6-0.1,41.3-0.1,61.9,0c11.2,0.1,18.2,7.2,18.2,18.1C1027.5,190,1027.4,209.9,1027.4,209.9z M916,209.8c-7.8,0-41,0.1-49.9,0   c-11.8-0.1-19.2-7.4-19.2-18.9c0-10.5,0-21,0-31.5c0-11.4,7.2-18.5,18.9-18.5c17-0.1,33.9-0.1,50.9,0c11.9,0,19,6.4,19.5,18   c0.4,10.8,0.4,21.7,0,32.5C935.8,203.3,928.4,209.8,916,209.8L916,209.8z M913.5,162.7h-43.8v24.8h43.8V162.7L913.5,162.7   L913.5,162.7z M827.6,209.7c-22.9,0.2-45.9,0.1-68.8,0c-0.6-0.1-1.1-0.3-1.6-0.6v-21.2h65.2v-4h-52c-8.6,0-14.4-8.9-14.5-17.4   c0-2.9,0-5.8,0-8.7c0.1-9,6.7-16.6,15.9-16.7c16.8-0.1,70.7-0.1,70.7-0.1s-0.2,7.4-0.2,21.5c-21.3,0-63.8,0.5-63.8,0.5v3.6h43.9   c16.5,0,22.4,5.8,22.3,22c0,2.9,0.2,5.9-0.6,8.6C842.1,204.6,835.3,209.8,827.6,209.7L827.6,209.7z M743.4,134.9h-3   c-5.5,0-10-4.5-10-10v-2c0-5.5,4.5-10,10-10h3c5.5,0,10,4.5,10,10v2C753.4,130.5,749,134.9,743.4,134.9z M719.6,209.8   c-20.3,0.1-40.6,0.1-60.9,0c-11.1-0.1-18.7-6.3-18.7-17.9c0-14.5-0.2-25.4,24.5-25.4c12.2,0,33.4,0.1,33.4,0.1v17.1l-35.6,0.3v4   h44.1v-25.3h-52.7l-0.2-22.8c0,0,38.9-0.1,55.9,0c12.7,0,19.7,7.9,19.7,20.2c0,13.4,0,26.8,0,40.3   C729.2,207.1,726.6,209.8,719.6,209.8z M615.2,209.8v-47h-17.7v46.7h-22.1v-46.8h-17.8v46.8h-22.3c0-15.1,0-26.7,0-59.2   c0-7.2,2.3-9.5,9.8-9.5c24.4,0,48.9,0,73.3,0c11.8,0,18.1,6.8,18.3,18.2c0,5.9,0,50.8,0,50.8S622.2,209.8,615.2,209.8L615.2,209.8z    M302.2,220.9c-5.8,10.1-28,10.5-58.3,2.9v-10.1c20.8,5,35.5,4.3,39.8-3.2c6.1-10.5-9.7-30.5-38.5-52.9h-1.3v5.2   c17.2,15.2,26.6,28.7,22.4,36.2c-2.9,4.9-10.9,6.1-22.4,4.4v-7.8c3.8-0.4,6.7-1.7,8-4c2.7-4.6-0.7-11.6-8-19.9v24   c-15.9,1.7-50.2-11.9-83.1-30.5c-31-17.7-55.9-37-63.2-50.6l20.2-14.9c-10.9-2.1-18.7-1.1-21.5,3.7c-1.7,3-1.2,6.8,1.2,11.2   l-6.2,4.6c13.3,15.1,37.7,33.3,67,49.9c31.8,18,64.3,31.1,85.4,34.3v10.2c-23.9-5.8-56-19.1-89.6-38.1   c-28.8-16.4-53.9-34-71.6-49.9l-8.4,6.2c-29.2-26-44.3-49.6-37.6-61.1c8.2-14.1,48-5.6,97.9,16.7L155,72.4c5.5-4,14.5-4,19.9,0   l95.8,70.5c5.5,4,5.5,10.6,0,14.7h-16.3C289.8,184.3,309.4,208.3,302.2,220.9L302.2,220.9z M55.9,81.7c-5.1,8.9,5.7,25.1,26.7,43.9   l8.8-6.5c-9.1-10.2-13-19-9.7-24.6c4.4-7.8,20.9-6.9,43,0.2l4.7-3.5C91.6,75.7,62.3,70.7,55.9,81.7z M243.9,223.7v8.3   c0,5.4-4.4,9.9-9.9,9.9h-51.7v-23.6c0-5.4-4.4-9.9-9.9-9.9h-14.8c-5.4,0-9.9,4.4-9.9,9.9v23.6H96c-5.4,0-9.9-4.4-9.9-9.9v-74.5   H59.2c-5.5-4-5.5-10.6,0-14.7l15-10.9c19.1,17,44.2,35.1,73.3,51.5C182.2,203,216.4,216.7,243.9,223.7z M753,209.9   c0,0-15.2-0.1-21.2-0.1v-68.5H753C753,219.5,753,209.9,753,209.9L753,209.9L753,209.9z"/>
	<path id="fai.svg_2_" class="st0" d="M338,145.5c0.1-2.8,1.3-5,5.9-5c53.7,0,81.6,0.1,81.6,0.1v22.3h-64.9v7.8h45.8v18.4h-46v21.5   H338V145.5z M472.5,184.1l-35.6,0.3v4H481v-25.3h-52.8l-0.2-22.8c0,0,38.9-0.1,55.9,0c12.7,0,19.7,7.9,19.7,20.2   c0,13.4,0,26.8,0,40.3c0,6.8-2.6,9.5-9.5,9.5c-20.3,0.1-40.6,0.1-60.9,0c-11.1-0.1-18.7-6.3-18.7-17.9c0-14.5-0.2-25.4,24.5-25.4   c12.2,0,33.4,0.1,33.4,0.1L472.5,184.1L472.5,184.1z M527.4,141.7c0,78.3,0,68.6,0,68.6s-15.2-0.1-21.2-0.1v-68.5H527.4z    M514.9,113.4h3c5.5,0,10,4.5,10,10v2c0,5.5-4.5,10-10,10h-3c-5.5,0-10-4.5-10-10v-2C504.9,117.9,509.4,113.4,514.9,113.4   L514.9,113.4z"/>
</g>
<script xmlns=""/></svg>