<?xml version="1.0" encoding="UTF-8" standalone="no"?>
<!-- Generator: Adobe Illustrator 26.3.1, SVG Export Plug-In . SVG Version: 6.00 Build 0)  -->

<svg
   version="1.1"
   id="Calque_1"
   x="0px"
   y="0px"
   viewBox="0 0 300 300"
   xml:space="preserve"
   sodipodi:docname="yunohost-logo_black.svg"
   width="300"
   height="300"
   inkscape:version="1.4.1 (93de688d07, 2025-03-30)"
   xmlns:inkscape="http://www.inkscape.org/namespaces/inkscape"
   xmlns:sodipodi="http://sodipodi.sourceforge.net/DTD/sodipodi-0.dtd"
   xmlns="http://www.w3.org/2000/svg"
   xmlns:svg="http://www.w3.org/2000/svg"><defs
   id="defs7">
	
</defs><sodipodi:namedview
   id="namedview7"
   pagecolor="#ffffff"
   bordercolor="#000000"
   borderopacity="0.25"
   inkscape:showpageshadow="2"
   inkscape:pageopacity="0.0"
   inkscape:pagecheckerboard="0"
   inkscape:deskcolor="#d1d1d1"
   inkscape:zoom="3.105647"
   inkscape:cx="100.46216"
   inkscape:cy="157.77711"
   inkscape:window-width="2256"
   inkscape:window-height="1436"
   inkscape:window-x="0"
   inkscape:window-y="40"
   inkscape:window-maximized="1"
   inkscape:current-layer="Calque_1" />
<g
   id="g7"
   transform="matrix(1.0478906,0,0,1.0478906,3.3993912,7.5599764)"
   style="fill:#000000;fill-opacity:1">
		<path
   d="m 273.8,163.2 c -5.5,13.6 -22.7,15.4 -38.1,19.1 -1.7,17.1 8.3,29.8 -2.7,43.6 -17.5,-0.7 -20.3,-16 -19.1,-35.4 -2.7,0 -5.4,0 -8.2,0 -5.7,7.5 2.5,12.3 0,21.8 -3.1,11.8 -21.5,21.5 -30,19.1 -5.9,-1.7 -16.2,-18.1 -13.6,-32.7 7.7,-7.4 7.5,8.5 16.3,8.2 13.8,-21.4 -26.2,-23.3 -21.8,-46.3 3.4,-17.5 31.8,-26.3 40.9,-2.7 4.2,11.5 -14.1,0.4 -13.6,8.2 -0.8,4.4 2.6,4.7 2.7,8.2 6.9,2.1 4.6,-5.9 8.2,-8.2 5.1,-3.2 8.4,-2 16.3,-2.7 6.7,-6.9 2.9,-24.3 10.9,-30 10.5,1.3 16.6,7.1 16.3,19.1 19.2,-2.6 28.2,-2.8 35.5,10.7 z"
   id="path1"
   style="fill:#000000;fill-opacity:1" />
		<path
   d="m 246.6,59.7 c 1.7,8.7 6.3,13.6 5.4,21.8 -0.9,8.7 -7.9,24 -10.9,24.5 -3.2,0.5 -3.6,4.8 -5.4,5.4 -12.7,4.3 -33.7,-4 -38.1,-19.1 -3.2,-10.8 5.2,-36.4 10.9,-46.3 3.5,-6.1 3.3,-8.1 13.6,-10.9 6.6,-1.8 9.9,-6.1 16.3,0 1.3,1.2 3.5,1.3 5,2.4 -0.5,0 5.4,8.6 5.9,11.2 0.9,5.8 -3.3,7.7 -2.7,11 z m -21.8,24.5 c 4.8,-5.1 9,-11 8.2,-21.8 -12.3,-4.5 -20,19.9 -8.2,21.8 z"
   id="path2"
   style="fill:#000000;fill-opacity:1" />
		<path
   d="m 192.1,81.5 c -0.2,15.8 6.8,29.1 0,40.9 -18.3,2.9 -19.7,-11.2 -30,-16.3 -5.3,3.8 -4.1,14.1 -8.2,19.1 -10.3,1.2 -12.8,-5.4 -19.1,-8.2 6.7,-21.3 3.4,-51.7 5.4,-70.8 23.4,-1.6 20.9,22.7 32.7,32.7 1.4,-11.8 -1,-42.3 8.2,-54.5 20.1,8.9 11.3,35.3 11,57.1 z"
   id="path3"
   style="fill:#000000;fill-opacity:1" />
		<path
   d="m 151.3,174.1 c 5.3,22.9 0.3,61.8 -32.7,54.5 -4.3,-1 -22.9,-14.2 -24.5,-19.1 -4.4,-13.6 0.9,-36.3 8.2,-43.6 13.6,-13.7 31.2,-4.4 49,8.2 z m -35.4,30 c 12.4,2.6 17.2,-11.4 10.9,-19.1 -9.9,0.1 -12,8 -10.9,19.1 z"
   id="path4"
   style="fill:#000000;fill-opacity:1" />
		<path
   d="m 115.9,46.1 c 15.2,2.5 17.4,18.5 13.6,40.9 -3.9,22.8 -8.2,39.7 -24.5,40.9 -26.1,1.8 -33.4,-45.5 -24.5,-79 22.7,3.5 17.9,28.2 16.3,46.3 7.4,2.3 6,-2.3 8.2,-5.4 5.5,-8.2 7.6,-28.4 10.9,-43.7 z"
   id="path5"
   style="fill:#000000;fill-opacity:1" />
		<path
   d="m 85.9,193.2 c 0.3,15.4 12,30.9 5.4,46.3 -11.8,-2.8 -17.9,-11.1 -24.5,-19.1 -8.6,-1.3 -6.2,8.4 -16.3,5.4 -1.8,13.8 6.2,20.6 -2.7,27.2 C 35,251.4 29.6,242.2 26,231.3 18.9,227.5 11.1,224.4 9.7,215 c 0.4,-9.6 12.2,-7.8 19.1,-10.9 1.3,-15.1 -3.8,-36.5 5.4,-43.6 22.6,1.3 22.4,19.4 19.1,40.9 11.9,0.8 13.5,-11.8 13.6,-19.1 0.2,-6.6 -5,-22.5 5.4,-30 8.3,-2 8,4.7 16.3,2.7 9.1,12.8 -2.9,25.8 -2.7,38.2 z"
   id="path6"
   style="fill:#000000;fill-opacity:1" />
		<path
   d="m 75,57 c 2.9,19.3 -10.5,22.2 -16.3,32.7 0.6,18.7 -1.3,35 -5.4,49 C 37.3,135.1 29.6,110.4 37,92.4 36,82.8 22.6,80.9 17.8,70.6 17,68.8 16.5,58.5 15.1,51.5 12.6,39.6 11.2,36 17.8,27 40,25.7 37.5,49.2 42.3,65.2 56.1,66.2 53,50.4 64.1,48.8 66.8,52.5 71.4,54.3 75,57 Z"
   id="path7"
   style="fill:#000000;fill-opacity:1" />
	</g>
</svg>
