<?xml version="1.0" standalone="no"?>
<!DOCTYPE svg PUBLIC "-//W3C//DTD SVG 1.1//EN" "http://www.w3.org/Graphics/SVG/1.1/DTD/svg11.dtd" >
<svg xmlns="http://www.w3.org/2000/svg">
<metadata>
This is a custom SVG webfont generated by Font Squirrel.
Copyright   : Copyright 2010 2012 Adobe Systems Incorporated All Rights Reserved
Designer    : Paul D Hunt
Foundry     : Adobe Systems Incorporated
Foundry URL : httpwwwadobecomtype
</metadata>
<defs>
<font id="SourceCodeProLight" horiz-adv-x="1228" >
<font-face units-per-em="2048" ascent="1536" descent="-512" />
<missing-glyph horiz-adv-x="500" />
<glyph unicode=" " />
<glyph unicode="!" d="M496 104.5q0 59.5 34.5 94t84 34.5t84 -34.5t34.5 -94t-34.5 -94.5t-84 -35t-84 35t-34.5 94.5zM571 1227v145h86v-145l-10 -778h-65z" />
<glyph unicode="&#x22;" d="M324 1227v182h155v-182l-41 -447h-73zM750 1227v182h155v-182l-41 -447h-73z" />
<glyph unicode="#" d="M197 438v74h180l43 348h-182v74h188l53 397h70l-51 -397h307l51 397h72l-51 -397h165v-74h-172l-43 -348h174v-74h-184l-53 -438h-72l53 438h-307l-51 -438h-72l52 438h-170zM449 512h307l43 348h-307z" />
<glyph unicode="$" d="M199 229l49 66q178 -145 389 -145q143 0 223 62t80 165q0 82 -69.5 142.5t-170 98t-201 78.5t-170 109.5t-69.5 163.5q0 127 91 205.5t239 89.5v270h80v-268q178 -13 321 -148l-53 -57q-80 68 -144.5 96.5t-168.5 28.5q-123 0 -198 -58.5t-75 -154.5q0 -74 71 -128 t170 -90t199.5 -78t171 -116t70.5 -178q0 -133 -103.5 -217t-260.5 -94v-297h-80v297q-219 14 -391 157z" />
<glyph unicode="%" d="M55 1006q0 156 76 241.5t201 85.5q123 0 198.5 -86t75.5 -241q0 -158 -75.5 -248t-198.5 -90q-125 0 -201 90t-76 248zM72 129l370 403l45 -40l-348 -420zM135 1006q0 -127 55.5 -200t141.5 -73q84 0 139 73t55 200t-54 194.5t-140 67.5t-141.5 -67.5t-55.5 -194.5z M623 313q0 156 75.5 242t198.5 86q125 0 201 -86t76 -242q0 -158 -76 -248t-201 -90q-123 0 -198.5 90.5t-75.5 247.5zM702 313q0 -127 55.5 -199.5t139.5 -72.5q86 0 141.5 72.5t55.5 199.5t-55.5 194.5t-141.5 67.5t-140.5 -67.5t-54.5 -194.5zM741 858l351 420l65 -57 l-371 -404z" />
<glyph unicode="&#x26;" d="M109 342q0 119 70.5 209t201.5 188q-92 184 -92 334q0 131 76.5 216t197.5 85q109 0 168.5 -68.5t59.5 -177.5q0 -61 -23 -115.5t-80 -111.5t-90 -86t-117 -92q141 -256 371 -461q133 172 209 445h88q-86 -301 -236 -496q133 -109 256 -156l-30 -80q-137 51 -281 170 q-166 -170 -362 -170q-166 0 -276.5 101.5t-110.5 265.5zM201 348q0 -131 88 -213t215 -82q154 0 293 146q-238 217 -381 473q-102 -82 -158.5 -157t-56.5 -167zM373 1077q0 -127 76 -289q86 63 131 103.5t86 104t41 128.5q0 74 -35 125t-111 51q-86 0 -137 -63.5 t-51 -159.5z" />
<glyph unicode="'" d="M537 1227v182h155v-182l-41 -447h-73z" />
<glyph unicode="(" d="M459 569.5q0 581.5 475 925.5l51 -57q-434 -334 -434 -868.5t434 -868.5l-51 -57q-475 344 -475 925.5z" />
<glyph unicode=")" d="M244 -299q434 334 434 868.5t-434 868.5l51 57q475 -344 475 -925.5t-475 -925.5z" />
<glyph unicode="*" d="M238 1161l22 62l301 -97l21 332h65l21 -328l301 93l22 -62l-289 -133l185 -295l-60 -41l-213 277l-213 -277l-59 41l184 295z" />
<glyph unicode="+" d="M195 596v78h376v411h86v-411h377v-78h-377v-412h-86v412h-376z" />
<glyph unicode="," d="M420 -365q246 119 254 371q-25 -6 -47 -6q-55 0 -89 30.5t-34 90t35.5 91.5t87.5 32q70 0 106.5 -56.5t36.5 -152.5q0 -166 -85 -285t-232 -182z" />
<glyph unicode="-" d="M287 549v100h655v-100h-655z" />
<glyph unicode="." d="M492 109q0 61 35.5 97t87 36t87 -36t35.5 -97q0 -59 -36.5 -96.5t-86 -37.5t-86 37.5t-36.5 96.5z" />
<glyph unicode="/" d="M233 -328l670 1782h92l-669 -1782h-93z" />
<glyph unicode="0" d="M166 659.5q0 323.5 116.5 498.5t331.5 175t332 -175t117 -498.5t-118 -504t-331 -180.5t-330.5 180.5t-117.5 504zM256 659.5q0 -290.5 97.5 -448.5t261 -158t261 158t97.5 448.5t-97.5 443t-261 152.5t-261 -152.5t-97.5 -443zM502 678q0 57 33.5 90t78.5 33t79 -33 t34 -90t-34 -90t-79 -33t-78.5 33t-33.5 90z" />
<glyph unicode="1" d="M221 0v80h391v1085h-284v62q186 27 307 82h67v-1229h367v-80h-848z" />
<glyph unicode="2" d="M162 1141q193 193 411 192q190 0 298 -99t108 -267q0 -94 -42 -189.5t-144.5 -216.5t-201.5 -218t-286 -271q205 10 246 10h502v-82h-885v57q205 184 320.5 296t217 229.5t142.5 207t41 175.5q0 131 -81 210.5t-243 79.5q-186 0 -344 -172z" />
<glyph unicode="3" d="M137 160l51 63q168 -168 410 -168q154 0 254 80t100 209q0 141 -129 222t-393 81v80q244 0 358.5 79t114.5 206q0 111 -86 177t-225 66q-199 0 -346 -143l-56 62q178 160 404 159q174 0 288.5 -85t114.5 -230q0 -123 -80.5 -204t-216.5 -120v-8q145 -29 246 -119 t101 -221q0 -166 -128 -268.5t-321 -102.5q-273 1 -461 185z" />
<glyph unicode="4" d="M86 391v55l717 865h71v-840h228v-80h-228v-391h-88v391h-700zM209 471h577v514q2 33 5.5 99.5t5.5 99.5h-13q-72 -100 -127 -174z" />
<glyph unicode="5" d="M127 152l51 63q84 -76 176 -118t234 -42q156 0 265.5 98.5t109.5 254.5q0 158 -99.5 247.5t-271.5 89.5q-133 0 -293 -88l-63 39l49 613h704v-80h-622l-43 -473q143 70 282 69q203 0 327 -103.5t124 -309.5q0 -199 -139.5 -318t-329.5 -119q-160 0 -264.5 47.5 t-196.5 129.5z" />
<glyph unicode="6" d="M176 594q0 199 44 346t121 230t171 123t205 40q193 0 334 -127l-56 -61q-113 109 -278 108q-197 0 -322 -154.5t-127 -492.5q184 184 402 185q190 0 299.5 -105.5t109.5 -300.5q0 -174 -124 -292t-293 -118q-225 0 -355.5 162t-130.5 457zM270 514q16 -215 115 -338 t281 -123q137 0 229 95.5t92 236.5q0 158 -84 243t-246 85q-209 0 -387 -199z" />
<glyph unicode="7" d="M152 1229v80h929v-54q-262 -303 -363.5 -579.5t-115.5 -675.5h-100q14 393 119.5 665.5t343.5 563.5h-813z" />
<glyph unicode="8" d="M147 336q0 229 304 366v9q-205 117 -205 303q0 141 107.5 230t271.5 89q186 0 290.5 -95t104.5 -247q0 -90 -58.5 -176t-150.5 -151v-9q135 -66 200.5 -137.5t65.5 -200.5q0 -147 -121.5 -244.5t-332.5 -97.5q-215 0 -345.5 101.5t-130.5 259.5zM238 340 q0 -125 105.5 -207t281.5 -82q170 0 265 76t95 192q0 59 -23.5 106.5t-51 76t-94 60.5t-106.5 46.5t-134 42.5q-37 12 -58 19q-135 -66 -207.5 -141.5t-72.5 -188.5zM334 1014q0 -127 100 -197t297 -131q201 135 201 303q0 115 -82 191.5t-227 76.5q-129 0 -209 -68.5 t-80 -174.5z" />
<glyph unicode="9" d="M154 926q0 174 122.5 290.5t292.5 116.5q225 0 355.5 -160.5t130.5 -455.5q0 -199 -44 -346.5t-121 -231.5t-170 -124t-204 -40q-193 0 -336 127l56 62q115 -109 280 -109q197 0 322 155t127 492q-188 -182 -402 -182q-193 0 -301 105.5t-108 300.5zM244 926 q0 -158 83.5 -244t245.5 -86q209 0 390 201q-16 215 -114.5 336.5t-281.5 121.5q-137 0 -230 -95t-93 -234z" />
<glyph unicode=":" d="M492 109q0 61 35.5 97t87 36t87 -36t35.5 -97q0 -59 -36.5 -96.5t-86 -37.5t-86 37.5t-36.5 96.5zM492 884.5q0 61.5 36.5 97.5t86 36t86 -36t36.5 -97.5t-35.5 -98t-87 -36.5t-87 36.5t-35.5 98z" />
<glyph unicode=";" d="M420 -365q246 119 254 371q-25 -6 -47 -6q-55 0 -89 30.5t-34 90t35.5 91.5t87.5 32q70 0 106.5 -56.5t36.5 -152.5q0 -166 -85 -285t-232 -182zM492 884.5q0 61.5 36.5 97.5t86 36t86 -36t36.5 -97.5t-35.5 -98t-87 -36.5t-87 36.5t-35.5 98z" />
<glyph unicode="&#x3c;" d="M252 598v82l747 520v-98l-659 -459v-8l659 -459v-98z" />
<glyph unicode="=" d="M195 387v78h839v-78h-839zM195 805v78h839v-78h-839z" />
<glyph unicode="&#x3e;" d="M229 78v98l660 459v8l-660 459v98l748 -520v-82z" />
<glyph unicode="?" d="M238 1241q152 156 364 156q164 0 260 -88t96 -224q0 -74 -39.5 -140t-95 -119.5t-110 -106.5t-86 -123t-19.5 -147h-82q-14 84 15.5 156.5t82 126.5t107.5 105.5t95 113t40 126.5q0 104 -68.5 172t-201.5 68q-174 0 -299 -131zM467 104.5q0 59.5 35 94t84 34.5t84 -34.5 t35 -94t-35 -94.5t-84 -35t-84 35t-35 94.5z" />
<glyph unicode="@" d="M123 510q0 365 166 572.5t426 207.5q195 0 296 -133t101 -346v-606h-65l-11 127h-8q-51 -61 -132 -106.5t-155 -45.5q-113 0 -188.5 67.5t-75.5 190.5q0 147 138.5 231.5t420.5 116.5v29q0 178 -81 291t-246 113q-217 0 -360.5 -192.5t-143.5 -522.5t138 -526.5 t357 -196.5q176 0 299 98l41 -57q-152 -115 -340 -115q-248 0 -412.5 215t-164.5 588zM561 438q0 -86 53.5 -135t143.5 -49q135 0 274 164v301q-250 -35 -360.5 -101.5t-110.5 -179.5z" />
<glyph unicode="A" d="M92 0l475 1350h95l475 -1350h-101l-155 463h-535l-160 -463h-94zM375 543h479l-86 252q-94 272 -150 467h-8q-35 -125 -149 -467z" />
<glyph unicode="B" d="M236 0v1350h337q211 0 328 -82t117 -246q0 -109 -61.5 -186.5t-178.5 -108.5v-8q152 -23 238 -106t86 -220q0 -190 -134 -291.5t-368 -101.5h-364zM330 78h245q207 0 320 77.5t113 237.5q0 143 -112 215t-321 72h-245v-602zM330 756h207q203 0 295 65.5t92 202.5 q0 248 -377 248h-217v-516z" />
<glyph unicode="C" d="M147 677.5q0 319.5 159 508t421 188.5q209 0 350 -162l-57 -61q-121 137 -293 137q-223 0 -352 -165t-129 -445.5t129 -448.5t346 -168q190 0 338 166l55 -59q-166 -193 -399 -193q-252 0 -410 191.5t-158 511z" />
<glyph unicode="D" d="M197 0v1350h309q303 0 456.5 -177.5t153.5 -492.5q0 -317 -153.5 -498.5t-454.5 -181.5h-311zM291 80h207q262 0 391 161.5t129 438.5q0 274 -129 432t-391 158h-207v-1190z" />
<glyph unicode="E" d="M260 0v1350h799v-82h-705v-510h594v-82h-594v-594h725v-82h-819z" />
<glyph unicode="F" d="M307 0v1350h789v-82h-697v-537h586v-82h-586v-649h-92z" />
<glyph unicode="G" d="M121 678q0 319 159.5 507.5t421.5 188.5q209 0 359 -162l-55 -61q-123 137 -304 137q-223 0 -353 -165t-130 -445q0 -283 126 -450t345 -167q195 0 293 103v420h-311v80h403v-535q-139 -154 -391 -154q-254 0 -408.5 190.5t-154.5 512.5z" />
<glyph unicode="H" d="M182 0v1350h94v-592h676v592h95v-1350h-95v676h-676v-676h-94z" />
<glyph unicode="I" d="M219 0v82h348v1186h-348v82h791v-82h-348v-1186h348v-82h-791z" />
<glyph unicode="J" d="M190 201l76 53q115 -195 303 -195q166 0 243 90.5t77 276.5v846h-588v80h682v-934q0 -442 -416 -443q-119 0 -219.5 57.5t-157.5 168.5z" />
<glyph unicode="K" d="M236 0v1350h96v-750h4l665 750h111l-436 -500l493 -850h-108l-451 778l-278 -313v-465h-96z" />
<glyph unicode="L" d="M307 0v1350h90v-1268h707v-82h-797z" />
<glyph unicode="M" d="M186 0v1350h121l225 -629l80 -240h9l77 240l224 629h120v-1350h-88v944q0 72 11 303h-7l-77 -241l-234 -637h-65l-236 637l-82 241h-4q12 -276 12 -303v-944h-86z" />
<glyph unicode="N" d="M188 0v1350h99l526 -955l145 -266h5q-2 43 -5.5 123t-5.5 145.5t-2 122.5v830h90v-1350h-98l-526 954l-146 267h-4q2 -45 5 -122t5.5 -141.5t2.5 -121.5v-836h-91z" />
<glyph unicode="O" d="M111 680q0 315 140 504.5t363.5 189.5t363.5 -189.5t140 -504.5q0 -317 -140 -511t-363.5 -194t-363.5 193.5t-140 511.5zM209 680q0 -281 111.5 -450t294 -169t294 169t111.5 450q0 279 -111.5 443.5t-294 164.5t-294 -165t-111.5 -443z" />
<glyph unicode="P" d="M242 0v1350h368q238 0 360 -88t122 -289q0 -195 -126 -294t-356 -99h-274v-580h-94zM336 659h250q209 0 308 75t99 239q0 166 -97 231.5t-310 65.5h-250v-611z" />
<glyph unicode="Q" d="M117 680q0 317 137 506.5t360.5 189.5t359.5 -189.5t136 -506.5q0 -299 -122 -489.5t-322 -213.5q72 -202 319 -202h2q57 0 96 16l19 -86q-66 -18 -127 -18q-160 0 -263.5 79.5t-150.5 210.5q-201 25 -322.5 215.5t-121.5 487.5zM213 680q0 -281 108.5 -452t292.5 -171 q182 0 292 171t110 452t-109.5 447.5t-292.5 166.5q-184 0 -292.5 -166.5t-108.5 -447.5z" />
<glyph unicode="R" d="M240 0v1350h385q444 0 444 -357q0 -158 -92 -251t-254 -115l373 -627h-111l-364 621h-287v-621h-94zM334 698h266q373 0 373 295q0 147 -93.5 212t-279.5 65h-266v-572z" />
<glyph unicode="S" d="M156 178l61 66q168 -182 416 -183q164 0 260 75t96 196q0 113 -64.5 170t-199.5 112l-205 93q-57 25 -100 48t-91 62t-75 96.5t-27 128.5q0 145 117 238.5t295 93.5q236 0 397 -162l-55 -63q-139 139 -342 139q-143 0 -230 -65.5t-87 -175.5q0 -55 21.5 -98.5t68.5 -75 t76.5 -47t86.5 -40.5l203 -90q147 -61 226 -139t79 -219q0 -158 -124.5 -260.5t-325.5 -102.5q-289 0 -477 203z" />
<glyph unicode="T" d="M98 1268v82h1032v-82h-468v-1268h-95v1268h-469z" />
<glyph unicode="U" d="M182 506v844h94v-834q0 -244 93.5 -349.5t244.5 -105.5q154 0 249 105.5t95 349.5v834h89v-844q0 -285 -120 -408t-313 -123q-190 0 -311 123t-121 408z" />
<glyph unicode="V" d="M121 1350h100l250 -789q18 -57 45 -145t49.5 -161t46.5 -146h9q27 76 143 452l250 789h94l-440 -1350h-103z" />
<glyph unicode="W" d="M29 1352h88l145 -924q6 -53 21.5 -160.5t21.5 -165.5h4q92 309 97 326l167 571h86l172 -571l93 -326h8q6 49 13 103.5t16.5 120t13.5 102.5l139 924h86l-217 -1352h-115l-192 647q-10 41 -28.5 120t-29.5 116h-6q-53 -203 -61 -236l-186 -647h-113z" />
<glyph unicode="X" d="M154 0l407 698l-379 652h103l223 -398q12 -20 32.5 -55t39 -65.5t38.5 -63.5h9q55 104 100 184l223 398h97l-379 -656l407 -694h-102l-238 414q-41 76 -125 215h-8q-68 -127 -115 -215l-237 -414h-96z" />
<glyph unicode="Y" d="M104 1350h97l239 -447q35 -57 92.5 -165.5t81.5 -151.5h9q25 43 176 319l233 445h92l-462 -854v-496h-95v496z" />
<glyph unicode="Z" d="M143 0v57l826 1215h-756v80h868v-58l-825 -1212h840v-82h-953z" />
<glyph unicode="[" d="M492 -311v1761h542v-61h-463v-1639h463v-61h-542z" />
<glyph unicode="\" d="M233 1454h93l669 -1782h-92z" />
<glyph unicode="]" d="M195 -250h462v1639h-462v61h542v-1761h-542v61z" />
<glyph unicode="^" d="M258 594l309 778h95l309 -778h-88l-160 416l-105 272h-8l-104 -272l-160 -416h-88z" />
<glyph unicode="_" d="M123 -162h983v-94h-983v94z" />
<glyph unicode="`" d="M432 1454h109l188 -283h-78z" />
<glyph unicode="a" d="M188 246q0 164 176.5 250t577.5 120q-4 311 -293 312q-182 0 -373 -133l-40 67q76 53 191.5 99.5t231.5 46.5q188 0 280.5 -104.5t92.5 -274.5v-629h-76l-10 147h-4q-219 -172 -412 -172q-143 0 -242.5 70t-99.5 201zM281 250q0 -98 77.5 -147.5t188.5 -49.5 q182 0 395 178v316q-365 -33 -513 -103.5t-148 -193.5z" />
<glyph unicode="b" d="M215 0v1473h92v-426l-6 -211q178 172 373 172q205 0 311.5 -134.5t106.5 -367.5q0 -242 -133.5 -386.5t-323.5 -144.5q-76 0 -166 37t-164 99h-4l-10 -111h-76zM307 201q160 -145 324 -146q160 0 262 126t102 325q0 193 -82 307.5t-254 114.5t-352 -180v-547z" />
<glyph unicode="c" d="M178 489.5q0 239.5 153.5 379t383.5 139.5q197 0 354 -150l-53 -61q-141 131 -299 131q-197 0 -320 -122t-123 -316.5t121 -314.5t320 -120q180 0 332 142l47 -64q-168 -158 -383 -158q-236 0 -384.5 137.5t-148.5 377z" />
<glyph unicode="d" d="M137 489q0 231 136.5 375t326.5 144q162 0 328 -140l-6 199v406h92v-1473h-78l-10 145h-4q-162 -170 -351 -170q-197 0 -315.5 135t-118.5 379zM233 489q0 -197 94.5 -315.5t256.5 -118.5q168 0 338 181v546q-154 145 -316 146q-156 0 -264.5 -127.5t-108.5 -311.5z" />
<glyph unicode="e" d="M158 489q0 231 147.5 375t343.5 144q203 0 322 -122t119 -333q0 -49 -5 -74h-833q4 -188 123 -307t309 -119q174 0 328 107l37 -70q-180 -115 -373 -115q-219 0 -368.5 140.5t-149.5 373.5zM252 549h749q0 184 -94 282.5t-256 98.5q-152 0 -266.5 -104.5t-132.5 -276.5z " />
<glyph unicode="f" d="M236 905v70l296 8v119q0 188 92.5 291.5t274.5 103.5q150 0 277 -59l-29 -70q-115 51 -242 51q-287 0 -287 -309v-127h457v-78h-457v-905h-86v905h-296z" />
<glyph unicode="g" d="M172 -188q0 129 166 231v8q-102 51 -102 158q0 104 118 186v8q-116 93 -116 251q0 153 107.5 253.5t258.5 100.5q76 0 135 -25h410v-76h-299q117 -113 117 -252q0 -150 -104.5 -246t-258.5 -96q-98 0 -186 45q-96 -59 -96 -137q0 -137 227 -137h244q188 0 273 -52 t85 -169q0 -133 -145.5 -234.5t-374.5 -101.5q-225 0 -342 76t-117 209zM258 -190q0 -92 94 -150.5t273 -58.5q193 0 312.5 76.5t119.5 175.5q0 80 -61.5 112.5t-194.5 32.5h-234q-92 0 -149 18q-160 -85 -160 -206zM330 657.5q0 -118.5 79.5 -195.5t194.5 -77t195 77 t80 195.5t-80 197.5t-195 79t-194.5 -79t-79.5 -197.5z" />
<glyph unicode="h" d="M215 0v1473h92v-426l-6 -259q104 109 196.5 164.5t200.5 55.5q354 0 355 -396v-612h-92v600q0 166 -67 246t-210 80q-100 0 -182 -51.5t-195 -169.5v-705h-92z" />
<glyph unicode="i" d="M199 905v78h583v-983h-90v905h-493zM618 1319q0 43 28 70.5t69 27.5q43 0 69.5 -26.5t26.5 -71.5t-26.5 -71.5t-69.5 -26.5q-41 0 -69 27.5t-28 70.5z" />
<glyph unicode="j" d="M129 -403l37 71q119 -59 237 -59q162 0 225.5 77.5t63.5 225.5v993h-493v78h583v-1059q0 -193 -88 -293t-297 -100q-137 0 -268 66zM618 1319q0 43 28 70.5t69 27.5q43 0 69.5 -26.5t26.5 -71.5t-26.5 -71.5t-69.5 -26.5q-41 0 -69 27.5t-28 70.5z" />
<glyph unicode="k" d="M252 0v1473h92v-1086l4 4l635 592h113l-404 -381l469 -602h-104l-428 545l-285 -271v-274h-92z" />
<glyph unicode="l" d="M190 1395v78h455v-1188q0 -229 213 -230q90 0 205 54l29 -72q-150 -61 -246 -62q-291 0 -291 322v1098h-365z" />
<glyph unicode="m" d="M154 0v983h73l11 -133h4q47 80 98 119t127 39q158 0 197 -174q59 90 112 132t129 42q213 0 213 -295v-713h-88v702q0 223 -143 224q-63 0 -111.5 -44t-99.5 -141v-741h-82v702q0 223 -141 224q-66 0 -114 -44t-97 -141v-741h-88z" />
<glyph unicode="n" d="M215 0v983h78l10 -188h8q96 102 187.5 157.5t199.5 55.5q354 0 355 -396v-612h-92v600q0 166 -67 246t-210 80q-100 0 -182 -51.5t-195 -169.5v-705h-92z" />
<glyph unicode="o" d="M137 489q0 240 137.5 379.5t340 139.5t340 -139.5t137.5 -379.5q0 -236 -138.5 -375t-339 -139t-339 139t-138.5 375zM233 489q0 -193 108 -313.5t273.5 -120.5t273 121t107.5 313q0 195 -107.5 317t-273 122t-273.5 -122t-108 -317z" />
<glyph unicode="p" d="M215 -444v1427h78l10 -141h4q76 74 175.5 120t191.5 46q205 0 311.5 -134.5t106.5 -367.5q0 -242 -134.5 -386.5t-326.5 -144.5q-74 0 -163 38.5t-163 101.5l2 -201v-358h-92zM307 201q80 -74 167 -110t153 -36q162 0 265 126t103 325q0 193 -82 307.5t-254 114.5 t-352 -180v-547z" />
<glyph unicode="q" d="M137 489q0 231 136.5 375t326.5 144q166 0 324 -138h4l10 113h76v-1427h-92v397l6 194q-176 -172 -357 -172q-197 0 -315.5 135t-118.5 379zM233 489q0 -197 94.5 -315.5t256.5 -118.5q168 0 338 181v546q-154 145 -316 146q-156 0 -264.5 -127.5t-108.5 -311.5z" />
<glyph unicode="r" d="M334 0v983h78l10 -242h4q182 266 463 267q117 0 196 -41l-22 -80q-102 35 -189 35q-262 0 -448 -308v-614h-92z" />
<glyph unicode="s" d="M170 131l51 66q174 -143 436 -144q145 0 226.5 56.5t81.5 138.5q0 74 -74 125t-279 100q-387 92 -387 272q0 115 98.5 189t286.5 74q96 0 200.5 -34t176.5 -87l-49 -66q-143 109 -330 109q-154 0 -221.5 -50.5t-67.5 -127.5q0 -125 332 -205q227 -55 317.5 -122 t90.5 -173q0 -117 -109.5 -197t-296.5 -80q-266 0 -483 156z" />
<glyph unicode="t" d="M166 905v70l297 8l12 285h76v-285h522v-78h-522v-545q0 -154 59.5 -229.5t212.5 -75.5q143 0 262 51l25 -69q-147 -61 -299 -62q-190 0 -270 102t-80 292v536h-295z" />
<glyph unicode="u" d="M178 371v612h90v-600q0 -166 66.5 -246t210.5 -80q102 0 187 52.5t190 171.5v702h90v-983h-76l-10 190h-8q-184 -215 -388 -215q-180 0 -266 97.5t-86 298.5z" />
<glyph unicode="v" d="M127 983h94l271 -616q68 -147 122 -283h9q16 41 56 135t62 148l273 616h88l-436 -983h-97z" />
<glyph unicode="w" d="M23 983h96l157 -637q41 -166 60 -262h8l66 262l157 621h101l157 -621l66 -262h8q6 29 27.5 120t34.5 142l155 637h90l-250 -983h-116l-156 602q-8 31 -29.5 128t-36.5 153h-8q-51 -231 -65 -285l-152 -598h-117z" />
<glyph unicode="x" d="M164 0l393 510l-362 473h104l190 -250q96 -131 123 -166h9q80 102 129 170l184 246h100l-366 -477l397 -506h-104l-209 266q-12 16 -62.5 83t-77.5 100h-8q-76 -98 -137 -185l-203 -264h-100z" />
<glyph unicode="y" d="M123 983h94l287 -618q100 -213 135 -277h8q0 2 115 277l256 618h88l-463 -1106q-49 -139 -146.5 -232.5t-240.5 -93.5q-72 0 -119 21l25 80q49 -16 96 -17q205 0 307 261l35 86z" />
<glyph unicode="z" d="M147 0v49l771 856h-689v78h826v-47l-770 -856h792v-80h-930z" />
<glyph unicode="{" d="M264 537v65q305 0 305 164q0 66 -9 209t-9 213q0 147 89 204.5t288 57.5h106v-61h-119q-166 0 -223 -47.5t-57 -161.5q0 -61 7 -194.5t7 -199.5q0 -94 -38 -144t-136 -69v-8q98 -18 136 -68.5t38 -144.5q0 -76 -7 -201.5t-7 -191.5q0 -115 57.5 -162t222.5 -47h119v-61 h-106q-199 0 -288 57.5t-89 204.5q0 78 9 215t9 207q0 164 -305 164z" />
<glyph unicode="|" d="M578 -512v2048h73v-2048h-73z" />
<glyph unicode="}" d="M195 -250h118q168 0 226.5 47t58.5 162q0 66 -8 191.5t-8 201.5q0 94 36.5 144.5t135.5 68.5v8q-98 18 -135 68.5t-37 144.5q0 66 8 199t8 195q0 115 -58.5 162t-226.5 47h-118v61h106q199 0 287 -57.5t88 -204.5q0 -70 -8.5 -213.5t-8.5 -208.5q0 -164 304 -164v-65 q-303 0 -304 -164q0 -70 8.5 -207t8.5 -215q0 -147 -88 -204.5t-287 -57.5h-106v61z" />
<glyph unicode="~" d="M186 530q76 236 246 236q66 0 133.5 -46t128 -92t107.5 -46q59 0 100 34.5t78 147.5l63 -29q-78 -231 -245 -231q-66 0 -133.5 46t-128 92t-107.5 46q-59 0 -100 -36.5t-78 -145.5z" />
<glyph unicode="&#xa0;" />
<glyph unicode="&#xa1;" d="M496 878.5q0 59.5 34.5 94.5t84 35t84 -35t34.5 -94.5t-34.5 -94t-84 -34.5t-84 34.5t-34.5 94zM571 -244l11 779h65l10 -779v-145h-86v145z" />
<glyph unicode="&#xa2;" d="M250 637q0 203 111.5 328t283.5 143v227h72v-223q152 -4 274 -123l-49 -57q-106 94 -225 100v-788q135 6 252 110l47 -59q-139 -125 -299 -131v-221h-72v223q-176 16 -285.5 141t-109.5 330zM344 637q0 -160 81 -264.5t220 -124.5v780q-133 -23 -217 -128t-84 -263z" />
<glyph unicode="&#xa3;" d="M166 600v68l221 6q-6 18 -21.5 60t-22.5 64.5t-17.5 58.5t-14.5 66.5t-4 61.5q0 162 109.5 255t298.5 93q215 0 346 -145l-60 -55q-121 121 -290 120q-152 0 -235 -75.5t-83 -192.5q0 -39 9.5 -83t16.5 -69.5t28.5 -84t27.5 -74.5h412v-74h-389q18 -84 18 -147 q0 -123 -43 -208t-133 -155v-8h725v-82h-891v55q131 61 195.5 167t64.5 231q0 61 -22 147h-246z" />
<glyph unicode="&#xa4;" d="M145 250l174 178q-76 104 -75 244q0 145 75 250l-174 180l56 57l176 -182q100 90 237 90q135 0 238 -90l176 182l55 -57l-176 -180q78 -109 78 -250q0 -135 -78 -244l176 -178l-55 -57l-176 180q-98 -92 -238 -92q-137 0 -239 92l-174 -180zM334 672q0 -137 82 -226.5 t198.5 -89.5t198.5 89.5t82 226.5q0 139 -82 229t-198.5 90t-198.5 -90t-82 -229z" />
<glyph unicode="&#xa5;" d="M133 1309h96l226 -396q35 -61 155 -280h8q109 199 160 280l226 396h92l-410 -688h363v-68h-392v-145h392v-70h-392v-338h-90v338h-387v70h387v145h-387v68h359z" />
<glyph unicode="&#xa6;" d="M578 451h73v-963h-73v963zM578 571v965h73v-965h-73z" />
<glyph unicode="&#xa7;" d="M209 721q0 170 201 268q-70 70 -70 166t72.5 168t205.5 72q161 0 306 -109l-50 -63q-127 94 -253 94q-96 0 -144.5 -45t-48.5 -111q0 -74 61.5 -126t148.5 -87t173 -74.5t147.5 -113.5t61.5 -178q0 -96 -50 -155.5t-145 -109.5q68 -72 68 -170q0 -109 -86 -181t-205 -72 q-205 0 -348 129l61 57q125 -111 287 -111q92 0 148.5 50.5t56.5 123.5q0 76 -61.5 129.5t-149.5 88t-176 74.5t-149.5 111.5t-61.5 174.5zM293 727q0 -76 51 -132t114.5 -84t158 -68.5t145.5 -73.5q90 37 132 82t42 124q0 78 -51 136.5t-113.5 87t-157 69.5t-143.5 74 q-90 -45 -134 -93t-44 -122z" />
<glyph unicode="&#xa8;" d="M352 1309q0 37 22.5 61.5t57.5 24.5t58.5 -26t23.5 -60.5t-23.5 -59t-58.5 -24.5t-57.5 24.5t-22.5 59.5zM715 1308.5q0 34.5 23.5 60.5t58 26t57.5 -24.5t23 -61.5q0 -35 -23 -59.5t-57.5 -24.5t-58 24.5t-23.5 59z" />
<glyph unicode="&#xa9;" d="M76 659.5q0 307.5 149.5 491.5t389 184t389 -184t149.5 -491.5t-150.5 -496t-388 -188.5t-388 188.5t-150.5 496zM147 659.5q0 -278.5 128 -449.5t339 -171t339 171t128 449.5t-128 446.5t-339 168t-339 -168t-128 -446.5zM307 659q0 172 96.5 277.5t231.5 105.5 q117 0 205 -92l-47 -53q-76 70 -158 70q-104 0 -172 -85t-68 -223q0 -152 64.5 -240.5t169.5 -88.5q96 0 192 82l39 -58q-111 -100 -235 -100q-135 0 -226.5 109.5t-91.5 295.5z" />
<glyph unicode="&#xaa;" d="M358 698q0 106 108.5 164t344.5 82q-4 188 -164 189q-102 0 -223 -74l-35 57q133 84 268 84q121 0 178.5 -69.5t57.5 -188.5v-410h-70l-6 82h-2q-133 -98 -248 -98q-90 0 -149.5 48t-59.5 134zM440 702q0 -59 42 -88.5t106 -29.5q100 0 223 96v205q-199 -20 -285 -64.5 t-86 -118.5z" />
<glyph unicode="&#xab;" d="M217 473v86l291 334l51 -47l-258 -330l258 -334l-51 -43zM643 473v86l291 334l51 -47l-258 -330l258 -334l-51 -43z" />
<glyph unicode="&#xac;" d="M195 596v78h839v-490h-84v412h-755z" />
<glyph unicode="&#xad;" d="M287 549v100h655v-100h-655z" />
<glyph unicode="&#xae;" d="M242 1059q0 176 107.5 287.5t264.5 111.5q156 0 264.5 -111.5t108.5 -287.5q0 -174 -108.5 -284.5t-264.5 -110.5q-158 0 -265 110.5t-107 284.5zM305 1058.5q0 -145.5 89 -240.5t220 -95t220.5 95t89.5 240.5t-90.5 244t-219.5 98.5t-219 -98.5t-90 -244zM475 856v422 h141q158 0 158 -131q0 -39 -23.5 -72t-58.5 -43l101 -176h-76l-80 156h-96v-156h-66zM541 1067h59q104 0 105 76q0 78 -99 78h-65v-154z" />
<glyph unicode="&#xaf;" d="M383 1241v74h463v-74h-463z" />
<glyph unicode="&#xb0;" d="M381 1157q0 111 68.5 177.5t165 66.5t165 -66.5t68.5 -177.5q0 -109 -68.5 -175.5t-165 -66.5t-165 67t-68.5 175zM451 1157q0 -76 46 -126t117.5 -50t117.5 50t46 126q0 78 -46 129t-117.5 51t-117.5 -51t-46 -129z" />
<glyph unicode="&#xb1;" d="M195 0v76h839v-76h-839zM195 598v76h376v411h86v-411h377v-76h-377v-412h-86v412h-376z" />
<glyph unicode="&#xb2;" d="M375 1423q92 119 223 119q104 0 161.5 -53t57.5 -152q0 -20 -4 -38.5t-15.5 -40t-19.5 -37t-29.5 -40t-34 -38t-43 -41t-45 -40.5t-51 -46t-53.5 -47h330v-68h-463v49q150 121 205 169t99 106.5t44 109.5q0 66 -37.5 103t-105.5 37q-96 0 -166 -95z" />
<glyph unicode="&#xb3;" d="M360 1001l56 50q72 -109 196 -109q150 0 150 119q0 125 -223 125v57q96 0 144 35t48 92q0 106 -133 107q-94 0 -160 -78l-47 47q76 96 217 96q92 0 147.5 -43t55.5 -123q0 -115 -119 -157q68 -12 109 -53.5t41 -106.5q0 -88 -63.5 -135t-168.5 -47q-72 0 -140.5 35.5 t-109.5 88.5z" />
<glyph unicode="&#xb4;" d="M500 1171l188 283h109l-219 -283h-78z" />
<glyph unicode="&#xb5;" d="M197 -410v1393h90v-618q0 -158 62.5 -233t199.5 -75q96 0 174 47.5t180 157.5v721h90v-983h-75l-11 172h-8q-166 -195 -356 -195q-182 0 -262 125l6 -196v-316h-90z" />
<glyph unicode="&#xb6;" d="M178 924q0 221 126 323.5t349 102.5h90v-850h-57q-238 0 -373 102.5t-135 321.5zM858 -164v1514h86v-1514h-86z" />
<glyph unicode="&#xb7;" d="M492 702q0 61 35.5 98.5t87 37.5t87 -37t35.5 -99q0 -59 -36.5 -96t-86 -37t-86 37t-36.5 96z" />
<glyph unicode="&#xb8;" d="M481 -365q190 29 191 105q0 73 -137 108l81 156h72l-59 -115q123 -43 123 -141q0 -74 -73 -117t-183 -57z" />
<glyph unicode="&#xb9;" d="M440 1395v59q100 18 183 64h63v-617h-78v494h-168z" />
<glyph unicode="&#xba;" d="M303 858q0 158 90 250t221 92q133 0 222.5 -92t89.5 -250t-89 -250t-223 -92q-131 0 -221 92t-90 250zM389 858q0 -121 62.5 -195.5t163 -74.5t163 74.5t62.5 195.5t-62.5 198t-163 77t-163 -77t-62.5 -198z" />
<glyph unicode="&#xbb;" d="M244 182l258 334l-258 330l51 47l291 -334v-86l-291 -334zM670 182l258 334l-258 330l51 47l291 -334v-86l-291 -334z" />
<glyph unicode="&#xbc;" d="M72 129l370 403l45 -40l-350 -420zM158 1186v59q96 16 180 64h63v-617h-75v494h-168zM647 164v41l340 411h70v-393h100v-59h-100v-164h-74v164h-336zM741 858l351 420l65 -57l-371 -404zM743 223h240v156l8 147h-8l-104 -135z" />
<glyph unicode="&#xbd;" d="M72 129l370 403l45 -40l-350 -420zM158 1186v59q96 16 180 64h63v-617h-75v494h-168zM657 522q96 119 224 119q104 0 162.5 -53t58.5 -152q0 -18 -4 -36.5t-10.5 -34t-19.5 -35t-22.5 -33.5t-30 -35.5t-32.5 -34t-40 -38t-42 -38t-48 -42t-48 -41.5h332v-68h-463v49 q237 194 288 254q60 69 60 131q0 66 -38 102.5t-107 36.5q-98 0 -164 -94zM741 858l351 420l65 -57l-371 -404z" />
<glyph unicode="&#xbe;" d="M78 793l53 49q72 -109 197 -109q152 0 151 119q0 125 -223 125v57q96 0 143 35t47 92q0 106 -131 107q-95 0 -161 -78l-45 47q76 96 215 96q92 0 147 -44t55 -122q0 -115 -116 -157q68 -12 108.5 -53.5t40.5 -106.5q0 -88 -63.5 -135t-167.5 -47q-72 0 -140.5 35.5 t-109.5 89.5zM145 129l371 403l45 -40l-350 -420zM647 164v41l340 411h70v-393h100v-59h-100v-164h-74v164h-336zM743 223h240v156l8 147h-8l-104 -135zM815 858l350 420l66 -57l-371 -404z" />
<glyph unicode="&#xbf;" d="M274 -102q0 74 40 141t95.5 119.5t109.5 105.5t86 123t20 148h82q14 -84 -15.5 -157t-82 -127t-108 -105.5t-95 -113t-39.5 -126.5q0 -104 68.5 -172t201.5 -68q172 0 299 131l59 -55q-152 -156 -364 -156q-164 0 -260.5 88t-96.5 224zM528 878.5q0 59.5 35 94.5t84 35 t84 -35t35 -94.5t-35 -94t-84 -34.5t-84 34.5t-35 94z" />
<glyph unicode="&#xc0;" d="M92 0l475 1350h95l475 -1350h-101l-155 463h-535l-160 -463h-94zM375 543h479l-86 252q-94 272 -150 467h-8q-35 -125 -149 -467zM383 1669h119l188 -217h-82z" />
<glyph unicode="&#xc1;" d="M92 0l475 1350h95l475 -1350h-101l-155 463h-535l-160 -463h-94zM375 543h479l-86 252q-94 272 -150 467h-8q-35 -125 -149 -467zM539 1452l188 217h119l-225 -217h-82z" />
<glyph unicode="&#xc2;" d="M92 0l475 1350h95l475 -1350h-101l-155 463h-535l-160 -463h-94zM375 543h479l-86 252q-94 272 -150 467h-8q-35 -125 -149 -467zM375 1452l196 217h86l197 -217h-82l-154 147h-8l-153 -147h-82z" />
<glyph unicode="&#xc3;" d="M92 0l475 1350h95l475 -1350h-101l-155 463h-535l-160 -463h-94zM348 1466q4 76 42 132.5t104 56.5q57 0 130.5 -57.5t112.5 -57.5q33 0 55.5 31t28.5 84h60q-6 -76 -44 -132.5t-102 -56.5q-57 0 -131 58.5t-112 58.5q-33 0 -55.5 -31.5t-28.5 -85.5h-60zM375 543h479 l-86 252q-94 272 -150 467h-8q-35 -125 -149 -467z" />
<glyph unicode="&#xc4;" d="M92 0l475 1350h95l475 -1350h-101l-155 463h-535l-160 -463h-94zM375 543h479l-86 252q-94 272 -150 467h-8q-35 -125 -149 -467zM379 1559q0 35 20.5 55t53 20t54 -20.5t21.5 -54.5q0 -33 -21.5 -53.5t-54 -20.5t-53 20.5t-20.5 53.5zM700 1559q0 35 21.5 55t54.5 20 t53.5 -20.5t20.5 -54.5q0 -33 -20.5 -53.5t-53.5 -20.5t-54.5 20.5t-21.5 53.5z" />
<glyph unicode="&#xc5;" d="M92 0l475 1350h95l475 -1350h-101l-155 463h-535l-160 -463h-94zM375 543h479l-86 252q-94 272 -150 467h-8q-35 -125 -149 -467zM446 1602q0 74 47.5 120.5t120.5 46.5q70 0 119 -47t49 -120q0 -76 -48 -122t-120 -46q-74 0 -121 46t-47 122zM508 1602q0 -55 29.5 -85 t76.5 -30q45 0 75 30.5t30 84.5q0 51 -31 82.5t-74 31.5q-45 0 -75.5 -30.5t-30.5 -83.5z" />
<glyph unicode="&#xc6;" d="M0 0l594 1350h592v-82h-438v-510h333v-82h-333v-594h458v-82h-549v444h-364l-191 -444h-102zM326 522h331v746h-8q-37 -88 -107.5 -249t-97.5 -222z" />
<glyph unicode="&#xc7;" d="M147 678q0 319 159 507.5t421 188.5q209 0 350 -162l-57 -61q-121 137 -293 137q-223 0 -352 -165t-129 -445.5t129 -448.5t346 -168q191 0 338 166l55 -59q-158 -184 -379 -193l-45 -86q123 -43 123 -141q0 -74 -72.5 -117t-183.5 -57l-14 61q190 29 190 105 q0 74 -137 108l68 129q-231 20 -374 209t-143 492z" />
<glyph unicode="&#xc8;" d="M260 0v1350h799v-82h-705v-510h594v-82h-594v-594h725v-82h-819zM457 1669h118l189 -217h-82z" />
<glyph unicode="&#xc9;" d="M260 0v1350h799v-82h-705v-510h594v-82h-594v-594h725v-82h-819zM612 1452l189 217h119l-226 -217h-82z" />
<glyph unicode="&#xca;" d="M260 0v1350h799v-82h-705v-510h594v-82h-594v-594h725v-82h-819zM449 1452l196 217h86l197 -217h-82l-154 147h-8l-154 -147h-81z" />
<glyph unicode="&#xcb;" d="M260 0v1350h799v-82h-705v-510h594v-82h-594v-594h725v-82h-819zM453 1559q0 35 20.5 55t53 20t54 -20.5t21.5 -54.5q0 -33 -21.5 -53.5t-54 -20.5t-53 20.5t-20.5 53.5zM774 1559q0 35 21.5 55t54.5 20t53.5 -20.5t20.5 -54.5q0 -33 -20.5 -53.5t-53.5 -20.5t-54.5 20.5 t-21.5 53.5z" />
<glyph unicode="&#xcc;" d="M219 0v82h348v1186h-348v82h791v-82h-348v-1186h348v-82h-791zM383 1669h119l188 -217h-82z" />
<glyph unicode="&#xcd;" d="M219 0v82h348v1186h-348v82h791v-82h-348v-1186h348v-82h-791zM539 1452l188 217h119l-225 -217h-82z" />
<glyph unicode="&#xce;" d="M219 0v82h348v1186h-348v82h791v-82h-348v-1186h348v-82h-791zM375 1452l196 217h86l197 -217h-82l-154 147h-8l-153 -147h-82z" />
<glyph unicode="&#xcf;" d="M219 0v82h348v1186h-348v82h791v-82h-348v-1186h348v-82h-791zM379 1559q0 35 20.5 55t53 20t54 -20.5t21.5 -54.5q0 -33 -21.5 -53.5t-54 -20.5t-53 20.5t-20.5 53.5zM700 1559q0 35 21.5 55t54.5 20t53.5 -20.5t20.5 -54.5q0 -33 -20.5 -53.5t-53.5 -20.5t-54.5 20.5 t-21.5 53.5z" />
<glyph unicode="&#xd0;" d="M51 680v59l158 9v602h309q303 0 456.5 -177.5t153.5 -492.5q0 -317 -153.5 -498.5t-454.5 -181.5h-311v680h-158zM303 80h207q262 0 391 161.5t129 438.5q0 274 -129 432t-391 158h-207v-522h336v-68h-336v-600z" />
<glyph unicode="&#xd1;" d="M188 0v1350h99l526 -955l145 -266h5q-2 43 -5.5 123t-5.5 145.5t-2 122.5v830h90v-1350h-98l-526 954l-146 267h-4q2 -45 5 -122t5.5 -141.5t2.5 -121.5v-836h-91zM360 1466q4 76 42 132.5t104 56.5q57 0 131 -57.5t113 -57.5q33 0 55 31t29 84h59q-6 -76 -44 -132.5 t-101 -56.5q-57 0 -131 58.5t-113 58.5q-33 0 -55.5 -31.5t-28.5 -85.5h-60z" />
<glyph unicode="&#xd2;" d="M111 680q0 315 140 504.5t363.5 189.5t363.5 -189.5t140 -504.5q0 -317 -140 -511t-363.5 -194t-363.5 193.5t-140 511.5zM209 680q0 -281 111.5 -450t294 -169t294 169t111.5 450q0 279 -111.5 443.5t-294 164.5t-294 -165t-111.5 -443zM383 1669h119l188 -217h-82z" />
<glyph unicode="&#xd3;" d="M111 680q0 315 140 504.5t363.5 189.5t363.5 -189.5t140 -504.5q0 -317 -140 -511t-363.5 -194t-363.5 193.5t-140 511.5zM209 680q0 -281 111.5 -450t294 -169t294 169t111.5 450q0 279 -111.5 443.5t-294 164.5t-294 -165t-111.5 -443zM539 1452l188 217h119l-225 -217 h-82z" />
<glyph unicode="&#xd4;" d="M111 680q0 315 140 504.5t363.5 189.5t363.5 -189.5t140 -504.5q0 -317 -140 -511t-363.5 -194t-363.5 193.5t-140 511.5zM209 680q0 -281 111.5 -450t294 -169t294 169t111.5 450q0 279 -111.5 443.5t-294 164.5t-294 -165t-111.5 -443zM375 1452l196 217h86l197 -217 h-82l-154 147h-8l-153 -147h-82z" />
<glyph unicode="&#xd5;" d="M111 680q0 315 140 504.5t363.5 189.5t363.5 -189.5t140 -504.5q0 -317 -140 -511t-363.5 -194t-363.5 193.5t-140 511.5zM209 680q0 -281 111.5 -450t294 -169t294 169t111.5 450q0 279 -111.5 443.5t-294 164.5t-294 -165t-111.5 -443zM348 1466q4 76 42 132.5 t104 56.5q57 0 130.5 -57.5t112.5 -57.5q33 0 55.5 31t28.5 84h60q-6 -76 -44.5 -132.5t-101.5 -56.5q-57 0 -131 58.5t-112 58.5q-33 0 -55.5 -31.5t-28.5 -85.5h-60z" />
<glyph unicode="&#xd6;" d="M111 680q0 315 140 504.5t363.5 189.5t363.5 -189.5t140 -504.5q0 -317 -140 -511t-363.5 -194t-363.5 193.5t-140 511.5zM209 680q0 -281 111.5 -450t294 -169t294 169t111.5 450q0 279 -111.5 443.5t-294 164.5t-294 -165t-111.5 -443zM379 1559q0 35 20.5 55t53 20 t54 -20.5t21.5 -54.5q0 -33 -21.5 -53.5t-54 -20.5t-53 20.5t-20.5 53.5zM700 1559q0 35 21.5 55t54.5 20t53.5 -20.5t20.5 -54.5q0 -33 -20.5 -53.5t-53.5 -20.5t-54.5 20.5t-21.5 53.5z" />
<glyph unicode="&#xd7;" d="M229 293l330 342l-330 342l56 57l329 -346l330 346l55 -57l-329 -342l329 -342l-55 -57l-330 344l-329 -344z" />
<glyph unicode="&#xd8;" d="M111 680q0 315 140 504.5t363 189.5q195 0 326 -143l113 166l59 -43l-123 -185q129 -186 129 -489q0 -317 -140 -511t-364 -194q-195 0 -327 150l-117 -172l-57 43l127 188q-129 193 -129 496zM209 680q0 -244 88 -410l592 881q-109 137 -275 137q-182 0 -293.5 -165 t-111.5 -443zM340 205q109 -143 274 -144q182 0 294 169t112 450q0 241 -88 405z" />
<glyph unicode="&#xd9;" d="M182 506v844h94v-834q0 -244 93.5 -349.5t244.5 -105.5q154 0 249 105.5t95 349.5v834h89v-844q0 -285 -120 -408t-313 -123q-190 0 -311 123t-121 408zM383 1669h119l188 -217h-82z" />
<glyph unicode="&#xda;" d="M182 506v844h94v-834q0 -244 93.5 -349.5t244.5 -105.5q154 0 249 105.5t95 349.5v834h89v-844q0 -285 -120 -408t-313 -123q-190 0 -311 123t-121 408zM539 1452l188 217h119l-225 -217h-82z" />
<glyph unicode="&#xdb;" d="M182 506v844h94v-834q0 -244 93.5 -349.5t244.5 -105.5q154 0 249 105.5t95 349.5v834h89v-844q0 -285 -120 -408t-313 -123q-190 0 -311 123t-121 408zM375 1452l196 217h86l197 -217h-82l-154 147h-8l-153 -147h-82z" />
<glyph unicode="&#xdc;" d="M182 506v844h94v-834q0 -244 93.5 -349.5t244.5 -105.5q154 0 249 105.5t95 349.5v834h89v-844q0 -285 -120 -408t-313 -123q-190 0 -311 123t-121 408zM379 1559q0 35 20.5 55t53 20t54 -20.5t21.5 -54.5q0 -33 -21.5 -53.5t-54 -20.5t-53 20.5t-20.5 53.5zM700 1559 q0 35 21.5 55t54.5 20t53.5 -20.5t20.5 -54.5q0 -33 -20.5 -53.5t-53.5 -20.5t-54.5 20.5t-21.5 53.5z" />
<glyph unicode="&#xdd;" d="M104 1350h97l239 -447q35 -57 92.5 -165.5t81.5 -151.5h9q25 43 176 319l233 445h92l-462 -854v-496h-95v496zM539 1452l188 217h119l-225 -217h-82z" />
<glyph unicode="&#xde;" d="M242 0v1350h94v-240h274q236 0 359 -88t123 -289q0 -195 -126 -294t-356 -99h-274v-340h-94zM336 420h250q209 0 308 74.5t99 238.5t-97 230.5t-310 66.5h-250v-610z" />
<glyph unicode="&#xdf;" d="M213 0v1092q0 184 105.5 294.5t275.5 110.5q137 0 221 -80t84 -198q0 -72 -34 -136.5t-75.5 -105.5t-75.5 -96.5t-34 -108.5q0 -63 48 -108.5t116.5 -76t137.5 -65.5t117 -101.5t48 -160.5q0 -121 -92 -203t-230 -82q-166 0 -299 103l47 67q123 -92 252 -92 q109 0 169.5 59.5t60.5 141.5q0 78 -48.5 132t-117 87t-137 64.5t-116.5 88t-48 138.5q0 55 22.5 104.5t54 87t64.5 75.5t55.5 84t22.5 97q0 90 -57.5 148.5t-159.5 58.5q-133 0 -210 -90t-77 -266v-1063h-90z" />
<glyph unicode="&#xe0;" d="M188 246q0 164 176.5 250t577.5 120q-4 311 -293 312q-182 0 -373 -133l-40 67q76 53 191.5 99.5t231.5 46.5q188 0 280.5 -104.5t92.5 -274.5v-629h-76l-10 147h-4q-219 -172 -412 -172q-143 0 -242.5 70t-99.5 201zM281 250q0 -98 77.5 -147.5t188.5 -49.5 q182 0 395 178v316q-365 -33 -513 -103.5t-148 -193.5zM465 1454h110l187 -283h-76z" />
<glyph unicode="&#xe1;" d="M188 246q0 164 176.5 250t577.5 120q-4 311 -293 312q-182 0 -373 -133l-40 67q76 53 191.5 99.5t231.5 46.5q188 0 280.5 -104.5t92.5 -274.5v-629h-76l-10 147h-4q-219 -172 -412 -172q-143 0 -242.5 70t-99.5 201zM281 250q0 -98 77.5 -147.5t188.5 -49.5 q182 0 395 178v316q-365 -33 -513 -103.5t-148 -193.5zM535 1171l188 283h108l-219 -283h-77z" />
<glyph unicode="&#xe2;" d="M188 246q0 164 176.5 250t577.5 120q-4 311 -293 312q-182 0 -373 -133l-40 67q76 53 191.5 99.5t231.5 46.5q188 0 280.5 -104.5t92.5 -274.5v-629h-76l-10 147h-4q-219 -172 -412 -172q-143 0 -242.5 70t-99.5 201zM281 250q0 -98 77.5 -147.5t188.5 -49.5 q182 0 395 178v316q-365 -33 -513 -103.5t-148 -193.5zM414 1171l194 283h82l193 -283h-76l-154 207h-8l-153 -207h-78z" />
<glyph unicode="&#xe3;" d="M188 246q0 164 176.5 250t577.5 120q-4 311 -293 312q-182 0 -373 -133l-40 67q76 53 191.5 99.5t231.5 46.5q188 0 280.5 -104.5t92.5 -274.5v-629h-76l-10 147h-4q-219 -172 -412 -172q-143 0 -242.5 70t-99.5 201zM281 250q0 -98 77.5 -147.5t188.5 -49.5 q182 0 395 178v316q-365 -33 -513 -103.5t-148 -193.5zM393 1190q16 184 146 184q53 0 122.5 -57t100.5 -57q63 0 80 114h61q-6 -78 -40 -131t-103 -53q-51 0 -121 57.5t-104 57.5q-66 0 -78 -115h-64z" />
<glyph unicode="&#xe4;" d="M188 246q0 164 176.5 250t577.5 120q-4 311 -293 312q-182 0 -373 -133l-40 67q76 53 191.5 99.5t231.5 46.5q188 0 280.5 -104.5t92.5 -274.5v-629h-76l-10 147h-4q-219 -172 -412 -172q-143 0 -242.5 70t-99.5 201zM281 250q0 -98 77.5 -147.5t188.5 -49.5 q182 0 395 178v316q-365 -33 -513 -103.5t-148 -193.5zM387 1309q0 37 22.5 61.5t57.5 24.5t57.5 -24.5t22.5 -61.5q0 -35 -22.5 -59.5t-57.5 -24.5t-57.5 24.5t-22.5 59.5zM750 1309q0 37 22.5 61.5t58.5 24.5q35 0 57.5 -24.5t22.5 -61.5q0 -35 -22.5 -59.5t-57.5 -24.5 q-37 0 -59 23.5t-22 60.5z" />
<glyph unicode="&#xe5;" d="M188 246q0 164 176.5 250t577.5 120q-4 311 -293 312q-182 0 -373 -133l-40 67q76 53 191.5 99.5t231.5 46.5q188 0 280.5 -104.5t92.5 -274.5v-629h-76l-10 147h-4q-219 -172 -412 -172q-143 0 -242.5 70t-99.5 201zM281 250q0 -98 77.5 -147.5t188.5 -49.5 q182 0 395 178v316q-365 -33 -513 -103.5t-148 -193.5zM481 1280q0 80 47 129t121 49t121 -49t47 -129q0 -78 -47 -127t-121 -49t-121 49t-47 127zM541 1280q0 -53 31.5 -88t76.5 -35t76 34t31 89t-31 90t-76 35t-76.5 -35t-31.5 -90z" />
<glyph unicode="&#xe6;" d="M35 254q0 291 536 362q0 313 -213 314q-123 0 -247 -90l-39 65q156 102 305 103q98 0 163.5 -63.5t90.5 -166.5q102 229 305 230q141 0 216 -124t75 -311q0 -55 -4 -94h-568q2 -193 75 -309.5t214 -116.5q106 0 217 70l37 -64q-125 -84 -258 -84q-203 0 -301 203 q-182 -203 -346 -203q-117 0 -187.5 72t-70.5 207zM125 254q0 -98 49 -149.5t135 -51.5q68 0 150 50.5t147 138.5q-35 123 -35 250v55q-238 -37 -342 -106.5t-104 -186.5zM657 549h488q0 381 -215 381q-121 0 -194 -102.5t-79 -278.5z" />
<glyph unicode="&#xe7;" d="M178 489q0 240 153.5 379.5t383.5 139.5q197 0 354 -150l-53 -61q-141 131 -299 131q-197 0 -320 -122t-123 -316.5t121 -314.5t320 -120q180 0 332 142l47 -64q-150 -144 -351 -158l-45 -86q123 -43 123 -141q0 -141 -258 -174l-12 61q188 27 188 105q0 74 -137 108 l68 129q-219 10 -355.5 147.5t-136.5 364.5z" />
<glyph unicode="&#xe8;" d="M158 489q0 231 147.5 375t343.5 144q203 0 322 -122t119 -333q0 -49 -5 -74h-833q4 -188 123 -307t309 -119q174 0 328 107l37 -70q-180 -115 -373 -115q-219 0 -368.5 140.5t-149.5 373.5zM252 549h749q0 184 -94 282.5t-256 98.5q-152 0 -266.5 -104.5t-132.5 -276.5z M463 1454h110l187 -283h-76z" />
<glyph unicode="&#xe9;" d="M158 489q0 231 147.5 375t343.5 144q203 0 322 -122t119 -333q0 -49 -5 -74h-833q4 -188 123 -307t309 -119q174 0 328 107l37 -70q-180 -115 -373 -115q-219 0 -368.5 140.5t-149.5 373.5zM252 549h749q0 184 -94 282.5t-256 98.5q-152 0 -266.5 -104.5t-132.5 -276.5z M532 1171l189 283h108l-219 -283h-78z" />
<glyph unicode="&#xea;" d="M158 489q0 231 147.5 375t343.5 144q203 0 322 -122t119 -333q0 -49 -5 -74h-833q4 -188 123 -307t309 -119q174 0 328 107l37 -70q-180 -115 -373 -115q-219 0 -368.5 140.5t-149.5 373.5zM252 549h749q0 184 -94 282.5t-256 98.5q-152 0 -266.5 -104.5t-132.5 -276.5z M412 1171l194 283h80l195 -283h-76l-154 207h-8l-154 -207h-77z" />
<glyph unicode="&#xeb;" d="M158 489q0 231 147.5 375t343.5 144q203 0 322 -122t119 -333q0 -49 -5 -74h-833q4 -188 123 -307t309 -119q174 0 328 107l37 -70q-180 -115 -373 -115q-219 0 -368.5 140.5t-149.5 373.5zM252 549h749q0 184 -94 282.5t-256 98.5q-152 0 -266.5 -104.5t-132.5 -276.5z M385 1309q0 37 22.5 61.5t59.5 24.5q35 0 57.5 -24.5t22.5 -61.5q0 -35 -22.5 -59.5t-57.5 -24.5q-37 0 -59.5 23.5t-22.5 60.5zM750 1309q0 37 22.5 61.5t57 24.5t58 -26t23.5 -60.5t-23.5 -59t-58 -24.5t-57 24.5t-22.5 59.5z" />
<glyph unicode="&#xec;" d="M199 905v78h583v-983h-90v905h-493zM532 1454h109l188 -283h-77z" />
<glyph unicode="&#xed;" d="M199 905v78h583v-983h-90v905h-493zM602 1171l186 283h111l-221 -283h-76z" />
<glyph unicode="&#xee;" d="M199 905v78h583v-983h-90v905h-493zM481 1171l195 283h80l194 -283h-78l-153 207h-8l-154 -207h-76z" />
<glyph unicode="&#xef;" d="M199 905v78h583v-983h-90v905h-493zM453 1309q0 37 22.5 61.5t59.5 24.5q35 0 57 -24.5t22 -61.5q0 -35 -22 -59.5t-57 -24.5q-37 0 -59.5 23.5t-22.5 60.5zM817 1309q0 37 22.5 61.5t57.5 24.5t58.5 -26t23.5 -60.5t-23.5 -59t-58.5 -24.5t-57.5 24.5t-22.5 59.5z" />
<glyph unicode="&#xf0;" d="M137 449q0 205 131 330.5t346 125.5q102 0 195.5 -50t161.5 -132q-47 301 -266 489l-308 -159l-32 57l284 147q-111 86 -274 164l45 62q169 -77 307 -185l274 142l31 -56l-252 -131q299 -279 299 -737q0 -246 -127 -393.5t-340 -147.5q-195 0 -335 130.5t-140 343.5z M229 449q0 -172 111.5 -283t273.5 -111q188 0 280.5 127t92.5 332q0 37 -4 107q-145 207 -367 206q-186 0 -286.5 -108.5t-100.5 -269.5z" />
<glyph unicode="&#xf1;" d="M215 0v983h78l10 -188h8q96 102 187.5 157.5t199.5 55.5q354 0 355 -396v-612h-92v600q0 166 -67 246t-210 80q-100 0 -182 -51.5t-195 -169.5v-705h-92zM399 1190q6 78 41 131t103 53q53 0 123.5 -57t101.5 -57q63 0 80 114h61q-6 -76 -40.5 -130t-104.5 -54 q-51 0 -121 57.5t-102 57.5q-63 0 -80 -115h-62z" />
<glyph unicode="&#xf2;" d="M137 489q0 240 137.5 379.5t340 139.5t340 -139.5t137.5 -379.5q0 -236 -138.5 -375t-339 -139t-339 139t-138.5 375zM233 489q0 -193 108 -313.5t273.5 -120.5t273 121t107.5 313q0 195 -107.5 317t-273 122t-273.5 -122t-108 -317zM432 1454h109l188 -283h-78z" />
<glyph unicode="&#xf3;" d="M137 489q0 240 137.5 379.5t340 139.5t340 -139.5t137.5 -379.5q0 -236 -138.5 -375t-339 -139t-339 139t-138.5 375zM233 489q0 -193 108 -313.5t273.5 -120.5t273 121t107.5 313q0 195 -107.5 317t-273 122t-273.5 -122t-108 -317zM500 1171l188 283h109l-219 -283h-78 z" />
<glyph unicode="&#xf4;" d="M137 489q0 240 137.5 379.5t340 139.5t340 -139.5t137.5 -379.5q0 -236 -138.5 -375t-339 -139t-339 139t-138.5 375zM233 489q0 -193 108 -313.5t273.5 -120.5t273 121t107.5 313q0 195 -107.5 317t-273 122t-273.5 -122t-108 -317zM379 1171l194 283h82l195 -283h-78 l-154 207h-8l-153 -207h-78z" />
<glyph unicode="&#xf5;" d="M137 489q0 240 137.5 379.5t340 139.5t340 -139.5t137.5 -379.5q0 -236 -138.5 -375t-339 -139t-339 139t-138.5 375zM233 489q0 -193 108 -313.5t273.5 -120.5t273 121t107.5 313q0 195 -107.5 317t-273 122t-273.5 -122t-108 -317zM360 1190q6 78 40 131t104 53 q53 0 123.5 -57t101.5 -57q66 0 78 114h61q-6 -78 -39.5 -131t-103.5 -53q-53 0 -123 57.5t-102 57.5q-66 0 -78 -115h-62z" />
<glyph unicode="&#xf6;" d="M137 489q0 240 137.5 379.5t340 139.5t340 -139.5t137.5 -379.5q0 -236 -138.5 -375t-339 -139t-339 139t-138.5 375zM233 489q0 -193 108 -313.5t273.5 -120.5t273 121t107.5 313q0 195 -107.5 317t-273 122t-273.5 -122t-108 -317zM352 1309q0 37 22.5 61.5t57.5 24.5 t58.5 -26t23.5 -60.5t-23.5 -59t-58.5 -24.5t-57.5 24.5t-22.5 59.5zM715 1308.5q0 34.5 23.5 60.5t58 26t57.5 -24.5t23 -61.5q0 -35 -23 -59.5t-57.5 -24.5t-58 24.5t-23.5 59z" />
<glyph unicode="&#xf7;" d="M195 596v78h839v-78h-839zM537 266q0 35 22.5 57.5t55 22.5t55 -22.5t22.5 -57.5q0 -37 -22.5 -60.5t-55 -23.5t-55 23.5t-22.5 60.5zM537 1004q0 35 22.5 57t55 22t55 -22.5t22.5 -56.5q0 -37 -22.5 -60.5t-55 -23.5t-55 23.5t-22.5 60.5z" />
<glyph unicode="&#xf8;" d="M137 489q0 240 137.5 379.5t339.5 139.5q180 0 308 -111l112 129l53 -43l-116 -133q121 -141 121 -361q0 -236 -138.5 -375t-339.5 -139q-180 0 -307 109l-112 -129l-54 43l117 135q-121 141 -121 356zM233 489q0 -171 86 -286l545 628q-104 98 -250 99 q-166 0 -273.5 -123t-107.5 -318zM365 150q102 -96 249 -97q166 0 273.5 122t107.5 314q0 174 -86 289z" />
<glyph unicode="&#xf9;" d="M178 371v612h90v-600q0 -166 66.5 -246t210.5 -80q102 0 187 52.5t190 171.5v702h90v-983h-76l-10 190h-8q-184 -215 -388 -215q-180 0 -266 97.5t-86 298.5zM420 1454h108l189 -283h-78z" />
<glyph unicode="&#xfa;" d="M178 371v612h90v-600q0 -166 66.5 -246t210.5 -80q102 0 187 52.5t190 171.5v702h90v-983h-76l-10 190h-8q-184 -215 -388 -215q-180 0 -266 97.5t-86 298.5zM489 1171l187 283h110l-221 -283h-76z" />
<glyph unicode="&#xfb;" d="M178 371v612h90v-600q0 -166 66.5 -246t210.5 -80q102 0 187 52.5t190 171.5v702h90v-983h-76l-10 190h-8q-184 -215 -388 -215q-180 0 -266 97.5t-86 298.5zM369 1171l192 283h82l195 -283h-78l-154 207h-8l-154 -207h-75z" />
<glyph unicode="&#xfc;" d="M178 371v612h90v-600q0 -166 66.5 -246t210.5 -80q102 0 187 52.5t190 171.5v702h90v-983h-76l-10 190h-8q-184 -215 -388 -215q-180 0 -266 97.5t-86 298.5zM340 1309q0 37 22.5 61.5t57.5 24.5q37 0 59.5 -24.5t22.5 -61.5t-22.5 -60.5t-59.5 -23.5q-35 0 -57.5 24.5 t-22.5 59.5zM705 1309q0 37 22.5 61.5t57 24.5t57 -24.5t22.5 -61.5q0 -35 -22.5 -59.5t-57 -24.5t-57 24.5t-22.5 59.5z" />
<glyph unicode="&#xfd;" d="M123 983h94l287 -618q100 -213 135 -277h8q0 2 115 277l256 618h88l-463 -1106q-49 -139 -146.5 -232.5t-240.5 -93.5q-72 0 -119 21l25 80q49 -16 96 -17q205 0 307 261l35 86zM506 1171l188 283h109l-219 -283h-78z" />
<glyph unicode="&#xfe;" d="M215 -444v1917h92v-445l-6 -192q182 172 371 172q203 0 311.5 -134.5t108.5 -367.5q0 -242 -135.5 -386.5t-325.5 -144.5q-160 0 -326 140l2 -201v-358h-92zM307 201q160 -145 319.5 -145.5t264 125.5t104.5 325q0 193 -83 307.5t-255 114.5q-170 0 -350 -180v-547z" />
<glyph unicode="&#xff;" d="M123 983h94l287 -618q100 -213 135 -277h8q0 2 115 277l256 618h88l-463 -1106q-49 -139 -146.5 -232.5t-240.5 -93.5q-72 0 -119 21l25 80q49 -16 96 -17q205 0 307 261l35 86zM356 1308.5q0 34.5 23.5 60.5t58.5 26t57.5 -24.5t22.5 -61.5q0 -35 -22.5 -59.5 t-57.5 -24.5t-58.5 24.5t-23.5 59zM721 1309q0 37 22.5 61.5t57.5 24.5q37 0 59.5 -24.5t22.5 -61.5t-22.5 -60.5t-59.5 -23.5q-35 0 -57.5 24.5t-22.5 59.5z" />
<glyph unicode="&#x100;" d="M92 0l475 1350h95l475 -1350h-101l-155 463h-535l-160 -463h-94zM375 543h479l-86 252q-94 272 -150 467h-8q-35 -125 -149 -467zM381 1503v74h467v-74h-467z" />
<glyph unicode="&#x101;" d="M188 246q0 164 176.5 250t577.5 120q-4 311 -293 312q-182 0 -373 -133l-40 67q76 53 191.5 99.5t231.5 46.5q188 0 280.5 -104.5t92.5 -274.5v-629h-76l-10 147h-4q-219 -172 -412 -172q-143 0 -242.5 70t-99.5 201zM281 250q0 -98 77.5 -147.5t188.5 -49.5 q182 0 395 178v316q-365 -33 -513 -103.5t-148 -193.5zM416 1241v74h465v-74h-465z" />
<glyph unicode="&#x102;" d="M92 0l475 1350h95l475 -1350h-101l-155 463h-535l-160 -463h-94zM375 543h479l-86 252q-94 272 -150 467h-8q-35 -125 -149 -467zM379 1669h67q10 -61 52.5 -104t116 -43t115.5 43t52 104h68q-10 -84 -69.5 -148.5t-166 -64.5t-166 64.5t-69.5 148.5z" />
<glyph unicode="&#x103;" d="M188 246q0 164 176.5 250t577.5 120q-4 311 -293 312q-182 0 -373 -133l-40 67q76 53 191.5 99.5t231.5 46.5q188 0 280.5 -104.5t92.5 -274.5v-629h-76l-10 147h-4q-219 -172 -412 -172q-143 0 -242.5 70t-99.5 201zM281 250q0 -98 77.5 -147.5t188.5 -49.5 q182 0 395 178v316q-365 -33 -513 -103.5t-148 -193.5zM403 1427h68q10 -76 55 -129t123 -53t123 53.5t55 128.5h68q-10 -96 -70.5 -171.5t-175 -75.5t-174 74.5t-72.5 172.5z" />
<glyph unicode="&#x104;" d="M92 0l475 1350h95l475 -1350q-66 -43 -109 -109.5t-43 -128.5q0 -51 31 -78.5t71 -27.5q50 0 91 29l32 -56q-57 -49 -133 -49t-125 43t-49 125q0 72 43 140.5t105 111.5h-15l-155 463h-535l-160 -463h-94zM375 543h479l-86 252q-94 272 -150 467h-8q-35 -125 -149 -467z " />
<glyph unicode="&#x105;" d="M188 246q0 164 176.5 250t577.5 120q-4 311 -293 312q-182 0 -373 -133l-40 67q76 53 191.5 99.5t231.5 46.5q188 0 280.5 -104.5t92.5 -274.5v-629q-78 -39 -127 -105.5t-49 -132.5q0 -51 29.5 -78.5t70.5 -27.5q51 0 88 29l33 -54q-55 -47 -133 -47q-74 0 -120 43 t-46 123q0 74 50.5 145.5t127.5 118.5l-10 133h-4q-219 -172 -412 -172q-143 0 -242.5 70t-99.5 201zM281 250q0 -98 77.5 -147.5t188.5 -49.5q182 0 395 178v316q-365 -33 -513 -103.5t-148 -193.5z" />
<glyph unicode="&#x106;" d="M147 677.5q0 319.5 159 508t421 188.5q209 0 350 -162l-57 -61q-121 137 -293 137q-223 0 -352 -165t-129 -445.5t129 -448.5t346 -168q190 0 338 166l55 -59q-166 -193 -399 -193q-252 0 -410 191.5t-158 511zM627 1452l190 217h117l-223 -217h-84z" />
<glyph unicode="&#x107;" d="M178 489.5q0 239.5 153.5 379t383.5 139.5q197 0 354 -150l-53 -61q-141 131 -299 131q-197 0 -320 -122t-123 -316.5t121 -314.5t320 -120q180 0 332 142l47 -64q-168 -158 -383 -158q-236 0 -384.5 137.5t-148.5 377zM592 1171l186 283h111l-219 -283h-78z" />
<glyph unicode="&#x108;" d="M147 677.5q0 319.5 159 508t421 188.5q209 0 350 -162l-57 -61q-121 137 -293 137q-223 0 -352 -165t-129 -445.5t129 -448.5t346 -168q190 0 338 166l55 -59q-166 -193 -399 -193q-252 0 -410 191.5t-158 511zM463 1452l196 217h86l197 -217h-82l-153 147h-9l-153 -147 h-82z" />
<glyph unicode="&#x109;" d="M178 489.5q0 239.5 153.5 379t383.5 139.5q197 0 354 -150l-53 -61q-141 131 -299 131q-197 0 -320 -122t-123 -316.5t121 -314.5t320 -120q180 0 332 142l47 -64q-168 -158 -383 -158q-236 0 -384.5 137.5t-148.5 377zM471 1171l195 283h79l195 -283h-78l-153 207h-9 l-151 -207h-78z" />
<glyph unicode="&#x10a;" d="M147 677.5q0 319.5 159 508t421 188.5q209 0 350 -162l-57 -61q-121 137 -293 137q-223 0 -352 -165t-129 -445.5t129 -448.5t346 -168q190 0 338 166l55 -59q-166 -193 -399 -193q-252 0 -410 191.5t-158 511zM621 1561q0 35 24.5 57t56.5 22q35 0 59.5 -22.5 t24.5 -56.5q0 -37 -24.5 -60.5t-59.5 -23.5q-33 0 -57 23.5t-24 60.5z" />
<glyph unicode="&#x10b;" d="M178 489.5q0 239.5 153.5 379t383.5 139.5q197 0 354 -150l-53 -61q-141 131 -299 131q-197 0 -320 -122t-123 -316.5t121 -314.5t320 -120q180 0 332 142l47 -64q-168 -158 -383 -158q-236 0 -384.5 137.5t-148.5 377zM608 1319q0 43 28 70.5t69 27.5q43 0 70.5 -27.5 t27.5 -70.5t-27.5 -70.5t-70.5 -27.5q-41 0 -69 27.5t-28 70.5z" />
<glyph unicode="&#x10c;" d="M147 677.5q0 319.5 159 508t421 188.5q209 0 350 -162l-57 -61q-121 137 -293 137q-223 0 -352 -165t-129 -445.5t129 -448.5t346 -168q190 0 338 166l55 -59q-166 -193 -399 -193q-252 0 -410 191.5t-158 511zM463 1669h82l153 -147h9l153 147h82l-197 -217h-86z" />
<glyph unicode="&#x10d;" d="M178 489.5q0 239.5 153.5 379t383.5 139.5q197 0 354 -150l-53 -61q-141 131 -299 131q-197 0 -320 -122t-123 -316.5t121 -314.5t320 -120q180 0 332 142l47 -64q-168 -158 -383 -158q-236 0 -384.5 137.5t-148.5 377zM471 1454h78l151 -207h9l153 207h78l-195 -283h-79 z" />
<glyph unicode="&#x10e;" d="M197 0v1350h309q303 0 456.5 -177.5t153.5 -492.5q0 -317 -153.5 -498.5t-454.5 -181.5h-311zM291 80h207q262 0 391 161.5t129 438.5q0 274 -129 432t-391 158h-207v-1190zM375 1669h82l153 -147h8l154 147h82l-197 -217h-86z" />
<glyph unicode="&#x10f;" d="M131 489q0 231 137.5 375t327.5 144q160 0 326 -140l-4 199v406h90v-1473h-78l-8 145h-7q-162 -170 -350 -170q-197 0 -315.5 135t-118.5 379zM227 489q0 -197 94.5 -315.5t256.5 -118.5q166 0 340 181v546q-158 145 -318 146q-156 0 -264.5 -127.5t-108.5 -311.5z M1100 1544h78v-102l-17 -320h-55z" />
<glyph unicode="&#x110;" d="M51 680v59l158 9v602h309q303 0 456.5 -177.5t153.5 -492.5q0 -317 -153.5 -498.5t-454.5 -181.5h-311v680h-158zM303 80h207q262 0 391 161.5t129 438.5q0 274 -129 432t-391 158h-207v-522h336v-68h-336v-600z" />
<glyph unicode="&#x111;" d="M137 469q0 221 136.5 359.5t326.5 138.5q162 0 328 -140l-6 199v164h-377v67h377v216h92v-216h151v-59l-151 -8v-1190h-78l-10 145h-4q-162 -170 -351 -170q-199 0 -316.5 129t-117.5 365zM233 469q0 -188 94.5 -301t256.5 -113q168 1 338 181v505q-154 145 -314 146 q-158 0 -266.5 -122t-108.5 -296z" />
<glyph unicode="&#x112;" d="M260 0v1350h799v-82h-705v-510h594v-82h-594v-594h725v-82h-819zM455 1503v74h467v-74h-467z" />
<glyph unicode="&#x113;" d="M158 489q0 231 147.5 375t343.5 144q203 0 322 -122t119 -333q0 -49 -5 -74h-833q4 -188 123 -307t309 -119q174 0 328 107l37 -70q-180 -115 -373 -115q-219 0 -368.5 140.5t-149.5 373.5zM252 549h749q0 184 -94 282.5t-256 98.5q-152 0 -266.5 -104.5t-132.5 -276.5z M414 1241v74h465v-74h-465z" />
<glyph unicode="&#x114;" d="M260 0v1350h799v-82h-705v-510h594v-82h-594v-594h725v-82h-819zM453 1669h67q10 -61 52 -104t116 -43t116 43t52 104h68q-10 -84 -69.5 -148.5t-166 -64.5t-166 64.5t-69.5 148.5z" />
<glyph unicode="&#x115;" d="M158 489q0 231 147.5 375t343.5 144q203 0 322 -122t119 -333q0 -49 -5 -74h-833q4 -188 123 -307t309 -119q174 0 328 107l37 -70q-180 -115 -373 -115q-219 0 -368.5 140.5t-149.5 373.5zM252 549h749q0 184 -94 282.5t-256 98.5q-152 0 -266.5 -104.5t-132.5 -276.5z M401 1427h68q10 -76 55 -129t123 -53t123 53.5t55 128.5h66q-10 -96 -69.5 -171.5t-174.5 -75.5t-175 75.5t-71 171.5z" />
<glyph unicode="&#x116;" d="M260 0v1350h799v-82h-705v-510h594v-82h-594v-594h725v-82h-819zM606 1561q0 35 23.5 57t58.5 22t58.5 -22.5t23.5 -56.5q0 -37 -23.5 -60.5t-58.5 -23.5t-58.5 23.5t-23.5 60.5z" />
<glyph unicode="&#x117;" d="M158 489q0 231 147.5 375t343.5 144q203 0 322 -122t119 -333q0 -49 -5 -74h-833q4 -188 123 -307t309 -119q174 0 328 107l37 -70q-180 -115 -373 -115q-219 0 -368.5 140.5t-149.5 373.5zM252 549h749q0 184 -94 282.5t-256 98.5q-152 0 -266.5 -104.5t-132.5 -276.5z M551 1319q0 45 27.5 71.5t68.5 26.5t68.5 -27.5t27.5 -70.5t-27.5 -70.5t-68.5 -27.5t-68.5 26.5t-27.5 71.5z" />
<glyph unicode="&#x118;" d="M260 0v1350h799v-82h-705v-510h594v-82h-594v-594h725v-82h-4q-74 -14 -134 -83t-60 -155q0 -51 30.5 -78.5t73.5 -27.5q47 0 88 29l33 -56q-57 -49 -133 -49t-125 43t-49 125q0 76 43 143.5t106 108.5h-688z" />
<glyph unicode="&#x119;" d="M158 489q0 231 147.5 375t343.5 144q203 0 322 -122t119 -333q0 -49 -5 -74h-833q4 -188 123 -307t309 -119q174 1 328 107l37 -70q-250 -180 -250 -328q0 -49 28.5 -77.5t71.5 -28.5q47 0 88 29l33 -54q-57 -47 -133 -47q-74 0 -120 43t-46 123q0 76 44 143.5t103 114.5 q-82 -33 -192 -33q-219 0 -368.5 140.5t-149.5 373.5zM252 549h749q0 184 -94 282.5t-256 98.5q-152 0 -266.5 -104.5t-132.5 -276.5z" />
<glyph unicode="&#x11a;" d="M260 0v1350h799v-82h-705v-510h594v-82h-594v-594h725v-82h-819zM449 1669h81l154 -147h8l154 147h82l-197 -217h-86z" />
<glyph unicode="&#x11b;" d="M158 489q0 231 147.5 375t343.5 144q203 0 322 -122t119 -333q0 -49 -5 -74h-833q4 -188 123 -307t309 -119q174 0 328 107l37 -70q-180 -115 -373 -115q-219 0 -368.5 140.5t-149.5 373.5zM252 549h749q0 184 -94 282.5t-256 98.5q-152 0 -266.5 -104.5t-132.5 -276.5z M412 1454h77l154 -207h8l154 207h76l-195 -283h-80z" />
<glyph unicode="&#x11c;" d="M121 678q0 319 159.5 507.5t421.5 188.5q209 0 359 -162l-55 -61q-123 137 -304 137q-223 0 -353 -165t-130 -445q0 -283 126 -450t345 -167q195 0 293 103v420h-311v80h403v-535q-139 -154 -391 -154q-254 0 -408.5 190.5t-154.5 512.5zM440 1452l197 217h86l197 -217 h-82l-154 147h-8l-154 -147h-82z" />
<glyph unicode="&#x11d;" d="M172 -188q0 129 166 231v8q-102 51 -102 158q0 104 118 186v8q-117 94 -116 254q0 150 107.5 250.5t258.5 100.5q76 0 135 -25h410v-76h-299q117 -113 117 -252q0 -150 -104.5 -246t-258.5 -96q-98 0 -186 45q-96 -59 -96 -137q0 -137 227 -137h244q188 0 273 -52 t85 -169q0 -133 -145.5 -234.5t-374.5 -101.5q-225 0 -342 76t-117 209zM258 -190q0 -92 94 -150.5t273 -58.5q193 0 312.5 76.5t119.5 175.5q0 80 -61.5 112.5t-194.5 32.5h-234q-92 0 -149 18q-160 -85 -160 -206zM330 657.5q0 -118.5 79.5 -195.5t194.5 -77t195 77 t80 195.5t-80 197.5t-195 79t-194.5 -79t-79.5 -197.5zM399 1171l193 283h82l194 -283h-77l-154 207h-8l-154 -207h-76z" />
<glyph unicode="&#x11e;" d="M121 678q0 319 159.5 507.5t421.5 188.5q209 0 359 -162l-55 -61q-123 137 -304 137q-223 0 -353 -165t-130 -445q0 -283 126 -450t345 -167q195 0 293 103v420h-311v80h403v-535q-139 -154 -391 -154q-254 0 -408.5 190.5t-154.5 512.5zM444 1669h66q10 -61 53 -104 t117 -43q72 0 115 43t53 104h67q-10 -84 -70.5 -148.5t-164.5 -64.5q-106 0 -165.5 64.5t-70.5 148.5z" />
<glyph unicode="&#x11f;" d="M172 -188q0 129 166 231v8q-102 51 -102 158q0 104 118 186v8q-117 94 -116 254q0 150 107.5 250.5t258.5 100.5q76 0 135 -25h410v-76h-299q117 -113 117 -252q0 -150 -104.5 -246t-258.5 -96q-98 0 -186 45q-96 -59 -96 -137q0 -137 227 -137h244q188 0 273 -52 t85 -169q0 -133 -145.5 -234.5t-374.5 -101.5q-225 0 -342 76t-117 209zM258 -190q0 -92 94 -150.5t273 -58.5q193 0 312.5 76.5t119.5 175.5q0 80 -61.5 112.5t-194.5 32.5h-234q-92 0 -149 18q-160 -85 -160 -206zM330 657.5q0 -118.5 79.5 -195.5t194.5 -77t195 77 t80 195.5t-80 197.5t-195 79t-194.5 -79t-79.5 -197.5zM387 1427h68q10 -76 55 -129t123 -53t123 53.5t55 128.5h68q-10 -96 -70.5 -171.5t-175.5 -75.5t-175.5 75.5t-70.5 171.5z" />
<glyph unicode="&#x120;" d="M121 678q0 319 159.5 507.5t421.5 188.5q209 0 359 -162l-55 -61q-123 137 -304 137q-223 0 -353 -165t-130 -445q0 -283 126 -450t345 -167q195 0 293 103v420h-311v80h403v-535q-139 -154 -391 -154q-254 0 -408.5 190.5t-154.5 512.5zM598 1561q0 35 23.5 57t58.5 22 t58.5 -22.5t23.5 -56.5q0 -37 -23.5 -60.5t-58.5 -23.5t-58.5 23.5t-23.5 60.5z" />
<glyph unicode="&#x121;" d="M172 -188q0 129 166 231v8q-102 51 -102 158q0 104 118 186v8q-117 94 -116 254q0 150 107.5 250.5t258.5 100.5q76 0 135 -25h410v-76h-299q117 -113 117 -252q0 -150 -104.5 -246t-258.5 -96q-98 0 -186 45q-96 -59 -96 -137q0 -137 227 -137h244q188 0 273 -52 t85 -169q0 -133 -145.5 -234.5t-374.5 -101.5q-225 0 -342 76t-117 209zM258 -190q0 -92 94 -150.5t273 -58.5q193 0 312.5 76.5t119.5 175.5q0 80 -61.5 112.5t-194.5 32.5h-234q-92 0 -149 18q-160 -85 -160 -206zM330 657.5q0 -118.5 79.5 -195.5t194.5 -77t195 77 t80 195.5t-80 197.5t-195 79t-194.5 -79t-79.5 -197.5zM537 1319q0 43 27.5 70.5t68.5 27.5q43 0 69.5 -26.5t26.5 -71.5t-26.5 -71.5t-69.5 -26.5q-41 0 -68.5 27.5t-27.5 70.5z" />
<glyph unicode="&#x122;" d="M121 678q0 319 159.5 507.5t421.5 188.5q209 0 359 -162l-55 -61q-123 137 -304 137q-223 0 -353 -165t-130 -445q0 -283 126 -450t345 -167q195 0 293 103v420h-311v80h403v-535q-139 -154 -391 -154q-254 0 -408.5 190.5t-154.5 512.5zM537 -367q188 27 188 103 t-115 100l25 60q172 -35 172 -150q0 -141 -258 -174z" />
<glyph unicode="&#x123;" d="M172 -188q0 129 166 231v8q-102 51 -102 158q0 104 118 186v8q-117 94 -116 254q0 150 107.5 250.5t258.5 100.5q76 0 135 -25h410v-76h-299q117 -113 117 -252q0 -150 -104.5 -246t-258.5 -96q-98 0 -186 45q-96 -59 -96 -137q0 -137 227 -137h244q188 0 273 -52 t85 -169q0 -133 -145.5 -234.5t-374.5 -101.5q-225 0 -342 76t-117 209zM258 -190q0 -92 94 -150.5t273 -58.5q193 0 312.5 76.5t119.5 175.5q0 80 -61.5 112.5t-194.5 32.5h-234q-92 0 -149 18q-160 -85 -160 -206zM330 657.5q0 -118.5 79.5 -195.5t194.5 -77t195 77 t80 195.5t-80 197.5t-195 79t-194.5 -79t-79.5 -197.5zM512 1253q0 74 72.5 117t183.5 57l14 -61q-190 -29 -190 -102q0 -76 115 -101l-25 -59q-86 16 -128 52t-42 97z" />
<glyph unicode="&#x124;" d="M182 0v1350h94v-592h676v592h95v-1350h-95v676h-676v-676h-94zM375 1452l196 217h86l197 -217h-82l-154 147h-8l-153 -147h-82z" />
<glyph unicode="&#x125;" d="M53 1532l197 217h86l196 -217h-81l-154 149h-8l-154 -149h-82zM215 0v1473h92v-426l-6 -259q104 109 196.5 164.5t200.5 55.5q354 0 355 -396v-612h-92v600q0 166 -67 246t-210 80q-100 0 -182 -51.5t-195 -169.5v-705h-92z" />
<glyph unicode="&#x126;" d="M29 1014v59l153 8v269h94v-269h676v269h95v-269h153v-67h-153v-1014h-95v676h-676v-676h-94v1014h-153zM276 758h676v256h-676v-256z" />
<glyph unicode="&#x127;" d="M59 1190v59l156 8v216h92v-216h469v-67h-469v-184l-6 -258q104 109 196.5 164t200.5 55q354 0 355 -396v-571h-92v559q0 166 -67 246t-210 80q-100 0 -182 -51.5t-195 -169.5v-664h-92v1190h-156z" />
<glyph unicode="&#x128;" d="M219 0v82h348v1186h-348v82h791v-82h-348v-1186h348v-82h-791zM348 1466q4 76 42 132.5t104 56.5q57 0 130.5 -57.5t112.5 -57.5q33 0 55.5 31t28.5 84h60q-6 -76 -44.5 -132.5t-101.5 -56.5q-57 0 -131 58.5t-112 58.5q-33 0 -55.5 -31.5t-28.5 -85.5h-60z" />
<glyph unicode="&#x129;" d="M199 905v78h583v-983h-90v905h-493zM461 1190q6 78 41 131t102 53q53 0 124 -57t101 -57q63 0 80 114h62q-6 -76 -41 -130t-105 -54q-51 0 -120.5 57.5t-102.5 57.5q-63 0 -80 -115h-61z" />
<glyph unicode="&#x12a;" d="M219 0v82h348v1186h-348v82h791v-82h-348v-1186h348v-82h-791zM381 1503v74h467v-74h-467z" />
<glyph unicode="&#x12b;" d="M199 905v78h583v-983h-90v905h-493zM483 1241v74h465v-74h-465z" />
<glyph unicode="&#x12c;" d="M219 0v82h348v1186h-348v82h791v-82h-348v-1186h348v-82h-791zM379 1669h67q10 -61 52.5 -104t116 -43t115.5 43t52 104h68q-10 -84 -69.5 -148.5t-166 -64.5t-166 64.5t-69.5 148.5z" />
<glyph unicode="&#x12d;" d="M199 905v78h583v-983h-90v905h-493zM471 1427h66q10 -76 55 -129t123 -53t123 53.5t55 128.5h68q-10 -96 -71 -171.5t-175.5 -75.5t-174 75.5t-69.5 171.5z" />
<glyph unicode="&#x12e;" d="M219 0v82h348v1186h-348v82h791v-82h-348v-1186h348v-82h-348q-123 -133 -123 -238q0 -51 30.5 -78.5t73.5 -27.5q47 0 88 29l33 -56q-57 -49 -133 -49t-124 43t-48 125q0 123 125 252h-365z" />
<glyph unicode="&#x12f;" d="M199 905v78h583v-983q-125 -129 -125 -238q0 -49 29 -77.5t72 -28.5q47 0 88 29l33 -54q-57 -47 -134 -47q-74 0 -120.5 43t-46.5 123q0 113 129 250h-15v905h-493zM618 1319q0 43 28 70.5t69 27.5q43 0 69.5 -26.5t26.5 -71.5t-26.5 -71.5t-69.5 -26.5q-41 0 -69 27.5 t-28 70.5z" />
<glyph unicode="&#x130;" d="M219 0v82h348v1186h-348v82h791v-82h-348v-1186h348v-82h-791zM532 1561q0 35 24 57t58.5 22t58 -22.5t23.5 -56.5q0 -37 -23.5 -60.5t-58 -23.5t-58.5 23.5t-24 60.5z" />
<glyph unicode="&#x131;" d="M199 905v78h583v-983h-90v905h-493z" />
<glyph unicode="&#x134;" d="M190 201l76 53q115 -195 303 -195q166 0 243 90.5t77 276.5v846h-588v80h682v-934q0 -442 -416 -443q-119 0 -219.5 57.5t-157.5 168.5zM416 1452l196 217h86l197 -217h-82l-154 147h-8l-153 -147h-82z" />
<glyph unicode="&#x135;" d="M129 -403l37 71q119 -59 237 -59q162 0 225.5 77.5t63.5 225.5v993h-493v78h583v-1059q0 -193 -88 -293t-297 -100q-137 0 -268 66zM481 1171l195 283h80l194 -283h-78l-153 207h-8l-154 -207h-76z" />
<glyph unicode="&#x136;" d="M236 0v1350h96v-750h4l665 750h111l-436 -500l493 -850h-108l-451 778l-278 -313v-465h-96zM557 -367q188 27 188 103t-114 100l24 60q172 -35 172 -150q0 -141 -258 -174z" />
<glyph unicode="&#x137;" d="M252 0v1473h92v-1086l4 4l635 592h113l-404 -381l469 -602h-104l-428 545l-285 -271v-274h-92zM549 -367q188 27 188 103t-114 100l24 60q86 -16 128 -52.5t42 -97.5q0 -74 -72.5 -117t-183.5 -57z" />
<glyph unicode="&#x138;" d="M252 0v983h92v-596l4 4l635 592h113l-404 -381l469 -602h-104l-428 545l-285 -271v-274h-92z" />
<glyph unicode="&#x139;" d="M307 0v1350h90v-1268h707v-82h-797zM307 1452l189 217h118l-223 -217h-84z" />
<glyph unicode="&#x13a;" d="M190 1395v78h455v-1188q0 -229 213 -230q90 0 205 54l29 -72q-150 -61 -246 -62q-291 0 -291 322v1098h-365zM504 1556l190 218h117l-223 -218h-84z" />
<glyph unicode="&#x13b;" d="M307 0v1350h90v-1268h707v-82h-797zM575 -367q188 27 188.5 103t-114.5 100l25 60q172 -35 172 -150q0 -141 -258 -174z" />
<glyph unicode="&#x13c;" d="M190 1395v78h455v-1188q0 -229 213 -230q90 0 205 54l29 -72q-150 -61 -246 -62q-291 0 -291 322v1098h-365zM618 -367q190 29 191 103q0 76 -117 100l27 60q170 -35 170 -150q0 -74 -73 -117t-183 -57z" />
<glyph unicode="&#x13d;" d="M307 0v1350h90v-1268h707v-82h-797zM797 1481h77v-103l-18 -319h-55z" />
<glyph unicode="&#x13e;" d="M190 1395v78h455v-1188q0 -229 213 -230q90 0 205 54l29 -72q-150 -61 -246 -62q-291 0 -291 322v1098h-365zM803 1544h78v-102l-17 -320h-55z" />
<glyph unicode="&#x13f;" d="M307 0v1350h90v-1268h707v-82h-797zM758 702q0 45 27.5 72t68.5 27t68.5 -26.5t27.5 -72.5q0 -43 -27.5 -69.5t-68.5 -26.5t-68.5 26.5t-27.5 69.5z" />
<glyph unicode="&#x140;" d="M123 1395v78h457v-1188q0 -229 213 -230q90 0 202 54l31 -72q-154 -61 -248 -62q-289 0 -289 322v1098h-366zM758 702q0 45 27.5 72t68.5 27q43 0 69.5 -26.5t26.5 -72.5q0 -43 -26.5 -70.5t-69.5 -27.5q-41 0 -68.5 27.5t-27.5 70.5z" />
<glyph unicode="&#x141;" d="M133 410v82l174 92v766h90v-723l486 252v-82l-486 -252v-463h707v-82h-797v502z" />
<glyph unicode="&#x142;" d="M190 1395v78h455v-588l350 198v-88l-350 -198v-512q0 -229 213 -230q90 1 205 54l29 -72q-150 -61 -246 -62q-291 0 -291 322v451l-266 -156v88l266 154v561h-365z" />
<glyph unicode="&#x143;" d="M188 0v1350h99l526 -955l145 -266h5q-2 43 -5.5 123t-5.5 145.5t-2 122.5v830h90v-1350h-98l-526 954l-146 267h-4q2 -45 5 -122t5.5 -141.5t2.5 -121.5v-836h-91zM551 1452l188 217h119l-225 -217h-82z" />
<glyph unicode="&#x144;" d="M215 0v983h78l10 -188h8q96 102 187.5 157.5t199.5 55.5q354 0 355 -396v-612h-92v600q0 166 -67 246t-210 80q-100 0 -182 -51.5t-195 -169.5v-705h-92zM541 1171l186 283h111l-222 -283h-75z" />
<glyph unicode="&#x145;" d="M188 0v1350h99l526 -955l145 -266h5q-2 43 -5.5 123t-5.5 145.5t-2 122.5v830h90v-1350h-98l-526 954l-146 267h-4q2 -45 5 -122t5.5 -141.5t2.5 -121.5v-836h-91zM463 -367q190 29 190 103q0 76 -116 100l26 60q170 -35 170 -150q0 -74 -72.5 -117t-183.5 -57z" />
<glyph unicode="&#x146;" d="M215 0v983h78l10 -188h8q96 102 187.5 157.5t199.5 55.5q354 0 355 -396v-612h-92v600q0 166 -67 246t-210 80q-100 0 -182 -51.5t-195 -169.5v-705h-92zM498 -367q188 27 188 103t-115 100l25 60q86 -16 128 -52.5t42 -97.5q0 -74 -72.5 -117t-183.5 -57z" />
<glyph unicode="&#x147;" d="M188 0v1350h99l526 -955l145 -266h5q-2 43 -5.5 123t-5.5 145.5t-2 122.5v830h90v-1350h-98l-526 954l-146 267h-4q2 -45 5 -122t5.5 -141.5t2.5 -121.5v-836h-91zM387 1669h82l154 -147h8l153 147h82l-196 -217h-86z" />
<glyph unicode="&#x148;" d="M215 0v983h78l10 -188h8q96 102 187.5 157.5t199.5 55.5q354 0 355 -396v-612h-92v600q0 166 -67 246t-210 80q-100 0 -182 -51.5t-195 -169.5v-705h-92zM420 1454h76l153 -207h8l154 207h78l-195 -283h-80z" />
<glyph unicode="&#x149;" d="M-14 850q188 125 202 350q-35 -20 -61 -20q-53 0 -87 34.5t-34 88.5q0 57 35 94t90 37q63 0 107.5 -55.5t44.5 -145.5q0 -143 -69.5 -262.5t-186.5 -182.5zM377 0v983h78l10 -170h8q186 195 365 195q330 0 329 -377v-631h-90v618q0 158 -60.5 233t-193.5 75 q-92 0 -168.5 -47.5t-185.5 -155.5v-723h-92z" />
<glyph unicode="&#x14c;" d="M111 680q0 315 140 504.5t363.5 189.5t363.5 -189.5t140 -504.5q0 -317 -140 -511t-363.5 -194t-363.5 193.5t-140 511.5zM209 680q0 -281 111.5 -450t294 -169t294 169t111.5 450q0 279 -111.5 443.5t-294 164.5t-294 -165t-111.5 -443zM381 1503v74h467v-74h-467z" />
<glyph unicode="&#x14d;" d="M137 489q0 240 137.5 379.5t340 139.5t340 -139.5t137.5 -379.5q0 -236 -138.5 -375t-339 -139t-339 139t-138.5 375zM233 489q0 -193 108 -313.5t273.5 -120.5t273 121t107.5 313q0 195 -107.5 317t-273 122t-273.5 -122t-108 -317zM383 1241v74h463v-74h-463z" />
<glyph unicode="&#x14e;" d="M111 680q0 315 140 504.5t363.5 189.5t363.5 -189.5t140 -504.5q0 -317 -140 -511t-363.5 -194t-363.5 193.5t-140 511.5zM209 680q0 -281 111.5 -450t294 -169t294 169t111.5 450q0 279 -111.5 443.5t-294 164.5t-294 -165t-111.5 -443zM379 1669h67q10 -61 52.5 -104 t116 -43t115.5 43t52 104h68q-10 -84 -69.5 -148.5t-166 -64.5t-166 64.5t-69.5 148.5z" />
<glyph unicode="&#x14f;" d="M137 489q0 240 137.5 379.5t340 139.5t340 -139.5t137.5 -379.5q0 -236 -138.5 -375t-339 -139t-339 139t-138.5 375zM233 489q0 -193 108 -313.5t273.5 -120.5t273 121t107.5 313q0 195 -107.5 317t-273 122t-273.5 -122t-108 -317zM369 1427h67q10 -76 55.5 -129 t123 -53t122.5 53.5t56 128.5h67q-10 -96 -70.5 -171.5t-175 -75.5t-175 75.5t-70.5 171.5z" />
<glyph unicode="&#x150;" d="M111 680q0 315 140 504.5t363.5 189.5t363.5 -189.5t140 -504.5q0 -317 -140 -511t-363.5 -194t-363.5 193.5t-140 511.5zM209 680q0 -281 111.5 -450t294 -169t294 169t111.5 450q0 279 -111.5 443.5t-294 164.5t-294 -165t-111.5 -443zM426 1452l137 217h101l-164 -217 h-74zM723 1452l137 217h101l-164 -217h-74z" />
<glyph unicode="&#x151;" d="M137 489q0 240 137.5 379.5t340 139.5t340 -139.5t137.5 -379.5q0 -236 -138.5 -375t-339 -139t-339 139t-138.5 375zM233 489q0 -193 108 -313.5t273.5 -120.5t273 121t107.5 313q0 195 -107.5 317t-273 122t-273.5 -122t-108 -317zM446 1167l148 283h92l-170 -283h-70z M719 1167l147 283h95l-173 -283h-69z" />
<glyph unicode="&#x152;" d="M84 680q0 313 138 492.5t394 179.5h570v-80h-441v-514h336v-82h-336v-594h461v-82h-590q-256 0 -394 183.5t-138 496.5zM180 680q0 -276 106.5 -438t319.5 -162h47v1192h-47q-213 0 -319.5 -159t-106.5 -433z" />
<glyph unicode="&#x153;" d="M20 491.5q0 239.5 98.5 378t252.5 138.5q100 0 177 -72t118 -205q92 276 288 277q131 0 202 -124t71 -311q0 -53 -4 -94h-514q2 -193 69.5 -309.5t198.5 -116.5q82 0 186 70l35 -64q-117 -84 -225 -84q-219 0 -307 271q-88 -270 -293 -271q-156 0 -254.5 138.5t-98.5 378 zM111 492q0 -199 68.5 -320t191.5 -121q115 0 185.5 123t70.5 317.5t-71 316.5t-185 122q-123 0 -191.5 -120.5t-68.5 -317.5zM707 549h438q0 168 -47 274.5t-150 106.5q-109 0 -169 -101.5t-72 -279.5z" />
<glyph unicode="&#x154;" d="M240 0v1350h385q444 0 444 -357q0 -158 -92 -251t-254 -115l373 -627h-111l-364 621h-287v-621h-94zM334 698h266q373 0 373 295q0 147 -93.5 212t-279.5 65h-266v-572zM549 1452l190 217h117l-223 -217h-84z" />
<glyph unicode="&#x155;" d="M334 0v983h78l10 -242h4q182 266 463 267q117 0 196 -41l-22 -80q-102 35 -189 35q-262 0 -448 -308v-614h-92zM590 1171l186 283h111l-221 -283h-76z" />
<glyph unicode="&#x156;" d="M240 0v1350h385q444 0 444 -357q0 -158 -92 -250.5t-254 -115.5l373 -627h-111l-364 621h-287v-621h-94zM334 698h266q373 0 373 295q0 147 -93.5 212t-279.5 65h-266v-572zM504 -367q190 29 190 103q1 75 -116 100l26 60q170 -35 170 -150q0 -74 -72.5 -117t-183.5 -57z " />
<glyph unicode="&#x157;" d="M256 -367q188 27 188 103t-114 100l24 60q86 -16 128 -52.5t42 -97.5q0 -74 -72.5 -117t-183.5 -57zM334 0v983h78l10 -242h4q182 266 463 267q117 0 196 -41l-22 -80q-102 35 -189 35q-262 0 -448 -308v-614h-92z" />
<glyph unicode="&#x158;" d="M240 0v1350h385q444 0 444 -357q0 -158 -92 -251t-254 -115l373 -627h-111l-364 621h-287v-621h-94zM334 698h266q373 0 373 295q0 147 -93.5 212t-279.5 65h-266v-572zM387 1669h82l154 -147h8l153 147h82l-196 -217h-86z" />
<glyph unicode="&#x159;" d="M334 0v983h78l10 -242h4q182 266 463 267q117 0 196 -41l-22 -80q-102 35 -189 35q-262 0 -448 -308v-614h-92zM469 1454h76l153 -207h9l153 207h78l-195 -283h-79z" />
<glyph unicode="&#x15a;" d="M156 178l61 66q168 -182 416 -183q164 0 260 75t96 196q0 113 -64.5 170t-199.5 112l-205 93q-57 25 -100 48t-91 62t-75 96.5t-27 128.5q0 145 117 238.5t295 93.5q236 0 397 -162l-55 -63q-139 139 -342 139q-143 0 -230 -65.5t-87 -175.5q0 -55 21.5 -98.5t68.5 -75 t76.5 -47t86.5 -40.5l203 -90q147 -61 226 -139t79 -219q0 -158 -124.5 -260.5t-325.5 -102.5q-289 0 -477 203zM565 1452l189 217h118l-223 -217h-84z" />
<glyph unicode="&#x15b;" d="M170 131l51 66q174 -143 436 -144q145 0 226.5 56.5t81.5 138.5q0 74 -74 125t-279 100q-387 92 -387 272q0 115 98.5 189t286.5 74q96 0 200.5 -34t176.5 -87l-49 -66q-143 109 -330 109q-154 0 -221.5 -50.5t-67.5 -127.5q0 -125 332 -205q227 -55 317.5 -122 t90.5 -173q0 -117 -109.5 -197t-296.5 -80q-266 0 -483 156zM496 1171l188 283h109l-220 -283h-77z" />
<glyph unicode="&#x15c;" d="M156 178l61 66q168 -182 416 -183q164 0 260 75t96 196q0 113 -64.5 170t-199.5 112l-205 93q-57 25 -100 48t-91 62t-75 96.5t-27 128.5q0 145 117 238.5t295 93.5q236 0 397 -162l-55 -63q-139 139 -342 139q-143 0 -230 -65.5t-87 -175.5q0 -55 21.5 -98.5t68.5 -75 t76.5 -47t86.5 -40.5l203 -90q147 -61 226 -139t79 -219q0 -158 -124.5 -260.5t-325.5 -102.5q-289 0 -477 203zM401 1452l197 217h86l197 -217h-82l-154 147h-8l-154 -147h-82z" />
<glyph unicode="&#x15d;" d="M170 131l51 66q174 -143 436 -144q145 0 226.5 56.5t81.5 138.5q0 74 -74 125t-279 100q-387 92 -387 272q0 115 98.5 189t286.5 74q96 0 200.5 -34t176.5 -87l-49 -66q-143 109 -330 109q-154 0 -221.5 -50.5t-67.5 -127.5q0 -125 332 -205q227 -55 317.5 -122 t90.5 -173q0 -117 -109.5 -197t-296.5 -80q-266 0 -483 156zM375 1171l194 283h82l195 -283h-78l-154 207h-8l-153 -207h-78z" />
<glyph unicode="&#x15e;" d="M156 178l61 66q168 -182 416 -183q164 0 260 75t96 196q0 113 -64.5 170t-199.5 112l-205 93q-57 25 -100 48t-91 62t-75 96.5t-27 128.5q0 145 117 238.5t295 93.5q236 0 397 -162l-55 -63q-139 139 -342 139q-143 0 -230 -65.5t-87 -175.5q0 -55 21.5 -98.5t68.5 -75 t76.5 -47t86.5 -40.5l203 -90q147 -61 226 -139t79 -219q0 -147 -110.5 -247.5t-294.5 -113.5l-45 -88q123 -43 123 -141q0 -141 -258 -174l-13 61q188 27 189 105q0 74 -135 108l67 127q-270 12 -450 203z" />
<glyph unicode="&#x15f;" d="M170 131l51 66q174 -143 436 -144q145 0 226.5 56.5t81.5 138.5q0 74 -74 125t-279 100q-387 92 -387 272q0 115 98.5 189t286.5 74q96 0 200.5 -34t176.5 -87l-49 -66q-143 109 -330 109q-154 0 -221.5 -50.5t-67.5 -127.5q0 -125 332 -205q227 -55 317.5 -122 t90.5 -173q0 -111 -100.5 -189.5t-272.5 -87.5l-45 -86q123 -41 123 -141q0 -74 -73 -117t-183 -57l-14 61q190 29 190 105q0 74 -137 108l67 127q-246 14 -444 156z" />
<glyph unicode="&#x160;" d="M156 178l61 66q168 -182 416 -183q164 0 260 75t96 196q0 113 -64.5 170t-199.5 112l-205 93q-57 25 -100 48t-91 62t-75 96.5t-27 128.5q0 145 117 238.5t295 93.5q236 0 397 -162l-55 -63q-139 139 -342 139q-143 0 -230 -65.5t-87 -175.5q0 -55 21.5 -98.5t68.5 -75 t76.5 -47t86.5 -40.5l203 -90q147 -61 226 -139t79 -219q0 -158 -124.5 -260.5t-325.5 -102.5q-289 0 -477 203zM401 1669h82l154 -147h8l154 147h82l-197 -217h-86z" />
<glyph unicode="&#x161;" d="M170 131l51 66q174 -143 436 -144q145 0 226.5 56.5t81.5 138.5q0 74 -74 125t-279 100q-387 92 -387 272q0 115 98.5 189t286.5 74q96 0 200.5 -34t176.5 -87l-49 -66q-143 109 -330 109q-154 0 -221.5 -50.5t-67.5 -127.5q0 -125 332 -205q227 -55 317.5 -122 t90.5 -173q0 -117 -109.5 -197t-296.5 -80q-266 0 -483 156zM375 1454h78l153 -207h8l154 207h78l-195 -283h-82z" />
<glyph unicode="&#x162;" d="M98 1268v82h1032v-82h-468v-1268h-9l-57 -111q123 -43 123 -141q0 -141 -258 -174l-12 61q188 27 188 105q0 74 -135 108l80 152h-15v1268h-469z" />
<glyph unicode="&#x163;" d="M166 905v70l297 8l12 285h76v-285h522v-78h-522v-545q0 -154 59.5 -229.5t212.5 -75.5q143 0 262 51l25 -69q-147 -62 -297 -62l-45 -86q123 -41 123 -141q0 -74 -73 -117t-183 -57l-14 61q190 29 190 105q0 74 -137 108l69 132q-154 18 -218 117.5t-64 271.5v536h-295z " />
<glyph unicode="&#x164;" d="M98 1268v82h1032v-82h-468v-1268h-95v1268h-469zM373 1669h82l153 -147h8l154 147h82l-197 -217h-86z" />
<glyph unicode="&#x165;" d="M166 905v70l297 8l12 285h76v-285h522v-78h-522v-545q0 -154 59.5 -229.5t212.5 -75.5q143 0 262 51l25 -69q-147 -61 -299 -62q-190 0 -270 102t-80 292v536h-295zM811 1544h78v-102l-17 -320h-55z" />
<glyph unicode="&#x168;" d="M182 506v844h94v-834q0 -244 93.5 -349.5t244.5 -105.5q154 0 249 105.5t95 349.5v834h89v-844q0 -285 -120 -408t-313 -123q-190 0 -311 123t-121 408zM348 1466q4 76 42 132.5t104 56.5q57 0 130.5 -57.5t112.5 -57.5q33 0 55.5 31t28.5 84h60q-6 -76 -44.5 -132.5 t-101.5 -56.5q-57 0 -131 58.5t-112 58.5q-33 0 -55.5 -31.5t-28.5 -85.5h-60z" />
<glyph unicode="&#x169;" d="M178 371v612h90v-600q0 -166 66.5 -246t210.5 -80q102 0 187 52.5t190 171.5v702h90v-983h-76l-10 190h-8q-184 -215 -388 -215q-180 0 -266 97.5t-86 298.5zM348 1190q6 78 40 131t104 53q53 0 123.5 -57t101.5 -57q66 0 78 114h63q-8 -78 -42 -131t-103 -53 q-53 0 -122 57.5t-102 57.5q-63 0 -79 -115h-62z" />
<glyph unicode="&#x16a;" d="M182 506v844h94v-834q0 -244 93.5 -349.5t244.5 -105.5q154 0 249 105.5t95 349.5v834h89v-844q0 -285 -120 -408t-313 -123q-190 0 -311 123t-121 408zM381 1503v74h467v-74h-467z" />
<glyph unicode="&#x16b;" d="M178 371v612h90v-600q0 -166 66.5 -246t210.5 -80q102 0 187 52.5t190 171.5v702h90v-983h-76l-10 190h-8q-184 -215 -388 -215q-180 0 -266 97.5t-86 298.5zM371 1241v74h465v-74h-465z" />
<glyph unicode="&#x16c;" d="M182 506v844h94v-834q0 -244 93.5 -349.5t244.5 -105.5q154 0 249 105.5t95 349.5v834h89v-844q0 -285 -120 -408t-313 -123q-190 0 -311 123t-121 408zM379 1669h67q10 -61 52.5 -104t116 -43t115.5 43t52 104h68q-10 -84 -69.5 -148.5t-166 -64.5t-166 64.5 t-69.5 148.5z" />
<glyph unicode="&#x16d;" d="M178 371v612h90v-600q0 -166 66.5 -246t210.5 -80q102 0 187 52.5t190 171.5v702h90v-983h-76l-10 190h-8q-184 -215 -388 -215q-180 0 -266 97.5t-86 298.5zM356 1427h68q10 -76 55 -129t123 -53t123 53.5t55 128.5h68q-12 -98 -71.5 -172.5t-174.5 -74.5t-175 75.5 t-71 171.5z" />
<glyph unicode="&#x16e;" d="M182 506v844h94v-834q0 -244 93.5 -349.5t244.5 -105.5q154 0 249 105.5t95 349.5v834h89v-844q0 -285 -120 -408t-313 -123q-190 0 -311 123t-121 408zM446 1602q0 74 47.5 120.5t120.5 46.5q70 0 119 -47t49 -120q0 -76 -48 -122t-120 -46q-74 0 -121 46t-47 122z M508 1602q0 -55 29.5 -85t76.5 -30q45 0 75 30.5t30 84.5q0 51 -31 82.5t-74 31.5q-45 0 -75.5 -30.5t-30.5 -83.5z" />
<glyph unicode="&#x16f;" d="M178 371v612h90v-600q0 -166 66.5 -246t210.5 -80q102 0 187 52.5t190 171.5v702h90v-983h-76l-10 190h-8q-184 -215 -388 -215q-180 0 -266 97.5t-86 298.5zM434 1280q0 80 47 129t121 49t121 -49t47 -129q0 -78 -47 -127t-121 -49t-121 49t-47 127zM496 1280 q0 -55 30.5 -89t75.5 -34t77 35t32 88q0 55 -32 90t-77 35t-75.5 -35t-30.5 -90z" />
<glyph unicode="&#x170;" d="M182 506v844h94v-834q0 -244 93.5 -349.5t244.5 -105.5q154 0 249 105.5t95 349.5v834h89v-844q0 -285 -120 -408t-313 -123q-190 0 -311 123t-121 408zM426 1452l137 217h101l-164 -217h-74zM723 1452l137 217h101l-164 -217h-74z" />
<glyph unicode="&#x171;" d="M178 371v612h90v-600q0 -166 66.5 -246t210.5 -80q102 0 187 52.5t190 171.5v702h90v-983h-76l-10 190h-8q-184 -215 -388 -215q-180 0 -266 97.5t-86 298.5zM434 1167l148 283h94l-172 -283h-70zM707 1167l147 283h94l-172 -283h-69z" />
<glyph unicode="&#x172;" d="M182 506v844h94v-834q0 -455 336 -455q154 0 250 106.5t96 348.5v834h89v-844q0 -387 -254 -500q-96 -43 -154.5 -111.5t-58.5 -132.5q0 -51 30.5 -78.5t73.5 -27.5q47 0 88 29l33 -56q-57 -49 -133 -49t-125 43t-49 125q0 18 4 37.5t8 34t15.5 32t16.5 27.5t21.5 27.5 t21.5 24t24.5 24.5t23.5 22q-227 -4 -339 129.5t-112 399.5z" />
<glyph unicode="&#x173;" d="M178 371v612h90v-600q0 -166 66.5 -246t210.5 -80q102 0 187 52.5t190 171.5v702h90v-983q-176 -109 -176 -238q0 -49 29.5 -77.5t70.5 -28.5q51 0 88 29l33 -54q-55 -47 -133 -47q-74 0 -120 43t-46 123q0 133 178 264l-10 176h-8q-184 -215 -388 -215q-180 0 -266 97.5 t-86 298.5z" />
<glyph unicode="&#x174;" d="M29 1352h88l145 -924q6 -53 21.5 -160.5t21.5 -165.5h4q92 309 97 326l167 571h86l172 -571l93 -326h8q6 49 13 103.5t16.5 120t13.5 102.5l139 924h86l-217 -1352h-115l-192 647q-10 41 -28.5 120t-29.5 116h-6q-53 -203 -61 -236l-186 -647h-113zM375 1452l196 217h86 l197 -217h-82l-154 147h-8l-153 -147h-82z" />
<glyph unicode="&#x175;" d="M23 983h96l157 -637q41 -166 60 -262h8l66 262l157 621h101l157 -621l66 -262h8q6 29 27.5 120t34.5 142l155 637h90l-250 -983h-116l-156 602q-8 31 -29.5 128t-36.5 153h-8q-51 -231 -65 -285l-152 -598h-117zM379 1171l194 283h82l195 -283h-78l-154 207h-8l-153 -207 h-78z" />
<glyph unicode="&#x176;" d="M104 1350h97l239 -447q35 -57 92.5 -165.5t81.5 -151.5h9q25 43 176 319l233 445h92l-462 -854v-496h-95v496zM375 1452l196 217h86l197 -217h-82l-154 147h-8l-153 -147h-82z" />
<glyph unicode="&#x177;" d="M123 983h94l287 -618q100 -213 135 -277h8q0 2 115 277l256 618h88l-463 -1106q-49 -139 -146.5 -232.5t-240.5 -93.5q-72 0 -119 21l25 80q49 -16 96 -17q205 0 307 261l35 86zM385 1171l195 283h79l195 -283h-76l-153 207h-9l-153 -207h-78z" />
<glyph unicode="&#x178;" d="M104 1350h97l239 -447q35 -57 92.5 -165.5t81.5 -151.5h9q25 43 176 319l233 445h92l-462 -854v-496h-95v496zM379 1559q0 35 20.5 55t53 20t54 -20.5t21.5 -54.5q0 -33 -21.5 -53.5t-54 -20.5t-53 20.5t-20.5 53.5zM700 1559q0 35 21.5 55t54.5 20t53.5 -20.5 t20.5 -54.5q0 -33 -20.5 -53.5t-53.5 -20.5t-54.5 20.5t-21.5 53.5z" />
<glyph unicode="&#x179;" d="M143 0v57l826 1215h-756v80h868v-58l-825 -1212h840v-82h-953zM571 1452l189 217h119l-226 -217h-82z" />
<glyph unicode="&#x17a;" d="M147 0v49l771 856h-689v78h826v-47l-770 -856h792v-80h-930zM539 1171l188 283h109l-220 -283h-77z" />
<glyph unicode="&#x17b;" d="M143 0v57l826 1215h-756v80h868v-58l-825 -1212h840v-82h-953zM565 1561q0 35 23.5 57t58.5 22t58.5 -22.5t23.5 -56.5q0 -37 -23.5 -60.5t-58.5 -23.5t-58.5 23.5t-23.5 60.5z" />
<glyph unicode="&#x17c;" d="M147 0v49l771 856h-689v78h826v-47l-770 -856h792v-80h-930zM557 1319q0 45 26.5 71.5t69.5 26.5q41 0 69 -27.5t28 -70.5t-28 -70.5t-69 -27.5q-43 0 -69.5 26.5t-26.5 71.5z" />
<glyph unicode="&#x17d;" d="M143 0v57l826 1215h-756v80h868v-58l-825 -1212h840v-82h-953zM408 1669h81l154 -147h8l154 147h82l-197 -217h-86z" />
<glyph unicode="&#x17e;" d="M147 0v49l771 856h-689v78h826v-47l-770 -856h792v-80h-930zM418 1454h78l153 -207h8l154 207h76l-195 -283h-80z" />
<glyph unicode="&#x180;" d="M59 1190v59l156 8v216h92v-216h469v-67h-469v-184l-6 -211q178 172 373 172q205 0 311.5 -128t106.5 -354q0 -231 -133.5 -370.5t-323.5 -139.5q-76 0 -166 37t-164 99h-4l-10 -111h-76v1190h-156zM307 201q160 -145 324 -146q160 0 262 120t102 310q0 184 -82 293 t-254 109t-352 -180v-506z" />
<glyph unicode="&#x18f;" d="M133 668v14h887q0 283 -103.5 446.5t-295.5 163.5q-174 0 -297 -133l-48 64q137 152 345 151q233 0 363 -186.5t130 -509.5q0 -319 -137 -511t-365 -192q-221 0 -350 192.5t-129 500.5zM227 602q16 -252 119 -398.5t266 -146.5q174 0 283 149.5t123 399.5h-791v-4z" />
<glyph unicode="&#x192;" d="M104 -160l27 70q74 -31 129 -31q113 0 167 88t75 250l57 537h-233v67l137 8h104l15 129q47 416 319 416q98 0 178 -45l-30 -69q-63 35 -148 34q-109 0 -163 -93t-66 -234l-15 -138h322v-75h-332l-59 -545q-25 -201 -101.5 -305.5t-228.5 -104.5q-68 0 -154 41z" />
<glyph unicode="&#x1a0;" d="M111 680q0 315 140 504.5t363 189.5q127 0 232 -63q184 25 184 139q0 35 -29 80l72 39q39 -59 39 -113q0 -154 -199 -199q205 -188 205 -577q0 -317 -140 -511t-363.5 -194t-363.5 193.5t-140 511.5zM209 680q0 -281 111.5 -450t294 -169t294 169t111.5 450 q0 279 -111.5 443.5t-294 164.5t-294 -165t-111.5 -443z" />
<glyph unicode="&#x1a1;" d="M137 489q0 240 137.5 379.5t339.5 139.5q113 0 211 -47q195 25 195 143q0 43 -29 80l72 41q39 -57 39 -115q0 -147 -199 -197q188 -145 189 -424q0 -236 -138.5 -375t-339 -139t-339 139.5t-138.5 374.5zM233 489q0 -193 108 -313.5t273.5 -120.5t273 121t107.5 313 q0 195 -107.5 317t-273 122t-273.5 -122t-108 -317z" />
<glyph unicode="&#x1af;" d="M182 506v844h94v-834q0 -244 93.5 -349.5t244.5 -105.5q154 0 249 105.5t95 349.5v834h29q96 14 140 47t44 94q1 39 -28 80l71 39q41 -57 41 -113q0 -154 -208 -201v-790q0 -285 -120 -408t-313 -123q-190 0 -311 123t-121 408z" />
<glyph unicode="&#x1b0;" d="M178 371v612h90v-600q0 -166 66.5 -246t210.5 -80q102 0 187 52.5t190 171.5v702h16q174 23 174 141q0 43 -29 80l72 41q39 -59 39 -115q0 -145 -182 -194v-936h-76l-10 190h-8q-184 -215 -388 -215q-180 0 -266 97.5t-86 298.5z" />
<glyph unicode="&#x1cd;" d="M92 0l475 1350h95l475 -1350h-101l-155 463h-535l-160 -463h-94zM375 543h479l-86 252q-94 272 -150 467h-8q-35 -125 -149 -467zM375 1669h82l153 -147h8l154 147h82l-197 -217h-86z" />
<glyph unicode="&#x1ce;" d="M188 246q0 164 176.5 250t577.5 120q-4 311 -293 312q-182 0 -373 -133l-40 67q76 53 191.5 99.5t231.5 46.5q188 0 280.5 -104.5t92.5 -274.5v-629h-76l-10 147h-4q-219 -172 -412 -172q-143 0 -242.5 70t-99.5 201zM281 250q0 -98 77.5 -147.5t188.5 -49.5 q182 0 395 178v316q-365 -33 -513 -103.5t-148 -193.5zM414 1454h78l153 -207h8l154 207h76l-193 -283h-82z" />
<glyph unicode="&#x1cf;" d="M219 0v82h348v1186h-348v82h791v-82h-348v-1186h348v-82h-791zM375 1669h82l153 -147h8l154 147h82l-197 -217h-86z" />
<glyph unicode="&#x1d0;" d="M199 905v78h583v-983h-90v905h-493zM481 1454h76l154 -207h8l153 207h78l-194 -283h-80z" />
<glyph unicode="&#x1d1;" d="M111 680q0 315 140 504.5t363.5 189.5t363.5 -189.5t140 -504.5q0 -317 -140 -511t-363.5 -194t-363.5 193.5t-140 511.5zM209 680q0 -281 111.5 -450t294 -169t294 169t111.5 450q0 279 -111.5 443.5t-294 164.5t-294 -165t-111.5 -443zM375 1669h82l153 -147h8l154 147 h82l-197 -217h-86z" />
<glyph unicode="&#x1d2;" d="M137 489q0 240 137.5 379.5t340 139.5t340 -139.5t137.5 -379.5q0 -236 -138.5 -375t-339 -139t-339 139t-138.5 375zM233 489q0 -193 108 -313.5t273.5 -120.5t273 121t107.5 313q0 195 -107.5 317t-273 122t-273.5 -122t-108 -317zM379 1454h78l153 -207h8l154 207h78 l-195 -283h-82z" />
<glyph unicode="&#x1d3;" d="M182 506v844h94v-834q0 -244 93.5 -349.5t244.5 -105.5q154 0 249 105.5t95 349.5v834h89v-844q0 -285 -120 -408t-313 -123q-190 0 -311 123t-121 408zM375 1669h82l153 -147h8l154 147h82l-197 -217h-86z" />
<glyph unicode="&#x1d4;" d="M178 371v612h90v-600q0 -166 66.5 -246t210.5 -80q102 0 187 52.5t190 171.5v702h90v-983h-76l-10 190h-8q-184 -215 -388 -215q-180 0 -266 97.5t-86 298.5zM369 1454h75l154 -207h8l154 207h78l-195 -283h-82z" />
<glyph unicode="&#x1d5;" d="M182 506v844h94v-834q0 -244 93.5 -349.5t244.5 -105.5q154 0 249 105.5t95 349.5v834h89v-844q0 -285 -120 -408t-313 -123q-190 0 -311 123t-121 408zM381 1556.5q0 32.5 20.5 53t51 20.5t52 -20.5t21.5 -53t-21.5 -52t-52 -19.5t-51 19.5t-20.5 52zM381 1749v68h467 v-68h-467zM702 1556.5q0 32.5 21.5 53t52.5 20.5t51.5 -20.5t20.5 -53t-20.5 -52t-51.5 -19.5t-52.5 19.5t-21.5 52z" />
<glyph unicode="&#x1d6;" d="M178 371v612h90v-600q0 -166 66.5 -246t210.5 -80q102 0 187 52.5t190 171.5v702h90v-983h-76l-10 190h-8q-184 -215 -388 -215q-180 0 -266 97.5t-86 298.5zM367 1530v67h469v-67h-469zM369 1298.5q0 30.5 20.5 51t50.5 20.5q33 0 53.5 -20.5t20.5 -51t-20.5 -52 t-53.5 -21.5q-31 0 -51 21.5t-20 52zM690 1298.5q0 30.5 21.5 51t52.5 20.5t52.5 -20.5t21.5 -51t-21.5 -52t-52.5 -21.5t-52.5 21.5t-21.5 52z" />
<glyph unicode="&#x1d7;" d="M182 506v844h94v-834q0 -244 93.5 -349.5t244.5 -105.5q154 0 249 105.5t95 349.5v834h89v-844q0 -285 -120 -408t-313 -123q-190 0 -311 123t-121 408zM381 1556.5q0 32.5 20.5 53t51 20.5t52 -20.5t21.5 -53t-21.5 -52t-52 -19.5t-51 19.5t-20.5 52zM539 1698l192 217 h111l-224 -217h-79zM702 1556.5q0 32.5 21.5 53t52.5 20.5t51.5 -20.5t20.5 -53t-20.5 -52t-51.5 -19.5t-52.5 19.5t-21.5 52z" />
<glyph unicode="&#x1d8;" d="M178 371v612h90v-600q0 -166 66.5 -246t210.5 -80q102 0 187 52.5t190 171.5v702h90v-983h-76l-10 190h-8q-184 -215 -388 -215q-180 0 -266 97.5t-86 298.5zM369 1298.5q0 30.5 20.5 51t50.5 20.5q33 0 53.5 -20.5t20.5 -51t-20.5 -52t-53.5 -21.5q-31 0 -51 21.5 t-20 52zM514 1454l164 201h106l-196 -201h-74zM690 1298.5q0 30.5 21.5 51t52.5 20.5t52.5 -20.5t21.5 -51t-21.5 -52t-52.5 -21.5t-52.5 21.5t-21.5 52z" />
<glyph unicode="&#x1d9;" d="M182 506v844h94v-834q0 -244 93.5 -349.5t244.5 -105.5q154 0 249 105.5t95 349.5v834h89v-844q0 -285 -120 -408t-313 -123q-190 0 -311 123t-121 408zM375 1915h82l153 -148h8l154 148h82l-197 -217h-86zM381 1556.5q0 32.5 20.5 53t51 20.5t52 -20.5t21.5 -53 t-21.5 -52t-52 -19.5t-51 19.5t-20.5 52zM702 1556.5q0 32.5 21.5 53t52.5 20.5t51.5 -20.5t20.5 -53t-20.5 -52t-51.5 -19.5t-52.5 19.5t-21.5 52z" />
<glyph unicode="&#x1da;" d="M178 371v612h90v-600q0 -166 66.5 -246t210.5 -80q102 0 187 52.5t190 171.5v702h90v-983h-76l-10 190h-8q-184 -215 -388 -215q-180 0 -266 97.5t-86 298.5zM369 1298.5q0 30.5 20.5 51t50.5 20.5q33 0 53.5 -20.5t20.5 -51t-20.5 -52t-53.5 -21.5q-31 0 -51 21.5 t-20 52zM371 1655h80l147 -137h8l150 137h78l-191 -201h-82zM690 1298.5q0 30.5 21.5 51t52.5 20.5t52.5 -20.5t21.5 -51t-21.5 -52t-52.5 -21.5t-52.5 21.5t-21.5 52z" />
<glyph unicode="&#x1db;" d="M182 506v844h94v-834q0 -244 93.5 -349.5t244.5 -105.5q154 0 249 105.5t95 349.5v834h89v-844q0 -285 -120 -408t-313 -123q-190 0 -311 123t-121 408zM381 1556.5q0 32.5 20.5 53t51 20.5t52 -20.5t21.5 -53t-21.5 -52t-52 -19.5t-51 19.5t-20.5 52zM387 1915h111 l192 -217h-80zM702 1556.5q0 32.5 21.5 53t52.5 20.5t51.5 -20.5t20.5 -53t-20.5 -52t-51.5 -19.5t-52.5 19.5t-21.5 52z" />
<glyph unicode="&#x1dc;" d="M178 371v612h90v-600q0 -166 66.5 -246t210.5 -80q102 0 187 52.5t190 171.5v702h90v-983h-76l-10 190h-8q-184 -215 -388 -215q-180 0 -266 97.5t-86 298.5zM369 1298.5q0 30.5 20.5 51t50.5 20.5q33 0 53.5 -20.5t20.5 -51t-20.5 -52t-53.5 -21.5q-31 0 -51 21.5 t-20 52zM420 1655h106l166 -201h-74zM690 1298.5q0 30.5 21.5 51t52.5 20.5t52.5 -20.5t21.5 -51t-21.5 -52t-52.5 -21.5t-52.5 21.5t-21.5 52z" />
<glyph unicode="&#x1e6;" d="M121 678q0 319 159.5 507.5t421.5 188.5q209 0 359 -162l-55 -61q-123 137 -304 137q-223 0 -353 -165t-130 -445q0 -283 126 -450t345 -167q195 0 293 103v420h-311v80h403v-535q-139 -154 -391 -154q-254 0 -408.5 190.5t-154.5 512.5zM440 1669h82l154 -147h8l154 147 h82l-197 -217h-86z" />
<glyph unicode="&#x1e7;" d="M172 -188q0 129 166 231v8q-102 51 -102 158q0 104 118 186v8q-117 94 -116 254q0 150 107.5 250.5t258.5 100.5q76 0 135 -25h410v-76h-299q117 -113 117 -252q0 -150 -104.5 -246t-258.5 -96q-98 0 -186 45q-96 -59 -96 -137q0 -137 227 -137h244q188 0 273 -52 t85 -169q0 -133 -145.5 -234.5t-374.5 -101.5q-225 0 -342 76t-117 209zM258 -190q0 -92 94 -150.5t273 -58.5q193 0 312.5 76.5t119.5 175.5q0 80 -61.5 112.5t-194.5 32.5h-234q-92 0 -149 18q-160 -85 -160 -206zM330 657.5q0 -118.5 79.5 -195.5t194.5 -77t195 77 t80 195.5t-80 197.5t-195 79t-194.5 -79t-79.5 -197.5zM399 1454h76l154 -207h8l154 207h77l-194 -283h-82z" />
<glyph unicode="&#x1ea;" d="M111 680q0 315 140 504.5t363.5 189.5t363.5 -189.5t140 -504.5q0 -264 -95 -436t-265 -246q-80 -35 -125 -102.5t-45 -133.5q0 -51 30.5 -78.5t73.5 -27.5q51 0 88 29l35 -56q-61 -49 -135 -49t-123 43t-49 125q0 127 123 227q-131 0 -233.5 58.5t-164 160t-92 225.5 t-30.5 261zM209 680q0 -281 111.5 -450t294 -169t294 169t111.5 450q0 279 -111.5 443.5t-294 164.5t-294 -165t-111.5 -443z" />
<glyph unicode="&#x1eb;" d="M137 489q0 240 137.5 379.5t340 139.5t340 -139.5t137.5 -379.5q0 -201 -91.5 -317.5t-265.5 -185.5q-68 -31 -110.5 -94.5t-42.5 -129.5q0 -51 29.5 -78.5t70.5 -27.5q51 0 88 29l33 -54q-55 -47 -133 -47q-74 0 -120 43t-46 123q0 70 34.5 130.5t77.5 94.5 q-205 0 -342 139.5t-137 374.5zM233 489q0 -193 108 -313.5t273.5 -120.5t273 121t107.5 313q0 195 -107.5 317t-273 122t-273.5 -122t-108 -317z" />
<glyph unicode="&#x218;" d="M156 178l61 66q168 -182 416 -183q164 0 260 75t96 196q0 113 -64.5 170t-199.5 112l-205 93q-57 25 -100 48t-91 62t-75 96.5t-27 128.5q0 145 117 238.5t295 93.5q236 0 397 -162l-55 -63q-139 139 -342 139q-143 0 -230 -65.5t-87 -175.5q0 -55 21.5 -98.5t68.5 -75 t76.5 -47t86.5 -40.5l203 -90q147 -61 226 -139t79 -219q0 -158 -124.5 -260.5t-325.5 -102.5q-289 0 -477 203zM483 -367q190 29 191 103q0 76 -117 100l27 60q170 -35 170 -150q0 -74 -73 -117t-183 -57z" />
<glyph unicode="&#x219;" d="M170 131l51 66q174 -143 436 -144q145 0 226.5 56.5t81.5 138.5q0 74 -74 125t-279 100q-387 92 -387 272q0 115 98.5 189t286.5 74q96 0 200.5 -34t176.5 -87l-49 -66q-143 109 -330 109q-154 0 -221.5 -50.5t-67.5 -127.5q0 -125 332 -205q227 -55 317.5 -122 t90.5 -173q0 -117 -109.5 -197t-296.5 -80q-266 0 -483 156zM485 -367q190 29 191 103q0 76 -115 100l25 60q86 -16 128 -52.5t42 -97.5q0 -74 -73 -117t-183 -57z" />
<glyph unicode="&#x21a;" d="M98 1268v82h1032v-82h-468v-1268h-95v1268h-469zM465 -367q188 27 188 103t-114 100l24 60q172 -35 172 -150q0 -141 -258 -174z" />
<glyph unicode="&#x21b;" d="M166 905v70l297 8l12 285h76v-285h522v-78h-522v-545q0 -154 59.5 -229.5t212.5 -75.5q143 0 262 51l25 -69q-147 -61 -299 -62q-190 0 -270 102t-80 292v536h-295zM639 -367q188 27 188 103t-114 100l24 60q86 -16 128 -52.5t42 -97.5q0 -74 -72.5 -117t-183.5 -57z" />
<glyph unicode="&#x237;" d="M129 -403l37 71q119 -59 237 -59q162 0 225.5 77.5t63.5 225.5v993h-493v78h583v-1059q0 -193 -88 -293t-297 -100q-137 0 -268 66z" />
<glyph unicode="&#x243;" d="M78 365v59l160 8v918h360q209 0 326.5 -82t117.5 -246q0 -106 -61 -183t-178 -108v-8q152 -23 236.5 -105.5t84.5 -222.5q0 -193 -133 -294t-366 -101h-387v365h-160zM332 76h268q205 0 318.5 80t113.5 239q0 291 -432 291h-268v-254h336v-67h-336v-289zM332 758h227 q205 0 297 66.5t92 201.5q0 248 -377 248h-239v-516z" />
<glyph unicode="&#x251;" d="M137 489q0 231 137.5 375t327.5 144q164 0 322 -138h4l10 113h76v-983h-78l-10 145h-4q-162 -170 -351 -170q-197 0 -315.5 135t-118.5 379zM233 489q0 -197 94.5 -315.5t256.5 -118.5q168 0 338 181v546q-154 145 -316 146q-156 0 -264.5 -127.5t-108.5 -311.5z" />
<glyph unicode="&#x259;" d="M158 449q0 49 4 73h833q-4 182 -109.5 295t-301.5 113q-170 0 -328 -94l-37 69q166 102 373 103q229 0 363.5 -135.5t134.5 -378.5q0 -240 -131.5 -379.5t-354.5 -139.5q-197 0 -321.5 125.5t-124.5 348.5zM246 453q0 -197 99 -298.5t259 -101.5q178 0 278.5 105.5 t112.5 294.5h-749z" />
<glyph unicode="&#x261;" d="M137 504q0 225 136.5 364.5t328.5 139.5q168 0 322 -138h4l10 113h76v-1065q0 -178 -116 -282.5t-312 -104.5q-211 0 -373 107l41 71q150 -102 332 -102q158 0 247 86t91 235v242q-68 -74 -162 -122t-191 -48q-197 0 -315.5 133t-118.5 371zM231 504q0 -193 94.5 -308.5 t258.5 -115.5q170 0 338 180v522q-154 145 -316 146q-156 0 -265.5 -123t-109.5 -301z" />
<glyph unicode="&#x2b0;" d="M381 532v967h84v-272l-6 -152q131 125 248 125q225 0 225 -252v-416h-84v406q0 98 -38 144t-124 46q-59 0 -107.5 -28.5t-113.5 -93.5v-474h-84z" />
<glyph unicode="&#x2b2;" d="M295 274l31 64q72 -39 141 -39q102 0 143 48t41 142v627h-307v68h389v-686q0 -129 -60.5 -199t-205.5 -70q-86 0 -172 45zM614 1405q0 33 21.5 54.5t54.5 21.5t54.5 -21.5t21.5 -54.5t-21.5 -52.5t-54.5 -19.5t-54.5 19.5t-21.5 52.5z" />
<glyph unicode="&#x2b3;" d="M535 532v652h69l6 -158h4q100 174 271 174q78 0 131 -26l-19 -72q-66 23 -123 22q-158 0 -258 -198v-394h-81z" />
<glyph unicode="&#x2b7;" d="M166 1184h88l96 -402q25 -119 37 -176h4q14 57 43 176l94 379h78l99 -379q6 -27 19 -86t21 -90h7q8 31 20 89.5t19 86.5l94 402h82l-160 -652h-102l-95 369q-10 47 -41 189h-6q-6 -23 -19.5 -87.5t-23.5 -103.5l-92 -367h-98z" />
<glyph unicode="&#x2b8;" d="M299 1184h84l168 -387q12 -31 38.5 -94.5t39.5 -90.5h6q14 35 38.5 107t26.5 78l148 387h82l-283 -719q-78 -223 -250 -223q-41 0 -80 14l19 68q41 -10 59 -11q117 0 178 158l21 55z" />
<glyph unicode="&#x2bb;" d="M459 987q0 143 69.5 262t186.5 185l43 -64q-190 -127 -205 -350q35 20 63 20q51 0 85 -34.5t34 -87.5q0 -55 -34.5 -92.5t-90.5 -37.5q-63 0 -107 54.5t-44 144.5z" />
<glyph unicode="&#x2bc;" d="M465 850q188 125 203 350q-35 -20 -62 -20q-53 0 -87 34.5t-34 88.5q0 57 35 94t90 37q63 0 107.5 -55.5t44.5 -145.5q0 -143 -69.5 -262.5t-186.5 -182.5z" />
<glyph unicode="&#x2be;" d="M516 1022v49q102 0 152.5 45t50.5 123q0 168 -203 168v51q123 2 194.5 -57.5t71.5 -161.5t-71.5 -160.5t-194.5 -56.5z" />
<glyph unicode="&#x2bf;" d="M461 1239q0 102 71.5 161.5t194.5 57.5v-51q-203 0 -203 -168q0 -78 50.5 -123t152.5 -45v-49q-123 -2 -194.5 56.5t-71.5 160.5z" />
<glyph unicode="&#x2c6;" d="M379 1171l194 283h82l195 -283h-78l-154 207h-8l-153 -207h-78z" />
<glyph unicode="&#x2c7;" d="M379 1454h78l153 -207h8l154 207h78l-195 -283h-82z" />
<glyph unicode="&#x2c8;" d="M539 1436h151l-39 -600h-73z" />
<glyph unicode="&#x2c9;" d="M383 1241v74h463v-74h-463z" />
<glyph unicode="&#x2ca;" d="M498 1171l186 283h111l-222 -283h-75z" />
<glyph unicode="&#x2cb;" d="M428 1454h109l188 -283h-78z" />
<glyph unicode="&#x2cc;" d="M539 -506l39 602h73l39 -602h-151z" />
<glyph unicode="&#x2d8;" d="M369 1427h67q10 -76 55.5 -129t123 -53t122.5 53.5t56 128.5h67q-10 -96 -70.5 -171.5t-175 -75.5t-175 75.5t-70.5 171.5z" />
<glyph unicode="&#x2d9;" d="M518 1319q0 43 27.5 70.5t68.5 27.5t69 -27.5t28 -70.5t-28 -70.5t-69 -27.5t-68.5 27.5t-27.5 70.5z" />
<glyph unicode="&#x2da;" d="M446 1280q0 80 47.5 129t121 49t120.5 -49t47 -129q0 -78 -47 -127t-120.5 -49t-121 49t-47.5 127zM508 1280q0 -55 30.5 -89t75.5 -34t76 34t31 89t-31 90t-76 35t-75.5 -35t-30.5 -90z" />
<glyph unicode="&#x2db;" d="M504 -250q0 141 145 258h90q-158 -115 -157 -246q0 -51 29.5 -78.5t70.5 -27.5q51 0 88 29l33 -54q-55 -47 -133 -47q-74 0 -120 43t-46 123z" />
<glyph unicode="&#x2dc;" d="M360 1190q6 78 40 131t104 53q53 0 123.5 -57t101.5 -57q66 0 78 114h61q-6 -78 -39.5 -131t-103.5 -53q-53 0 -123 57.5t-102 57.5q-66 0 -78 -115h-62z" />
<glyph unicode="&#x2dd;" d="M446 1167l148 283h92l-170 -283h-70zM719 1167l147 283h95l-173 -283h-69z" />
<glyph unicode="&#x2e1;" d="M418 1432v67h266v-778q0 -133 115 -133q45 0 110 22l19 -67q-102 -27 -146 -27q-182 0 -182 213v703h-182z" />
<glyph unicode="&#x2e2;" d="M350 606l43 58q111 -80 252 -80q88 0 137 33.5t49 82.5q0 35 -31.5 63t-66.5 41t-94 30q-61 18 -92 30.5t-75 35t-64.5 53t-20.5 69.5q0 76 68.5 127t189.5 51q127 0 232 -70l-43 -55q-90 59 -191 60q-86 0 -130 -31t-44 -78q0 -31 29.5 -55.5t61.5 -36.5t93 -31 q159 -48 206 -86q55 -45 54 -112q0 -80 -72.5 -134.5t-199.5 -54.5q-160 0 -291 90z" />
<glyph unicode="&#x2e3;" d="M369 532l225 342l-207 310h90l103 -154q12 -20 36.5 -59t30.5 -49h6q10 18 33 54t35 54l96 154h88l-209 -320l226 -332h-91l-110 166q-43 70 -80 119h-4q-16 -20 -42 -63t-34 -56l-106 -166h-86z" />
<glyph unicode="&#x300;" d="M432 1454h109l188 -283h-78z" />
<glyph unicode="&#x301;" d="M500 1171l188 283h109l-219 -283h-78z" />
<glyph unicode="&#x302;" d="M379 1171l194 283h82l195 -283h-78l-154 207h-8l-153 -207h-78z" />
<glyph unicode="&#x303;" d="M360 1190q6 78 40 131t104 53q53 0 123.5 -57t101.5 -57q66 0 78 114h61q-6 -78 -39.5 -131t-103.5 -53q-53 0 -123 57.5t-102 57.5q-66 0 -78 -115h-62z" />
<glyph unicode="&#x304;" d="M383 1241v74h463v-74h-463z" />
<glyph unicode="&#x306;" d="M369 1427h67q10 -76 55.5 -129t123 -53t122.5 53.5t56 128.5h67q-10 -96 -70.5 -171.5t-175 -75.5t-175 75.5t-70.5 171.5z" />
<glyph unicode="&#x307;" d="M518 1319q0 43 27.5 70.5t68.5 27.5t69 -27.5t28 -70.5t-28 -70.5t-69 -27.5t-68.5 27.5t-27.5 70.5z" />
<glyph unicode="&#x308;" d="M352 1309q0 37 22.5 61.5t57.5 24.5t58.5 -26t23.5 -60.5t-23.5 -59t-58.5 -24.5t-57.5 24.5t-22.5 59.5zM715 1308.5q0 34.5 23.5 60.5t58 26t57.5 -24.5t23 -61.5q0 -35 -23 -59.5t-57.5 -24.5t-58 24.5t-23.5 59z" />
<glyph unicode="&#x309;" d="M504 1393l8 65q248 -12 248 -153q0 -72 -53.5 -112t-141.5 -65l-16 54q129 39 129 112q0 92 -174 99z" />
<glyph unicode="&#x30a;" d="M446 1280q0 80 47.5 129t121 49t120.5 -49t47 -129q0 -78 -47 -127t-120.5 -49t-121 49t-47.5 127zM508 1280q0 -55 30.5 -89t75.5 -34t76 34t31 89t-31 90t-76 35t-75.5 -35t-30.5 -90z" />
<glyph unicode="&#x30b;" d="M446 1167l148 283h92l-170 -283h-70zM719 1167l147 283h95l-173 -283h-69z" />
<glyph unicode="&#x30c;" d="M379 1454h78l153 -207h8l154 207h78l-195 -283h-82z" />
<glyph unicode="&#x30f;" d="M268 1450h94l148 -283h-70zM543 1450h92l147 -283h-69z" />
<glyph unicode="&#x312;" d="M526 1243q1 151 144 225l30 -49q-106 -59 -110 -162q6 2 16 3q29 0 50.5 -16.5t21.5 -49.5q0 -76 -68 -76q-84 0 -84 125z" />
<glyph unicode="&#x313;" d="M528 1167q104 57 109 162q-4 -2 -16 -2q-27 0 -48.5 16.5t-21.5 49.5q0 76 67 75q84 0 84 -125q0 -153 -143 -227z" />
<glyph unicode="&#x31b;" d="M598 963q193 25 193 141q0 39 -29 80l72 41q39 -57 38 -115q0 -174 -262 -209z" />
<glyph unicode="&#x323;" d="M518 -332q0 43 27.5 71t68.5 28t69 -28t28 -71q0 -45 -28 -71.5t-69 -26.5t-68.5 26.5t-27.5 71.5z" />
<glyph unicode="&#x324;" d="M379 -317q0 33 20.5 54t53 21t54 -21.5t21.5 -53.5q0 -31 -21.5 -52.5t-54 -21.5t-53 21.5t-20.5 52.5zM700 -317q0 33 21.5 54t54.5 21t53.5 -21.5t20.5 -53.5q0 -31 -20.5 -52.5t-53.5 -21.5t-54.5 21.5t-21.5 52.5z" />
<glyph unicode="&#x326;" d="M463 -367q190 29 190 103q0 76 -116 100l26 60q170 -35 170 -150q0 -74 -72.5 -117t-183.5 -57z" />
<glyph unicode="&#x327;" d="M463 -365q190 29 190 105q0 73 -137 108l82 156h72l-60 -115q123 -43 123 -141q0 -74 -72.5 -117t-183.5 -57z" />
<glyph unicode="&#x328;" d="M504 -250q0 141 145 258h90q-158 -115 -157 -246q0 -51 29.5 -78.5t70.5 -27.5q51 0 88 29l33 -54q-55 -47 -133 -47q-74 0 -120 43t-46 123z" />
<glyph unicode="&#x32e;" d="M371 -172h67q10 -74 55.5 -125t121 -51t120.5 51t56 125h67q-12 -96 -70.5 -170t-173 -74t-173 74t-70.5 170z" />
<glyph unicode="&#x331;" d="M379 -254h467v-74h-467v74z" />
<glyph unicode="&#x3c0;" d="M123 901v74l137 8h834v-82h-162v-737q0 -109 76 -109q20 0 55 13l16 -74q-43 -18 -88 -19q-150 0 -149 201v725h-453v-901h-90v901h-176z" />
<glyph unicode="&#x1d43;" d="M358 698q0 106 108.5 164t344.5 82q-4 188 -164 189q-102 0 -223 -74l-35 57q133 84 268 84q121 0 178.5 -69.5t57.5 -188.5v-410h-70l-6 82h-2q-133 -98 -248 -98q-90 0 -149.5 48t-59.5 134zM440 702q0 -59 42 -88.5t106 -29.5q100 0 223 96v205q-199 -20 -285 -64.5 t-86 -118.5z" />
<glyph unicode="&#x1d47;" d="M373 532v967h84v-272l-4 -123q123 96 231 96q135 0 206 -88t71 -244q0 -160 -88.5 -256t-213.5 -96q-104 0 -206 80h-4l-9 -64h-67zM457 664q96 -76 190 -76q100 0 162.5 76.5t62.5 203.5q0 262 -206 262q-96 0 -209 -100v-366z" />
<glyph unicode="&#x1d48;" d="M291 858q0 154 89 248t214 94q100 0 207 -78l-6 117v260h84v-967h-70l-8 82h-2q-106 -98 -224 -98q-131 0 -207.5 90t-76.5 252zM377 858q0 -125 56 -197.5t159 -72.5q104 0 203 98v367q-94 78 -190.5 77.5t-162 -78t-65.5 -194.5z" />
<glyph unicode="&#x1d49;" d="M342 858q0 154 92 248t217 94q129 0 203 -81t74 -222q0 -29 -6 -53h-496q4 -117 73.5 -188.5t180.5 -71.5q96 0 186 55l33 -57q-115 -66 -229 -66q-139 0 -233.5 93t-94.5 249zM426 903h426q0 111 -53.5 170.5t-145.5 59.5q-86 0 -151.5 -63t-75.5 -167z" />
<glyph unicode="&#x1d4d;" d="M324 412q0 82 110 147v6q-68 33 -67.5 104.5t79.5 123.5v6q-80 66 -79 170q0 102 71.5 166.5t177.5 64.5q57 0 93 -16h274v-66h-188q66 -66 65 -151q0 -100 -69.5 -164t-174.5 -64q-51 0 -118 27q-57 -33 -58 -82q0 -84 142 -84h157q129 0 187.5 -35t58.5 -114 q0 -92 -98.5 -159t-257.5 -67q-150 0 -227.5 49.5t-77.5 137.5zM399 416q0 -59 59.5 -95t170.5 -36q121 0 197.5 47t76.5 106q0 49 -40 68.5t-124 19.5h-145q-61 0 -98 13q-97 -53 -97 -123zM449 968.5q0 -73.5 46.5 -120.5t120.5 -47q70 0 118 47t48 120.5t-48 122 t-118 48.5q-72 0 -119.5 -48.5t-47.5 -122z" />
<glyph unicode="&#x1d4f;" d="M422 532v967h82v-684h4l381 369h96l-254 -254l293 -398h-94l-252 342l-174 -163v-179h-82z" />
<glyph unicode="&#x1d50;" d="M287 532v652h65l8 -86h5q57 102 149 102q104 0 129 -113q68 113 162 113q141 0 141 -196v-472h-80v463q0 133 -84 133q-74 0 -129 -112v-484h-73v463q0 133 -84 133q-70 0 -129 -112v-484h-80z" />
<glyph unicode="&#x1d52;" d="M303 858q0 158 90 250t221 92q133 0 222.5 -92t89.5 -250t-89 -250t-223 -92q-131 0 -221 92t-90 250zM389 858q0 -121 62.5 -195.5t163 -74.5t163 74.5t62.5 195.5t-62.5 198t-163 77t-163 -77t-62.5 -198z" />
<glyph unicode="&#x1d56;" d="M373 246v938h69l9 -78h4q121 94 231 94q133 0 204 -88t71 -244q0 -160 -88.5 -256t-213.5 -96q-93 0 -204 78l2 -117v-231h-84zM457 664q98 -76 190 -76q100 0 162.5 76.5t62.5 203.5q0 262 -206 262q-90 0 -209 -100v-366z" />
<glyph unicode="&#x1d57;" d="M352 1116v64l170 4l10 188h70v-188h316v-68h-316v-338q0 -98 39 -145t137 -47q74 0 146 32l18 -61q-86 -41 -180 -41q-244 0 -244 264v336h-166z" />
<glyph unicode="&#x1d58;" d="M342 768v416h84v-406q0 -96 38 -142t122 -46q106 0 223 123v471h82v-652h-68l-10 111h-4q-113 -127 -244 -127q-223 0 -223 252z" />
<glyph unicode="&#x1d5b;" d="M338 1184h86l143 -391q6 -14 66 -189h4q10 29 31.5 92.5t33.5 96.5l144 391h82l-244 -652h-98z" />
<glyph unicode="&#x1d9c;" d="M383 858q0 158 96 250t234 92q115 0 209 -78l-45 -57q-78 68 -160 68q-109 0 -179.5 -78t-70.5 -197q0 -121 67.5 -195.5t178.5 -74.5q102 0 186 69l39 -55q-102 -86 -229 -86q-143 0 -234.5 91t-91.5 251z" />
<glyph unicode="&#x1da0;" d="M424 1116v64l168 4v69q0 125 63.5 194t190.5 69q96 0 178 -33l-20 -64q-68 29 -150 29q-182 0 -182 -188v-76h284v-68h-284v-584h-80v584h-168z" />
<glyph unicode="&#x1dbb;" d="M293 532v46l489 538h-436v68h559v-43l-489 -539h506v-70h-629z" />
<glyph unicode="&#x1e0c;" d="M197 0v1350h309q303 0 456.5 -177.5t153.5 -492.5q0 -317 -153.5 -498.5t-454.5 -181.5h-311zM291 80h207q262 0 391 161.5t129 438.5q0 274 -129 432t-391 158h-207v-1190zM498 -332q0 43 27.5 71t68.5 28t68.5 -28t27.5 -71q0 -45 -27.5 -71.5t-68.5 -26.5t-68.5 26.5 t-27.5 71.5z" />
<glyph unicode="&#x1e0d;" d="M137 489q0 231 136.5 375t326.5 144q162 0 328 -140l-6 199v406h92v-1473h-78l-10 145h-4q-162 -170 -351 -170q-197 0 -315.5 135t-118.5 379zM233 489q0 -197 94.5 -315.5t256.5 -118.5q168 0 338 181v546q-154 145 -316 146q-156 0 -264.5 -127.5t-108.5 -311.5z M528 -332q0 45 27 72t70 27q41 0 68.5 -28t27.5 -71q0 -45 -27.5 -71.5t-68.5 -26.5q-43 0 -70 26.5t-27 71.5z" />
<glyph unicode="&#x1e0e;" d="M197 0v1350h309q303 0 456.5 -177.5t153.5 -492.5q0 -317 -153.5 -498.5t-454.5 -181.5h-311zM291 80h207q262 0 391 161.5t129 438.5q0 274 -129 432t-391 158h-207v-1190zM358 -254h467v-74h-467v74z" />
<glyph unicode="&#x1e0f;" d="M137 489q0 231 136.5 375t326.5 144q162 0 328 -140l-6 199v406h92v-1473h-78l-10 145h-4q-162 -170 -351 -170q-197 0 -315.5 135t-118.5 379zM233 489q0 -197 94.5 -315.5t256.5 -118.5q168 0 338 181v546q-154 145 -316 146q-156 0 -264.5 -127.5t-108.5 -311.5z M387 -254h469v-74h-469v74z" />
<glyph unicode="&#x1e20;" d="M121 678q0 319 159.5 507.5t421.5 188.5q209 0 359 -162l-55 -61q-123 137 -304 137q-223 0 -353 -165t-130 -445q0 -283 126 -450t345 -167q195 0 293 103v420h-311v80h403v-535q-139 -154 -391 -154q-254 0 -408.5 190.5t-154.5 512.5zM446 1503v74h467v-74h-467z" />
<glyph unicode="&#x1e21;" d="M172 -188q0 129 166 231v8q-102 51 -102 158q0 104 118 186v8q-117 94 -116 254q0 150 107.5 250.5t258.5 100.5q76 0 135 -25h410v-76h-299q117 -113 117 -252q0 -150 -104.5 -246t-258.5 -96q-98 0 -186 45q-96 -59 -96 -137q0 -137 227 -137h244q188 0 273 -52 t85 -169q0 -133 -145.5 -234.5t-374.5 -101.5q-225 0 -342 76t-117 209zM258 -190q0 -92 94 -150.5t273 -58.5q193 0 312.5 76.5t119.5 175.5q0 80 -61.5 112.5t-194.5 32.5h-234q-92 0 -149 18q-160 -85 -160 -206zM330 657.5q0 -118.5 79.5 -195.5t194.5 -77t195 77 t80 195.5t-80 197.5t-195 79t-194.5 -79t-79.5 -197.5zM401 1241v74h465v-74h-465z" />
<glyph unicode="&#x1e24;" d="M182 0v1350h94v-592h676v592h95v-1350h-95v676h-676v-676h-94zM518 -332q0 43 27.5 71t68.5 28t69 -28t28 -71q0 -45 -28 -71.5t-69 -26.5t-68.5 26.5t-27.5 71.5z" />
<glyph unicode="&#x1e25;" d="M215 0v1473h92v-426l-6 -259q104 109 196.5 164.5t200.5 55.5q354 0 355 -396v-612h-92v600q0 166 -67 246t-210 80q-100 0 -182 -51.5t-195 -169.5v-705h-92zM555 -332q0 45 27.5 72t68.5 27t69 -28t28 -71q0 -45 -28 -71.5t-69 -26.5q-43 0 -69.5 26.5t-26.5 71.5z" />
<glyph unicode="&#x1e2a;" d="M182 0v1350h94v-592h676v592h95v-1350h-95v676h-676v-676h-94zM371 -172h67q10 -74 54.5 -125t121.5 -51q76 0 121 51t56 125h67q-12 -96 -70.5 -170t-173 -74t-173 74t-70.5 170z" />
<glyph unicode="&#x1e2b;" d="M215 0v1473h92v-426l-6 -259q104 109 196.5 164.5t200.5 55.5q354 0 355 -396v-612h-92v600q0 166 -67 246t-210 80q-100 0 -182 -51.5t-195 -169.5v-705h-92zM406 -172h67q10 -74 54 -125t122 -51q76 0 121 51t55 125h68q-10 -96 -70.5 -170t-173.5 -74q-115 0 -174 75 t-69 169z" />
<glyph unicode="&#x1e36;" d="M307 0v1350h90v-1268h707v-82h-797zM631 -332q0 43 27.5 71t68.5 28t68.5 -28t27.5 -71q0 -45 -27.5 -71.5t-68.5 -26.5t-68.5 26.5t-27.5 71.5z" />
<glyph unicode="&#x1e37;" d="M190 1395v78h455v-1188q0 -229 213 -230q90 0 205 54l29 -72q-150 -61 -246 -62q-291 0 -291 322v1098h-365zM674 -332q0 43 27.5 71t68.5 28t68.5 -28t27.5 -71q0 -45 -27.5 -71.5t-68.5 -26.5t-68.5 26.5t-27.5 71.5z" />
<glyph unicode="&#x1e38;" d="M150 1503v74h466v-74h-466zM307 0v1350h90v-1268h707v-82h-797zM631 -332q0 43 27.5 71t68.5 28t68.5 -28t27.5 -71q0 -45 -27.5 -71.5t-68.5 -26.5t-68.5 26.5t-27.5 71.5z" />
<glyph unicode="&#x1e39;" d="M190 1395v78h455v-1188q0 -229 213 -230q90 0 205 54l29 -72q-150 -61 -246 -62q-291 0 -291 322v1098h-365zM365 1708v74h464v-74h-464zM674 -332q0 43 27.5 71t68.5 28t68.5 -28t27.5 -71q0 -45 -27.5 -71.5t-68.5 -26.5t-68.5 26.5t-27.5 71.5z" />
<glyph unicode="&#x1e3a;" d="M307 0v1350h90v-1268h707v-82h-797zM492 -254h466v-74h-466v74z" />
<glyph unicode="&#x1e3b;" d="M190 1395v78h455v-1188q0 -229 213 -230q90 0 205 54l29 -72q-150 -61 -246 -62q-291 0 -291 322v1098h-365zM535 -254h466v-74h-466v74z" />
<glyph unicode="&#x1e42;" d="M186 0v1350h121l225 -629l80 -240h9l77 240l224 629h120v-1350h-88v944q0 72 11 303h-7l-77 -241l-234 -637h-65l-236 637l-82 241h-4q12 -276 12 -303v-944h-86zM518 -332q0 43 27.5 71t68.5 28t69 -28t28 -71q0 -45 -28 -71.5t-69 -26.5t-68.5 26.5t-27.5 71.5z" />
<glyph unicode="&#x1e43;" d="M154 0v983h73l11 -133h4q47 80 98 119t127 39q158 0 197 -174q59 90 112 132t129 42q213 0 213 -295v-713h-88v702q0 223 -143 224q-63 0 -111.5 -44t-99.5 -141v-741h-82v702q0 223 -141 224q-66 0 -114 -44t-97 -141v-741h-88zM530 -332q0 43 28 71t69 28 q43 0 70.5 -28t27.5 -71q0 -45 -27.5 -71.5t-70.5 -26.5q-41 0 -69 26.5t-28 71.5z" />
<glyph unicode="&#x1e44;" d="M188 0v1350h99l526 -955l145 -266h5q-2 43 -5.5 123t-5.5 145.5t-2 122.5v830h90v-1350h-98l-526 954l-146 267h-4q2 -45 5 -122t5.5 -141.5t2.5 -121.5v-836h-91zM545 1561q0 35 23.5 57t58.5 22t58.5 -22.5t23.5 -56.5q0 -37 -23.5 -60.5t-58.5 -23.5t-58.5 23.5 t-23.5 60.5z" />
<glyph unicode="&#x1e45;" d="M215 0v983h78l10 -188h8q96 102 187.5 157.5t199.5 55.5q354 0 355 -396v-612h-92v600q0 166 -67 246t-210 80q-100 0 -182 -51.5t-195 -169.5v-705h-92zM557 1319q0 43 27.5 70.5t68.5 27.5q43 0 70 -26.5t27 -71.5t-27 -71.5t-70 -26.5q-41 0 -68.5 27.5t-27.5 70.5z " />
<glyph unicode="&#x1e46;" d="M188 0v1350h99l526 -955l145 -266h5q-2 43 -5.5 123t-5.5 145.5t-2 122.5v830h90v-1350h-98l-526 954l-146 267h-4q2 -45 5 -122t5.5 -141.5t2.5 -121.5v-836h-91zM518 -332q0 43 27.5 71t68.5 28t69 -28t28 -71q0 -45 -28 -71.5t-69 -26.5t-68.5 26.5t-27.5 71.5z" />
<glyph unicode="&#x1e47;" d="M215 0v983h78l10 -188h8q96 102 187.5 157.5t199.5 55.5q354 0 355 -396v-612h-92v600q0 166 -67 246t-210 80q-100 0 -182 -51.5t-195 -169.5v-705h-92zM553 -332q0 45 26.5 72t69.5 27q41 0 68.5 -28t27.5 -71q0 -45 -27.5 -71.5t-68.5 -26.5q-43 0 -69.5 26.5 t-26.5 71.5z" />
<glyph unicode="&#x1e48;" d="M188 0v1350h99l526 -955l145 -266h5q-2 43 -5.5 123t-5.5 145.5t-2 122.5v830h90v-1350h-98l-526 954l-146 267h-4q2 -45 5 -122t5.5 -141.5t2.5 -121.5v-836h-91zM379 -254h467v-74h-467v74z" />
<glyph unicode="&#x1e49;" d="M215 0v983h78l10 -188h8q96 102 187.5 157.5t199.5 55.5q354 0 355 -396v-612h-92v600q0 166 -67 246t-210 80q-100 0 -182 -51.5t-195 -169.5v-705h-92zM412 -254h469v-74h-469v74z" />
<glyph unicode="&#x1e5a;" d="M240 0v1350h385q444 0 444 -357q0 -158 -92 -250.5t-254 -115.5l373 -627h-111l-364 621h-287v-621h-94zM334 698h266q373 0 373 295q0 147 -93.5 212t-279.5 65h-266v-572zM559 -332q0 43 27.5 71t68.5 28t69 -28t28 -71q0 -45 -28 -71.5t-69 -26.5t-68.5 26.5 t-27.5 71.5z" />
<glyph unicode="&#x1e5b;" d="M311 -332q0 45 27 72t70 27q41 0 68.5 -28t27.5 -71q0 -45 -27.5 -71.5t-68.5 -26.5q-43 0 -70 26.5t-27 71.5zM334 0v983h78l10 -242h4q182 266 463 267q117 0 196 -41l-22 -80q-102 35 -189 35q-262 0 -448 -308v-614h-92z" />
<glyph unicode="&#x1e5c;" d="M240 0v1350h385q444 0 444 -357q0 -158 -92 -250.5t-254 -115.5l373 -627h-111l-364 621h-287v-621h-94zM334 698h266q373 0 373 295q0 147 -93.5 212t-279.5 65h-266v-572zM393 1503v74h465v-74h-465zM559 -332q0 43 27.5 71t68.5 28t69 -28t28 -71q0 -45 -28 -71.5 t-69 -26.5t-68.5 26.5t-27.5 71.5z" />
<glyph unicode="&#x1e5d;" d="M311 -332q0 45 27 72t70 27q41 0 68.5 -28t27.5 -71q0 -45 -27.5 -71.5t-68.5 -26.5q-43 0 -70 26.5t-27 71.5zM334 0v983h78l10 -242h4q182 266 463 267q117 0 196 -41l-22 -80q-102 35 -189 35q-262 0 -448 -308v-614h-92zM471 1241v74h465v-74h-465z" />
<glyph unicode="&#x1e5e;" d="M240 0v1350h385q444 0 444 -357q0 -158 -92 -250.5t-254 -115.5l373 -627h-111l-364 621h-287v-621h-94zM334 698h266q373 0 373 295q0 147 -93.5 212t-279.5 65h-266v-572zM420 -254h467v-74h-467v74z" />
<glyph unicode="&#x1e5f;" d="M170 -254h469v-74h-469v74zM334 0v983h78l10 -242h4q182 266 463 267q117 0 196 -41l-22 -80q-102 35 -189 35q-262 0 -448 -308v-614h-92z" />
<glyph unicode="&#x1e60;" d="M156 178l61 66q168 -182 416 -183q164 0 260 75t96 196q0 113 -64.5 170t-199.5 112l-205 93q-57 25 -100 48t-91 62t-75 96.5t-27 128.5q0 145 117 238.5t295 93.5q236 0 397 -162l-55 -63q-139 139 -342 139q-143 0 -230 -65.5t-87 -175.5q0 -55 21.5 -98.5t68.5 -75 t76.5 -47t86.5 -40.5l203 -90q147 -61 226 -139t79 -219q0 -158 -124.5 -260.5t-325.5 -102.5q-289 0 -477 203zM559 1561q0 35 23.5 57t58.5 22t58.5 -22.5t23.5 -56.5q0 -37 -23.5 -60.5t-58.5 -23.5t-58.5 23.5t-23.5 60.5z" />
<glyph unicode="&#x1e61;" d="M170 131l51 66q174 -143 436 -144q145 0 226.5 56.5t81.5 138.5q0 74 -74 125t-279 100q-387 92 -387 272q0 115 98.5 189t286.5 74q96 0 200.5 -34t176.5 -87l-49 -66q-143 109 -330 109q-154 0 -221.5 -50.5t-67.5 -127.5q0 -125 332 -205q227 -55 317.5 -122 t90.5 -173q0 -117 -109.5 -197t-296.5 -80q-266 0 -483 156zM514 1319q0 43 27.5 70.5t68.5 27.5t69 -27.5t28 -70.5t-28 -70.5t-69 -27.5t-68.5 27.5t-27.5 70.5z" />
<glyph unicode="&#x1e62;" d="M156 178l61 66q168 -182 416 -183q164 0 260 75t96 196q0 113 -64.5 170t-199.5 112l-205 93q-57 25 -100 48t-91 62t-75 96.5t-27 128.5q0 145 117 238.5t295 93.5q236 0 397 -162l-55 -63q-139 139 -342 139q-143 0 -230 -65.5t-87 -175.5q0 -55 21.5 -98.5t68.5 -75 t76.5 -47t86.5 -40.5l203 -90q147 -61 226 -139t79 -219q0 -158 -124.5 -260.5t-325.5 -102.5q-289 0 -477 203zM539 -332q0 43 27.5 71t68.5 28t68.5 -28t27.5 -71q0 -45 -27.5 -71.5t-68.5 -26.5t-68.5 26.5t-27.5 71.5z" />
<glyph unicode="&#x1e63;" d="M170 131l51 66q174 -143 436 -144q145 0 226.5 56.5t81.5 138.5q0 74 -74 125t-279 100q-387 92 -387 272q0 115 98.5 189t286.5 74q96 0 200.5 -34t176.5 -87l-49 -66q-143 109 -330 109q-154 0 -221.5 -50.5t-67.5 -127.5q0 -125 332 -205q227 -55 317.5 -122 t90.5 -173q0 -117 -109.5 -197t-296.5 -80q-266 0 -483 156zM541 -332q0 43 27.5 71t68.5 28q43 0 69.5 -27t26.5 -72t-26.5 -71.5t-69.5 -26.5q-41 0 -68.5 26.5t-27.5 71.5z" />
<glyph unicode="&#x1e6c;" d="M98 1268v82h1032v-82h-468v-1268h-95v1268h-469zM520 -332q0 43 27.5 71t68.5 28t69 -28t28 -71q0 -45 -28 -71.5t-69 -26.5t-68.5 26.5t-27.5 71.5z" />
<glyph unicode="&#x1e6d;" d="M166 905v70l297 8l12 285h76v-285h522v-78h-522v-545q0 -154 59.5 -229.5t212.5 -75.5q143 0 262 51l25 -69q-147 -61 -299 -62q-190 0 -270 102t-80 292v536h-295zM694 -332q0 45 28 72t68.5 27t68.5 -28t28 -71q0 -45 -27.5 -71.5t-68.5 -26.5q-43 0 -70 26.5t-27 71.5 z" />
<glyph unicode="&#x1e6e;" d="M98 1268v82h1032v-82h-468v-1268h-95v1268h-469zM381 -254h467v-74h-467v74z" />
<glyph unicode="&#x1e6f;" d="M166 905v70l297 8l12 285h76v-285h522v-78h-522v-545q0 -154 59.5 -229.5t212.5 -75.5q143 0 262 51l25 -69q-147 -61 -299 -62q-190 0 -270 102t-80 292v536h-295zM553 -254h469v-74h-469v74z" />
<glyph unicode="&#x1e80;" d="M29 1352h88l145 -924q6 -53 21.5 -160.5t21.5 -165.5h4q92 309 97 326l167 571h86l172 -571l93 -326h8q6 49 13 103.5t16.5 120t13.5 102.5l139 924h86l-217 -1352h-115l-192 647q-10 41 -28.5 120t-29.5 116h-6q-53 -203 -61 -236l-186 -647h-113zM383 1669h119 l188 -217h-82z" />
<glyph unicode="&#x1e81;" d="M23 983h96l157 -637q41 -166 60 -262h8l66 262l157 621h101l157 -621l66 -262h8q6 29 27.5 120t34.5 142l155 637h90l-250 -983h-116l-156 602q-8 31 -29.5 128t-36.5 153h-8q-51 -231 -65 -285l-152 -598h-117zM432 1454h109l188 -283h-78z" />
<glyph unicode="&#x1e82;" d="M29 1352h88l145 -924q6 -53 21.5 -160.5t21.5 -165.5h4q92 309 97 326l167 571h86l172 -571l93 -326h8q6 49 13 103.5t16.5 120t13.5 102.5l139 924h86l-217 -1352h-115l-192 647q-10 41 -28.5 120t-29.5 116h-6q-53 -203 -61 -236l-186 -647h-113zM539 1452l188 217h119 l-225 -217h-82z" />
<glyph unicode="&#x1e83;" d="M23 983h96l157 -637q41 -166 60 -262h8l66 262l157 621h101l157 -621l66 -262h8q6 29 27.5 120t34.5 142l155 637h90l-250 -983h-116l-156 602q-8 31 -29.5 128t-36.5 153h-8q-51 -231 -65 -285l-152 -598h-117zM500 1171l188 283h111l-221 -283h-78z" />
<glyph unicode="&#x1e84;" d="M29 1352h88l145 -924q6 -53 21.5 -160.5t21.5 -165.5h4q92 309 97 326l167 571h86l172 -571l93 -326h8q6 49 13 103.5t16.5 120t13.5 102.5l139 924h86l-217 -1352h-115l-192 647q-10 41 -28.5 120t-29.5 116h-6q-53 -203 -61 -236l-186 -647h-113zM379 1559 q0 35 20.5 55t53 20t54 -20.5t21.5 -54.5q0 -33 -21.5 -53.5t-54 -20.5t-53 20.5t-20.5 53.5zM700 1559q0 35 21.5 55t54.5 20t53.5 -20.5t20.5 -54.5q0 -33 -20.5 -53.5t-53.5 -20.5t-54.5 20.5t-21.5 53.5z" />
<glyph unicode="&#x1e85;" d="M23 983h96l157 -637q41 -166 60 -262h8l66 262l157 621h101l157 -621l66 -262h8q6 29 27.5 120t34.5 142l155 637h90l-250 -983h-116l-156 602q-8 31 -29.5 128t-36.5 153h-8q-51 -231 -65 -285l-152 -598h-117zM352 1309q0 37 22.5 61.5t57.5 24.5q37 0 59.5 -24.5 t22.5 -61.5t-22.5 -60.5t-59.5 -23.5q-35 0 -57.5 24.5t-22.5 59.5zM715 1308.5q0 34.5 23.5 60.5t58 26t57.5 -24.5t23 -61.5q0 -35 -23 -59.5t-57.5 -24.5t-58 24.5t-23.5 59z" />
<glyph unicode="&#x1e8e;" d="M104 1350h97l239 -447q35 -57 92.5 -165.5t81.5 -151.5h9q25 43 176 319l233 445h92l-462 -854v-496h-95v496zM532 1561q0 35 24 57t58.5 22t58 -22.5t23.5 -56.5q0 -37 -23.5 -60.5t-58 -23.5t-58.5 23.5t-24 60.5z" />
<glyph unicode="&#x1e8f;" d="M123 983h94l287 -618q100 -213 135 -277h8q0 2 115 277l256 618h88l-463 -1106q-49 -139 -146.5 -232.5t-240.5 -93.5q-72 0 -119 21l25 80q49 -16 96 -17q205 0 307 261l35 86zM524 1319q0 45 27 71.5t70 26.5q41 0 68.5 -27.5t27.5 -70.5t-27.5 -70.5t-68.5 -27.5 q-43 0 -70 26.5t-27 71.5z" />
<glyph unicode="&#x1e92;" d="M143 0v57l826 1215h-756v80h868v-58l-825 -1212h840v-82h-953zM543 -332q0 43 27.5 71t68.5 28t68.5 -28t27.5 -71q0 -45 -27.5 -71.5t-68.5 -26.5t-68.5 26.5t-27.5 71.5z" />
<glyph unicode="&#x1e93;" d="M147 0v49l771 856h-689v78h826v-47l-770 -856h792v-80h-930zM551 -332q0 43 27.5 71t68.5 28t68.5 -28t27.5 -71q0 -45 -27.5 -71.5t-68.5 -26.5t-68.5 26.5t-27.5 71.5z" />
<glyph unicode="&#x1e97;" d="M166 905v70l297 8l12 285h76v-285h522v-78h-522v-545q0 -154 59.5 -229.5t212.5 -75.5q143 0 262 51l25 -69q-147 -61 -299 -62q-190 0 -270 102t-80 292v536h-295zM274 1579q0 37 22.5 60.5t59.5 23.5q35 0 57.5 -24.5t22.5 -59.5q0 -37 -22.5 -61.5t-57.5 -24.5 q-37 0 -59.5 24.5t-22.5 61.5zM639 1579q0 35 22.5 59.5t57.5 24.5t58.5 -24.5t23.5 -59.5t-23.5 -60.5t-58.5 -25.5t-57.5 24.5t-22.5 61.5z" />
<glyph unicode="&#x1e9e;" d="M178 0v872q0 223 122 362.5t345 139.5q264 0 387 -282l-295 -349q414 -72 414 -401q0 -158 -100.5 -262.5t-253.5 -104.5q-215 0 -340 160l61 66q117 -141 277 -142q119 0 186.5 78t67.5 203q0 129 -88.5 212t-323.5 124l-6 72l293 348q-84 195 -283 194 q-174 0 -270.5 -109.5t-96.5 -334.5v-846h-96z" />
<glyph unicode="&#x1ea0;" d="M92 0l475 1350h95l475 -1350h-101l-155 463h-535l-160 -463h-94zM375 543h479l-86 252q-94 272 -150 467h-8q-35 -125 -149 -467zM518 -332q0 43 27.5 71t68.5 28t69 -28t28 -71q0 -45 -28 -71.5t-69 -26.5t-68.5 26.5t-27.5 71.5z" />
<glyph unicode="&#x1ea1;" d="M188 246q0 164 176.5 250t577.5 120q-4 311 -293 312q-182 0 -373 -133l-40 67q76 53 191.5 99.5t231.5 46.5q188 0 280.5 -104.5t92.5 -274.5v-629h-76l-10 147h-4q-219 -172 -412 -172q-143 0 -242.5 70t-99.5 201zM281 250q0 -98 77.5 -147.5t188.5 -49.5 q182 0 395 178v316q-365 -33 -513 -103.5t-148 -193.5zM516 -332q0 43 27.5 71t68.5 28q43 0 70 -27t27 -72t-27 -71.5t-70 -26.5q-41 0 -68.5 26.5t-27.5 71.5z" />
<glyph unicode="&#x1ea2;" d="M92 0l475 1350h95l475 -1350h-101l-155 463h-535l-160 -463h-94zM375 543h479l-86 252q-94 272 -150 467h-8q-35 -125 -149 -467zM504 1702l8 65q109 -4 178.5 -41.5t69.5 -109.5q0 -125 -195 -178l-16 55q129 39 129 111q0 92 -174 98z" />
<glyph unicode="&#x1ea3;" d="M188 246q0 164 176.5 250t577.5 120q-4 311 -293 312q-182 0 -373 -133l-40 67q76 53 191.5 99.5t231.5 46.5q188 0 280.5 -104.5t92.5 -274.5v-629h-76l-10 147h-4q-219 -172 -412 -172q-143 0 -242.5 70t-99.5 201zM281 250q0 -98 77.5 -147.5t188.5 -49.5 q182 0 395 178v316q-365 -33 -513 -103.5t-148 -193.5zM539 1393l8 65q246 -10 246 -153q0 -126 -193 -177l-16 54q129 39 129 112q0 92 -174 99z" />
<glyph unicode="&#x1ea4;" d="M92 0l475 1350h95l475 -1350h-101l-155 463h-535l-160 -463h-94zM375 543h479l-86 252q-94 272 -150 467h-8q-35 -125 -149 -467zM387 1452l186 205h82l187 -205h-80l-144 135h-8l-143 -135h-80zM776 1577l146 217h98l-176 -217h-68z" />
<glyph unicode="&#x1ea5;" d="M188 246q0 164 176.5 250t577.5 120q-4 311 -293 312q-182 0 -373 -133l-40 67q76 53 191.5 99.5t231.5 46.5q188 0 280.5 -104.5t92.5 -274.5v-629h-76l-10 147h-4q-219 -172 -412 -172q-143 0 -242.5 70t-99.5 201zM281 250q0 -98 77.5 -147.5t188.5 -49.5 q182 0 395 178v316q-365 -33 -513 -103.5t-148 -193.5zM438 1171l170 234h80l172 -234h-74l-133 160h-8l-135 -160h-72zM809 1305l158 227h94l-184 -227h-68z" />
<glyph unicode="&#x1ea6;" d="M92 0l475 1350h95l475 -1350h-101l-155 463h-535l-160 -463h-94zM375 543h479l-86 252q-94 272 -150 467h-8q-35 -125 -149 -467zM387 1452l186 205h82l187 -205h-80l-144 135h-8l-143 -135h-80zM682 1794h96l148 -217h-68z" />
<glyph unicode="&#x1ea7;" d="M188 246q0 164 176.5 250t577.5 120q-4 311 -293 312q-182 0 -373 -133l-40 67q76 53 191.5 99.5t231.5 46.5q188 0 280.5 -104.5t92.5 -274.5v-629h-76l-10 147h-4q-219 -172 -412 -172q-143 0 -242.5 70t-99.5 201zM281 250q0 -98 77.5 -147.5t188.5 -49.5 q182 0 395 178v316q-365 -33 -513 -103.5t-148 -193.5zM438 1171l170 234h80l172 -234h-74l-133 160h-8l-135 -160h-72zM750 1532h96l155 -227h-65z" />
<glyph unicode="&#x1ea8;" d="M92 0l475 1350h95l475 -1350h-101l-155 463h-535l-160 -463h-94zM375 543h479l-86 252q-94 272 -150 467h-8q-35 -125 -149 -467zM387 1452l186 205h82l187 -205h-80l-144 135h-8l-143 -135h-80zM758 1778l10 63q217 -10 217 -139q0 -113 -162 -152l-20 56q104 27 104 86 q0 45 -35.5 63.5t-113.5 22.5z" />
<glyph unicode="&#x1ea9;" d="M188 246q0 164 176.5 250t577.5 120q-4 311 -293 312q-182 0 -373 -133l-40 67q76 53 191.5 99.5t231.5 46.5q188 0 280.5 -104.5t92.5 -274.5v-629h-76l-10 147h-4q-219 -172 -412 -172q-143 0 -242.5 70t-99.5 201zM281 250q0 -98 77.5 -147.5t188.5 -49.5 q182 0 395 178v316q-365 -33 -513 -103.5t-148 -193.5zM438 1171l170 234h80l172 -234h-74l-133 160h-8l-135 -160h-72zM799 1526l6 59q217 -8 217 -143q0 -63 -44 -97t-118 -59l-18 51q102 35 102 95q0 88 -145 94z" />
<glyph unicode="&#x1eaa;" d="M92 0l475 1350h95l475 -1350h-101l-155 463h-535l-160 -463h-94zM365 1731q6 66 41.5 111.5t103.5 45.5q53 0 115.5 -46t95.5 -46q72 0 84 92h59q-6 -66 -42 -111.5t-103 -45.5q-53 0 -115.5 46t-95.5 46q-72 0 -84 -92h-59zM375 543h479l-86 252q-94 272 -150 467h-8 q-35 -125 -149 -467zM387 1452l186 205h82l187 -205h-80l-144 135h-8l-143 -135h-80z" />
<glyph unicode="&#x1eab;" d="M188 246q0 164 176.5 250t577.5 120q-4 311 -293 312q-182 0 -373 -133l-40 67q76 53 191.5 99.5t231.5 46.5q188 0 280.5 -104.5t92.5 -274.5v-629h-76l-10 147h-4q-219 -172 -412 -172q-143 0 -242.5 70t-99.5 201zM281 250q0 -98 77.5 -147.5t188.5 -49.5 q182 0 395 178v316q-365 -33 -513 -103.5t-148 -193.5zM399 1446q6 66 42 112t104 46q53 0 114.5 -46.5t94.5 -46.5q72 0 84 93h59q-6 -66 -42 -112t-103 -46q-53 0 -115 46t-94 46q-72 0 -84 -92h-60zM422 1167l184 205h84l187 -205h-74l-150 142h-8l-149 -142h-74z" />
<glyph unicode="&#x1eac;" d="M92 0l475 1350h95l475 -1350h-101l-155 463h-535l-160 -463h-94zM375 543h479l-86 252q-94 272 -150 467h-8q-35 -125 -149 -467zM375 1452l196 217h86l197 -217h-82l-154 147h-8l-153 -147h-82zM518 -332q0 43 27.5 71t68.5 28t69 -28t28 -71q0 -45 -28 -71.5t-69 -26.5 t-68.5 26.5t-27.5 71.5z" />
<glyph unicode="&#x1ead;" d="M188 246q0 164 176.5 250t577.5 120q-4 311 -293 312q-182 0 -373 -133l-40 67q76 53 191.5 99.5t231.5 46.5q188 0 280.5 -104.5t92.5 -274.5v-629h-76l-10 147h-4q-219 -172 -412 -172q-143 0 -242.5 70t-99.5 201zM281 250q0 -98 77.5 -147.5t188.5 -49.5 q182 0 395 178v316q-365 -33 -513 -103.5t-148 -193.5zM414 1171l194 283h82l193 -283h-76l-154 207h-8l-153 -207h-78zM516 -332q0 43 27.5 71t68.5 28q43 0 70 -27t27 -72t-27 -71.5t-70 -26.5q-41 0 -68.5 26.5t-27.5 71.5z" />
<glyph unicode="&#x1eae;" d="M92 0l475 1350h95l475 -1350h-101l-155 463h-535l-160 -463h-94zM375 543h479l-86 252q-94 272 -150 467h-8q-35 -125 -149 -467zM383 1661h63q33 -141 168 -141t168 141h64q-10 -80 -69.5 -142.5t-162 -62.5t-162 62.5t-69.5 142.5zM543 1636l162 199h100l-195 -199h-67 z" />
<glyph unicode="&#x1eaf;" d="M188 246q0 164 176.5 250t577.5 120q-4 311 -293 312q-182 0 -373 -133l-40 67q76 53 191.5 99.5t231.5 46.5q188 0 280.5 -104.5t92.5 -274.5v-629h-76l-10 147h-4q-219 -172 -412 -172q-143 0 -242.5 70t-99.5 201zM281 250q0 -98 77.5 -147.5t188.5 -49.5 q182 0 395 178v316q-365 -33 -513 -103.5t-148 -193.5zM406 1423h63q10 -76 56 -128t124 -52t124 52.5t56 127.5h64q-10 -96 -70.5 -169.5t-173.5 -73.5q-115 0 -173 73.5t-70 169.5zM584 1366l151 225h94l-178 -225h-67z" />
<glyph unicode="&#x1eb0;" d="M92 0l475 1350h95l475 -1350h-101l-155 463h-535l-160 -463h-94zM375 543h479l-86 252q-94 272 -150 467h-8q-35 -125 -149 -467zM383 1661h63q33 -141 168 -141t168 141h64q-10 -80 -69.5 -142.5t-162 -62.5t-162 62.5t-69.5 142.5zM424 1835h100l162 -199h-68z" />
<glyph unicode="&#x1eb1;" d="M188 246q0 164 176.5 250t577.5 120q-4 311 -293 312q-182 0 -373 -133l-40 67q76 53 191.5 99.5t231.5 46.5q188 0 280.5 -104.5t92.5 -274.5v-629h-76l-10 147h-4q-219 -172 -412 -172q-143 0 -242.5 70t-99.5 201zM281 250q0 -98 77.5 -147.5t188.5 -49.5 q182 0 395 178v316q-365 -33 -513 -103.5t-148 -193.5zM406 1423h63q10 -76 56 -128t124 -52t124 52.5t56 127.5h64q-10 -96 -70.5 -169.5t-173.5 -73.5q-115 0 -173 73.5t-70 169.5zM469 1591h94l152 -225h-70z" />
<glyph unicode="&#x1eb2;" d="M92 0l475 1350h95l475 -1350h-101l-155 463h-535l-160 -463h-94zM375 543h479l-86 252q-94 272 -150 467h-8q-35 -125 -149 -467zM383 1661h63q33 -141 168 -141t168 141h64q-10 -80 -69.5 -142.5t-162 -62.5t-162 62.5t-69.5 142.5zM514 1862l10 61q217 -8 217 -139 q1 -109 -161 -152l-21 56q104 31 105 86q0 45 -36 64.5t-114 23.5z" />
<glyph unicode="&#x1eb3;" d="M188 246q0 164 176.5 250t577.5 120q-4 311 -293 312q-182 0 -373 -133l-40 67q76 53 191.5 99.5t231.5 46.5q188 0 280.5 -104.5t92.5 -274.5v-629h-76l-10 147h-4q-219 -172 -412 -172q-143 0 -242.5 70t-99.5 201zM281 250q0 -98 77.5 -147.5t188.5 -49.5 q182 0 395 178v316q-365 -33 -513 -103.5t-148 -193.5zM406 1423h63q10 -76 56 -128t124 -52t124 52.5t56 127.5h64q-10 -96 -70.5 -169.5t-173.5 -73.5q-115 0 -173 73.5t-70 169.5zM543 1622l6 59q217 -8 217 -141q0 -66 -44 -100.5t-118 -57.5l-16 54q100 33 100 92 q0 88 -145 94z" />
<glyph unicode="&#x1eb4;" d="M92 0l475 1350h95l475 -1350h-101l-155 463h-535l-160 -463h-94zM365 1726q6 68 41.5 117t103.5 49q51 0 113.5 -50t95.5 -50q70 0 86 100h59q-6 -66 -43 -116t-102 -50q-53 0 -115.5 50.5t-95.5 50.5q-70 0 -84 -101h-59zM375 543h479l-86 252q-94 272 -150 467h-8 q-35 -125 -149 -467zM383 1661h63q33 -141 168.5 -141t167.5 141h64q-10 -80 -69.5 -142.5t-162 -62.5t-162 62.5t-69.5 142.5z" />
<glyph unicode="&#x1eb5;" d="M188 246q0 164 176.5 250t577.5 120q-4 311 -293 312q-182 0 -373 -133l-40 67q76 53 191.5 99.5t231.5 46.5q188 0 280.5 -104.5t92.5 -274.5v-629h-76l-10 147h-4q-219 -172 -412 -172q-143 0 -242.5 70t-99.5 201zM281 250q0 -98 77.5 -147.5t188.5 -49.5 q182 0 395 178v316q-365 -33 -513 -103.5t-148 -193.5zM399 1446q6 66 42 112t104 46q53 0 114.5 -46.5t94.5 -46.5q72 0 84 93h59q-6 -66 -42 -112t-103 -46q-53 0 -115 46t-94 46q-72 0 -84 -92h-60zM410 1382h63q10 -59 55 -99t121 -40t121 40t55 99h64 q-10 -84 -67.5 -143t-172 -59t-173 59t-66.5 143z" />
<glyph unicode="&#x1eb6;" d="M92 0l475 1350h95l475 -1350h-101l-155 463h-535l-160 -463h-94zM375 543h479l-86 252q-94 272 -150 467h-8q-35 -125 -149 -467zM379 1669h67q10 -61 52.5 -104t116 -43t115.5 43t52 104h68q-10 -84 -69.5 -148.5t-166 -64.5t-166 64.5t-69.5 148.5zM518 -332 q0 43 27.5 71t68.5 28t69 -28t28 -71q0 -45 -28 -71.5t-69 -26.5t-68.5 26.5t-27.5 71.5z" />
<glyph unicode="&#x1eb7;" d="M188 246q0 164 176.5 250t577.5 120q-4 311 -293 312q-182 0 -373 -133l-40 67q76 53 191.5 99.5t231.5 46.5q188 0 280.5 -104.5t92.5 -274.5v-629h-76l-10 147h-4q-219 -172 -412 -172q-143 0 -242.5 70t-99.5 201zM281 250q0 -98 77.5 -147.5t188.5 -49.5 q182 0 395 178v316q-365 -33 -513 -103.5t-148 -193.5zM403 1427h68q10 -76 55 -129t123 -53t123 53.5t55 128.5h68q-10 -96 -70.5 -171.5t-175 -75.5t-174 74.5t-72.5 172.5zM516 -332q0 43 27.5 71t68.5 28q43 0 70 -27t27 -72t-27 -71.5t-70 -26.5q-41 0 -68.5 26.5 t-27.5 71.5z" />
<glyph unicode="&#x1eb8;" d="M260 0v1350h799v-82h-705v-510h594v-82h-594v-594h725v-82h-819zM598 -332q0 43 27.5 71t68.5 28q43 0 70 -27t27 -72t-27 -71.5t-70 -26.5q-41 0 -68.5 26.5t-27.5 71.5z" />
<glyph unicode="&#x1eb9;" d="M158 489q0 231 147.5 375t343.5 144q203 0 322 -122t119 -333q0 -49 -5 -74h-833q4 -188 123 -307t309 -119q174 0 328 107l37 -70q-180 -115 -373 -115q-219 0 -368.5 140.5t-149.5 373.5zM252 549h749q0 184 -94 282.5t-256 98.5q-152 0 -266.5 -104.5t-132.5 -276.5z M551 -332q0 45 27.5 72t68.5 27t68.5 -28t27.5 -71q0 -45 -27.5 -71.5t-68.5 -26.5q-43 0 -69.5 26.5t-26.5 71.5z" />
<glyph unicode="&#x1eba;" d="M260 0v1350h799v-82h-705v-510h594v-82h-594v-594h725v-82h-819zM578 1702l8 65q109 -4 178.5 -41.5t69.5 -109.5q0 -125 -195 -178l-16 55q129 39 129 111q0 92 -174 98z" />
<glyph unicode="&#x1ebb;" d="M158 489q0 231 147.5 375t343.5 144q203 0 322 -122t119 -333q0 -49 -5 -74h-833q4 -188 123 -307t309 -119q174 0 328 107l37 -70q-180 -115 -373 -115q-219 0 -368.5 140.5t-149.5 373.5zM252 549h749q0 184 -94 282.5t-256 98.5q-152 0 -266.5 -104.5t-132.5 -276.5z M537 1393l8 65q246 -10 246 -153q0 -126 -193 -177l-16 54q129 39 129 112q0 92 -174 99z" />
<glyph unicode="&#x1ebc;" d="M260 0v1350h799v-82h-705v-510h594v-82h-594v-594h725v-82h-819zM422 1466q4 76 42 132.5t103 56.5q57 0 131 -57.5t113 -57.5q33 0 55.5 31t28.5 84h59q-6 -76 -44 -132.5t-101 -56.5q-57 0 -131 58.5t-113 58.5q-33 0 -55.5 -31.5t-28.5 -85.5h-59z" />
<glyph unicode="&#x1ebd;" d="M158 489q0 231 147.5 375t343.5 144q203 0 322 -122t119 -333q0 -49 -5 -74h-833q4 -188 123 -307t309 -119q174 0 328 107l37 -70q-180 -115 -373 -115q-219 0 -368.5 140.5t-149.5 373.5zM252 549h749q0 184 -94 282.5t-256 98.5q-152 0 -266.5 -104.5t-132.5 -276.5z M391 1190q6 78 41 131t105 53q53 0 122.5 -57t100.5 -57q63 0 80 114h61q-6 -76 -41 -130t-102 -54q-53 0 -123 57.5t-103 57.5q-63 0 -79 -115h-62z" />
<glyph unicode="&#x1ebe;" d="M260 0v1350h799v-82h-705v-510h594v-82h-594v-594h725v-82h-819zM461 1452l186 205h82l186 -205h-79l-144 135h-8l-143 -135h-80zM850 1577l145 217h99l-176 -217h-68z" />
<glyph unicode="&#x1ebf;" d="M158 489q0 231 147.5 375t343.5 144q203 0 322 -122t119 -333q0 -49 -5 -74h-833q4 -188 123 -307t309 -119q174 0 328 107l37 -70q-180 -115 -373 -115q-219 0 -368.5 140.5t-149.5 373.5zM252 549h749q0 184 -94 282.5t-256 98.5q-152 0 -266.5 -104.5t-132.5 -276.5z M436 1171l170 234h80l172 -234h-74l-133 160h-8l-135 -160h-72zM807 1305l156 227h96l-187 -227h-65z" />
<glyph unicode="&#x1ec0;" d="M260 0v1350h799v-82h-705v-510h594v-82h-594v-594h725v-82h-819zM461 1452l186 205h82l186 -205h-79l-144 135h-8l-143 -135h-80zM756 1794h96l147 -217h-67z" />
<glyph unicode="&#x1ec1;" d="M158 489q0 231 147.5 375t343.5 144q203 0 322 -122t119 -333q0 -49 -5 -74h-833q4 -188 123 -307t309 -119q174 0 328 107l37 -70q-180 -115 -373 -115q-219 0 -368.5 140.5t-149.5 373.5zM252 549h749q0 184 -94 282.5t-256 98.5q-152 0 -266.5 -104.5t-132.5 -276.5z M436 1171l170 234h80l172 -234h-74l-133 160h-8l-135 -160h-72zM748 1532h94l157 -227h-67z" />
<glyph unicode="&#x1ec2;" d="M260 0v1350h799v-82h-705v-510h594v-82h-594v-594h725v-82h-819zM461 1452l186 205h82l186 -205h-79l-144 135h-8l-143 -135h-80zM831 1778l11 63q217 -10 217 -139q0 -113 -162 -152l-20 56q104 27 104 86q0 45 -36 63.5t-114 22.5z" />
<glyph unicode="&#x1ec3;" d="M158 489q0 231 147.5 375t343.5 144q203 0 322 -122t119 -333q0 -49 -5 -74h-833q4 -188 123 -307t309 -119q174 0 328 107l37 -70q-180 -115 -373 -115q-219 0 -368.5 140.5t-149.5 373.5zM252 549h749q0 184 -94 282.5t-256 98.5q-152 0 -266.5 -104.5t-132.5 -276.5z M436 1171l170 234h80l172 -234h-74l-133 160h-8l-135 -160h-72zM795 1526l8 59q217 -8 217 -143q0 -105 -164 -156l-16 51q102 35 102 95q0 88 -147 94z" />
<glyph unicode="&#x1ec4;" d="M260 0v1350h799v-82h-705v-510h594v-82h-594v-594h725v-82h-819zM438 1731q6 66 42 111.5t104 45.5q53 0 115.5 -46t95.5 -46q72 0 84 92h59q-6 -66 -42 -111.5t-103 -45.5q-53 0 -116 46t-95 46q-72 0 -84 -92h-60zM461 1452l186 205h82l186 -205h-79l-144 135h-8 l-143 -135h-80z" />
<glyph unicode="&#x1ec5;" d="M158 489q0 231 147.5 375t343.5 144q203 0 322 -122t119 -333q0 -49 -5 -74h-833q4 -188 123 -307t309 -119q174 0 328 107l37 -70q-180 -115 -373 -115q-219 0 -368.5 140.5t-149.5 373.5zM252 549h749q0 184 -94 282.5t-256 98.5q-152 0 -266.5 -104.5t-132.5 -276.5z M397 1446q6 66 42 112t104 46q53 0 114.5 -46.5t94.5 -46.5q72 0 84 93h59q-6 -66 -42 -112t-103 -46q-53 0 -115 46t-94 46q-72 0 -84 -92h-60zM420 1167l184 205h84l186 -205h-75l-148 142h-8l-149 -142h-74z" />
<glyph unicode="&#x1ec6;" d="M260 0v1350h799v-82h-705v-510h594v-82h-594v-594h725v-82h-819zM449 1452l196 217h86l197 -217h-82l-154 147h-8l-154 -147h-81zM598 -332q0 43 27.5 71t68.5 28q43 0 70 -27t27 -72t-27 -71.5t-70 -26.5q-41 0 -68.5 26.5t-27.5 71.5z" />
<glyph unicode="&#x1ec7;" d="M158 489q0 231 147.5 375t343.5 144q203 0 322 -122t119 -333q0 -49 -5 -74h-833q4 -188 123 -307t309 -119q174 0 328 107l37 -70q-180 -115 -373 -115q-219 0 -368.5 140.5t-149.5 373.5zM252 549h749q0 184 -94 282.5t-256 98.5q-152 0 -266.5 -104.5t-132.5 -276.5z M412 1171l194 283h80l195 -283h-76l-154 207h-8l-154 -207h-77zM551 -332q0 45 27.5 72t68.5 27t68.5 -28t27.5 -71q0 -45 -27.5 -71.5t-68.5 -26.5q-43 0 -69.5 26.5t-26.5 71.5z" />
<glyph unicode="&#x1ec8;" d="M219 0v82h348v1186h-348v82h791v-82h-348v-1186h348v-82h-791zM504 1702l8 65q109 -4 178.5 -41.5t69.5 -109.5q0 -125 -195 -178l-16 55q129 39 129 111q0 92 -174 98z" />
<glyph unicode="&#x1ec9;" d="M199 905v78h583v-983h-90v905h-493zM606 1393l6 65q248 -12 248 -153q1 -126 -192 -177l-19 54q131 39 131 112q0 92 -174 99z" />
<glyph unicode="&#x1eca;" d="M219 0v82h348v1186h-348v82h791v-82h-348v-1186h348v-82h-791zM520 -332q0 43 27.5 71t68.5 28t69 -28t28 -71q0 -45 -28 -71.5t-69 -26.5t-68.5 26.5t-27.5 71.5z" />
<glyph unicode="&#x1ecb;" d="M199 905v78h583v-983h-90v905h-493zM618 -332q0 43 28 71t69 28q43 0 69.5 -27t26.5 -72t-26.5 -71.5t-69.5 -26.5q-41 0 -69 26.5t-28 71.5zM618 1319q0 43 28 70.5t69 27.5q43 0 69.5 -26.5t26.5 -71.5t-26.5 -71.5t-69.5 -26.5q-41 0 -69 27.5t-28 70.5z" />
<glyph unicode="&#x1ecc;" d="M111 680q0 315 140 504.5t363.5 189.5t363.5 -189.5t140 -504.5q0 -317 -140 -511t-363.5 -194t-363.5 193.5t-140 511.5zM209 680q0 -281 111.5 -450t294 -169t294 169t111.5 450q0 279 -111.5 443.5t-294 164.5t-294 -165t-111.5 -443zM518 -332q0 43 27.5 71t68.5 28 t69 -28t28 -71q0 -45 -28 -71.5t-69 -26.5t-68.5 26.5t-27.5 71.5z" />
<glyph unicode="&#x1ecd;" d="M137 489q0 240 137.5 379.5t340 139.5t340 -139.5t137.5 -379.5q0 -236 -138.5 -375t-339 -139t-339 139t-138.5 375zM233 489q0 -193 108 -313.5t273.5 -120.5t273 121t107.5 313q0 195 -107.5 317t-273 122t-273.5 -122t-108 -317zM520 -332q0 43 27.5 71t68.5 28 t69 -28t28 -71q0 -45 -28 -71.5t-69 -26.5t-68.5 26.5t-27.5 71.5z" />
<glyph unicode="&#x1ece;" d="M111 680q0 315 140 504.5t363.5 189.5t363.5 -189.5t140 -504.5q0 -317 -140 -511t-363.5 -194t-363.5 193.5t-140 511.5zM209 680q0 -281 111.5 -450t294 -169t294 169t111.5 450q0 279 -111.5 443.5t-294 164.5t-294 -165t-111.5 -443zM504 1702l8 65 q109 -4 178.5 -41.5t69.5 -109.5q0 -125 -195 -178l-16 55q129 39 129 111q0 92 -174 98z" />
<glyph unicode="&#x1ecf;" d="M137 489q0 240 137.5 379.5t340 139.5t340 -139.5t137.5 -379.5q0 -236 -138.5 -375t-339 -139t-339 139t-138.5 375zM233 489q0 -193 108 -313.5t273.5 -120.5t273 121t107.5 313q0 195 -107.5 317t-273 122t-273.5 -122t-108 -317zM504 1393l8 65q248 -12 248 -153 q0 -72 -53.5 -112t-141.5 -65l-16 54q129 39 129 112q0 92 -174 99z" />
<glyph unicode="&#x1ed0;" d="M111 680q0 315 140 504.5t363.5 189.5t363.5 -189.5t140 -504.5q0 -317 -140 -511t-363.5 -194t-363.5 193.5t-140 511.5zM209 680q0 -281 111.5 -450t294 -169t294 169t111.5 450q0 279 -111.5 443.5t-294 164.5t-294 -165t-111.5 -443zM387 1452l186 205h82l187 -205 h-80l-144 135h-8l-143 -135h-80zM776 1577l146 217h98l-176 -217h-68z" />
<glyph unicode="&#x1ed1;" d="M137 489q0 240 137.5 379.5t340 139.5t340 -139.5t137.5 -379.5q0 -236 -138.5 -375t-339 -139t-339 139t-138.5 375zM233 489q0 -193 108 -313.5t273.5 -120.5t273 121t107.5 313q0 195 -107.5 317t-273 122t-273.5 -122t-108 -317zM403 1171l172 234h78l172 -234h-73 l-134 160h-8l-133 -160h-74zM774 1305l158 227h94l-184 -227h-68z" />
<glyph unicode="&#x1ed2;" d="M111 680q0 315 140 504.5t363.5 189.5t363.5 -189.5t140 -504.5q0 -317 -140 -511t-363.5 -194t-363.5 193.5t-140 511.5zM209 680q0 -281 111.5 -450t294 -169t294 169t111.5 450q0 279 -111.5 443.5t-294 164.5t-294 -165t-111.5 -443zM387 1452l186 205h82l187 -205 h-80l-144 135h-8l-143 -135h-80zM682 1794h96l148 -217h-68z" />
<glyph unicode="&#x1ed3;" d="M137 489q0 240 137.5 379.5t340 139.5t340 -139.5t137.5 -379.5q0 -236 -138.5 -375t-339 -139t-339 139t-138.5 375zM233 489q0 -193 108 -313.5t273.5 -120.5t273 121t107.5 313q0 195 -107.5 317t-273 122t-273.5 -122t-108 -317zM403 1171l172 234h78l172 -234h-73 l-134 160h-8l-133 -160h-74zM715 1532h96l158 -227h-68z" />
<glyph unicode="&#x1ed4;" d="M111 680q0 315 140 504.5t363.5 189.5t363.5 -189.5t140 -504.5q0 -317 -140 -511t-363.5 -194t-363.5 193.5t-140 511.5zM209 680q0 -281 111.5 -450t294 -169t294 169t111.5 450q0 279 -111.5 443.5t-294 164.5t-294 -165t-111.5 -443zM387 1452l186 205h82l187 -205 h-80l-144 135h-8l-143 -135h-80zM758 1778l10 63q217 -10 217 -139q0 -113 -162 -152l-20 56q104 27 104 86q0 45 -35.5 63.5t-113.5 22.5z" />
<glyph unicode="&#x1ed5;" d="M137 489q0 240 137.5 379.5t340 139.5t340 -139.5t137.5 -379.5q0 -236 -138.5 -375t-339 -139t-339 139t-138.5 375zM233 489q0 -193 108 -313.5t273.5 -120.5t273 121t107.5 313q0 195 -107.5 317t-273 122t-273.5 -122t-108 -317zM403 1171l172 234h78l172 -234h-73 l-134 160h-8l-133 -160h-74zM764 1526l6 59q217 -8 217 -143q0 -63 -44 -97t-118 -59l-16 51q100 35 100 95q0 88 -145 94z" />
<glyph unicode="&#x1ed6;" d="M111 680q0 315 140 504.5t363.5 189.5t363.5 -189.5t140 -504.5q0 -317 -140 -511t-363.5 -194t-363.5 193.5t-140 511.5zM209 680q0 -281 111.5 -450t294 -169t294 169t111.5 450q0 279 -111.5 443.5t-294 164.5t-294 -165t-111.5 -443zM365 1731q6 66 41.5 111.5 t103.5 45.5q53 0 115.5 -46t95.5 -46q72 0 84 92h59q-6 -66 -42 -111.5t-103 -45.5q-53 0 -115.5 46t-95.5 46q-72 0 -84 -92h-59zM387 1452l186 205h82l187 -205h-80l-144 135h-8l-143 -135h-80z" />
<glyph unicode="&#x1ed7;" d="M137 489q0 240 137.5 379.5t340 139.5t340 -139.5t137.5 -379.5q0 -236 -138.5 -375t-339 -139t-339 139t-138.5 375zM233 489q0 -193 108 -313.5t273.5 -120.5t273 121t107.5 313q0 195 -107.5 317t-273 122t-273.5 -122t-108 -317zM367 1446q4 66 40.5 112t102.5 46 q53 0 114.5 -46.5t94.5 -46.5q72 0 86 93h57q-4 -66 -41 -112t-102 -46q-53 0 -114.5 46t-94.5 46q-72 0 -86 -92h-57zM387 1167l186 205h82l187 -205h-74l-150 142h-8l-149 -142h-74z" />
<glyph unicode="&#x1ed8;" d="M111 680q0 315 140 504.5t363.5 189.5t363.5 -189.5t140 -504.5q0 -317 -140 -511t-363.5 -194t-363.5 193.5t-140 511.5zM209 680q0 -281 111.5 -450t294 -169t294 169t111.5 450q0 279 -111.5 443.5t-294 164.5t-294 -165t-111.5 -443zM375 1452l196 217h86l197 -217 h-82l-154 147h-8l-153 -147h-82zM518 -332q0 43 27.5 71t68.5 28t69 -28t28 -71q0 -45 -28 -71.5t-69 -26.5t-68.5 26.5t-27.5 71.5z" />
<glyph unicode="&#x1ed9;" d="M137 489q0 240 137.5 379.5t340 139.5t340 -139.5t137.5 -379.5q0 -236 -138.5 -375t-339 -139t-339 139t-138.5 375zM233 489q0 -193 108 -313.5t273.5 -120.5t273 121t107.5 313q0 195 -107.5 317t-273 122t-273.5 -122t-108 -317zM379 1171l194 283h82l195 -283h-78 l-154 207h-8l-153 -207h-78zM518 -332q0 43 27.5 71t68.5 28t69 -28t28 -71q0 -45 -28 -71.5t-69 -26.5t-68.5 26.5t-27.5 71.5z" />
<glyph unicode="&#x1eda;" d="M111 680q0 315 140 504.5t363 189.5q127 0 232 -63q184 25 184 139q0 35 -29 80l72 39q39 -59 39 -113q0 -154 -199 -199q205 -188 205 -577q0 -317 -140 -511t-363.5 -194t-363.5 193.5t-140 511.5zM209 680q0 -281 111.5 -450t294 -169t294 169t111.5 450 q0 279 -111.5 443.5t-294 164.5t-294 -165t-111.5 -443zM539 1452l188 217h119l-225 -217h-82z" />
<glyph unicode="&#x1edb;" d="M137 489q0 240 137.5 379.5t339.5 139.5q113 0 211 -47q195 25 195 143q0 43 -29 80l72 41q39 -57 39 -115q0 -147 -199 -197q188 -145 189 -424q0 -236 -138.5 -375t-339 -139t-339 139.5t-138.5 374.5zM233 489q0 -193 108 -313.5t273.5 -120.5t273 121t107.5 313 q0 195 -107.5 317t-273 122t-273.5 -122t-108 -317zM500 1171l188 283h109l-219 -283h-78z" />
<glyph unicode="&#x1edc;" d="M111 680q0 315 140 504.5t363 189.5q127 0 232 -63q184 25 184 139q0 35 -29 80l72 39q39 -59 39 -113q0 -154 -199 -199q205 -188 205 -577q0 -317 -140 -511t-363.5 -194t-363.5 193.5t-140 511.5zM209 680q0 -281 111.5 -450t294 -169t294 169t111.5 450 q0 279 -111.5 443.5t-294 164.5t-294 -165t-111.5 -443zM383 1669h119l188 -217h-82z" />
<glyph unicode="&#x1edd;" d="M137 489q0 240 137.5 379.5t339.5 139.5q113 0 211 -47q195 25 195 143q0 43 -29 80l72 41q39 -57 39 -115q0 -147 -199 -197q188 -145 189 -424q0 -236 -138.5 -375t-339 -139t-339 139.5t-138.5 374.5zM233 489q0 -193 108 -313.5t273.5 -120.5t273 121t107.5 313 q0 195 -107.5 317t-273 122t-273.5 -122t-108 -317zM432 1454h109l188 -283h-78z" />
<glyph unicode="&#x1ede;" d="M111 680q0 315 140 504.5t363 189.5q127 0 232 -63q184 25 184 139q0 35 -29 80l72 39q39 -59 39 -113q0 -154 -199 -199q205 -188 205 -577q0 -317 -140 -511t-363.5 -194t-363.5 193.5t-140 511.5zM209 680q0 -281 111.5 -450t294 -169t294 169t111.5 450 q0 279 -111.5 443.5t-294 164.5t-294 -165t-111.5 -443zM504 1702l8 65q109 -4 178.5 -41.5t69.5 -109.5q0 -125 -195 -178l-16 55q129 39 129 111q0 92 -174 98z" />
<glyph unicode="&#x1edf;" d="M137 489q0 240 137.5 379.5t339.5 139.5q113 0 211 -47q195 25 195 143q0 43 -29 80l72 41q39 -57 39 -115q0 -147 -199 -197q188 -145 189 -424q0 -236 -138.5 -375t-339 -139t-339 139.5t-138.5 374.5zM233 489q0 -193 108 -313.5t273.5 -120.5t273 121t107.5 313 q0 195 -107.5 317t-273 122t-273.5 -122t-108 -317zM504 1393l8 65q248 -12 248 -153q0 -72 -53.5 -112t-141.5 -65l-16 54q129 39 129 112q0 92 -174 99z" />
<glyph unicode="&#x1ee0;" d="M111 680q0 315 140 504.5t363 189.5q127 0 232 -63q184 25 184 139q0 35 -29 80l72 39q39 -59 39 -113q0 -154 -199 -199q205 -188 205 -577q0 -317 -140 -511t-363.5 -194t-363.5 193.5t-140 511.5zM209 680q0 -281 111.5 -450t294 -169t294 169t111.5 450 q0 279 -111.5 443.5t-294 164.5t-294 -165t-111.5 -443zM348 1466q4 76 42 132.5t104 56.5q57 0 130.5 -57.5t112.5 -57.5q33 0 55.5 31t28.5 84h60q-6 -76 -44 -132.5t-102 -56.5q-57 0 -131 58.5t-112 58.5q-33 0 -55.5 -31.5t-28.5 -85.5h-60z" />
<glyph unicode="&#x1ee1;" d="M137 489q0 240 137.5 379.5t339.5 139.5q113 0 211 -47q195 25 195 143q0 43 -29 80l72 41q39 -57 39 -115q0 -147 -199 -197q188 -145 189 -424q0 -236 -138.5 -375t-339 -139t-339 139.5t-138.5 374.5zM233 489q0 -193 108 -313.5t273.5 -120.5t273 121t107.5 313 q0 195 -107.5 317t-273 122t-273.5 -122t-108 -317zM360 1190q6 78 40 131t104 53q53 0 123.5 -57t101.5 -57q66 -1 78 114h61q-6 -78 -39.5 -131t-103.5 -53q-53 0 -123 57.5t-102 57.5q-66 0 -78 -115h-62z" />
<glyph unicode="&#x1ee2;" d="M111 680q0 315 140 504.5t363 189.5q127 0 232 -63q184 25 184 139q0 35 -29 80l72 39q39 -59 39 -113q0 -154 -199 -199q205 -188 205 -577q0 -317 -140 -511t-363.5 -194t-363.5 193.5t-140 511.5zM209 680q0 -281 111.5 -450t294 -169t294 169t111.5 450 q0 279 -111.5 443.5t-294 164.5t-294 -165t-111.5 -443zM518 -332q0 43 27.5 71t68.5 28t69 -28t28 -71q0 -45 -28 -71.5t-69 -26.5t-68.5 26.5t-27.5 71.5z" />
<glyph unicode="&#x1ee3;" d="M137 489q0 240 137.5 379.5t339.5 139.5q113 0 211 -47q195 25 195 143q0 43 -29 80l72 41q39 -57 39 -115q0 -147 -199 -197q188 -145 189 -424q0 -236 -138.5 -375t-339 -139t-339 139.5t-138.5 374.5zM233 489q0 -193 108 -313.5t273.5 -120.5t273 121t107.5 313 q0 195 -107.5 317t-273 122t-273.5 -122t-108 -317zM520 -332q0 43 27.5 71t68.5 28t69 -28t28 -71q0 -45 -28 -71.5t-69 -26.5t-68.5 26.5t-27.5 71.5z" />
<glyph unicode="&#x1ee4;" d="M182 506v844h94v-834q0 -244 93.5 -349.5t244.5 -105.5q154 0 249 105.5t95 349.5v834h89v-844q0 -285 -120 -408t-313 -123q-190 0 -311 123t-121 408zM518 -332q0 43 27.5 71t68.5 28t69 -28t28 -71q0 -45 -28 -71.5t-69 -26.5t-68.5 26.5t-27.5 71.5z" />
<glyph unicode="&#x1ee5;" d="M178 371v612h90v-600q0 -166 66.5 -246t210.5 -80q102 0 187 52.5t190 171.5v702h90v-983h-76l-10 190h-8q-184 -215 -388 -215q-180 0 -266 97.5t-86 298.5zM563 -332q0 45 27.5 72t68.5 27t69 -28t28 -71q0 -45 -28 -71.5t-69 -26.5q-43 0 -69.5 26.5t-26.5 71.5z" />
<glyph unicode="&#x1ee6;" d="M182 506v844h94v-834q0 -244 93.5 -349.5t244.5 -105.5q154 0 249 105.5t95 349.5v834h89v-844q0 -285 -120 -408t-313 -123q-190 0 -311 123t-121 408zM504 1702l8 65q109 -4 178.5 -41.5t69.5 -109.5q0 -125 -195 -178l-16 55q129 39 129 111q0 92 -174 98z" />
<glyph unicode="&#x1ee7;" d="M178 371v612h90v-600q0 -166 66.5 -246t210.5 -80q102 0 187 52.5t190 171.5v702h90v-983h-76l-10 190h-8q-184 -215 -388 -215q-180 0 -266 97.5t-86 298.5zM492 1393l8 65q248 -12 248 -153q0 -124 -193 -177l-18 54q131 39 131 112q0 92 -176 99z" />
<glyph unicode="&#x1ee8;" d="M182 506v844h94v-834q0 -244 93.5 -349.5t244.5 -105.5q154 0 249 105.5t95 349.5v834h29q96 14 140 47t44 94q1 39 -28 80l71 39q41 -57 41 -113q0 -154 -208 -201v-790q0 -285 -120 -408t-313 -123q-190 0 -311 123t-121 408zM539 1452l188 217h119l-225 -217h-82z" />
<glyph unicode="&#x1ee9;" d="M178 371v612h90v-600q0 -166 66.5 -246t210.5 -80q102 0 187 52.5t190 171.5v702h16q174 23 174 141q0 43 -29 80l72 41q39 -59 39 -115q0 -145 -182 -194v-936h-76l-10 190h-8q-184 -215 -388 -215q-180 0 -266 97.5t-86 298.5zM489 1171l187 283h110l-221 -283h-76z " />
<glyph unicode="&#x1eea;" d="M182 506v844h94v-834q0 -244 93.5 -349.5t244.5 -105.5q154 0 249 105.5t95 349.5v834h29q96 14 140 47t44 94q1 39 -28 80l71 39q41 -57 41 -113q0 -154 -208 -201v-790q0 -285 -120 -408t-313 -123q-190 0 -311 123t-121 408zM383 1669h119l188 -217h-82z" />
<glyph unicode="&#x1eeb;" d="M178 371v612h90v-600q0 -166 66.5 -246t210.5 -80q102 0 187 52.5t190 171.5v702h16q174 23 174 141q0 43 -29 80l72 41q39 -59 39 -115q0 -145 -182 -194v-936h-76l-10 190h-8q-184 -215 -388 -215q-180 0 -266 97.5t-86 298.5zM420 1454h108l189 -283h-78z" />
<glyph unicode="&#x1eec;" d="M182 506v844h94v-834q0 -244 93.5 -349.5t244.5 -105.5q154 0 249 105.5t95 349.5v834h29q96 14 140 47t44 94q1 39 -28 80l71 39q41 -57 41 -113q0 -154 -208 -201v-790q0 -285 -120 -408t-313 -123q-190 0 -311 123t-121 408zM504 1702l8 65q109 -4 178.5 -41.5 t69.5 -109.5q0 -125 -195 -178l-16 55q129 39 129 111q0 92 -174 98z" />
<glyph unicode="&#x1eed;" d="M178 371v612h90v-600q0 -166 66.5 -246t210.5 -80q102 0 187 52.5t190 171.5v702h16q174 23 174 141q0 43 -29 80l72 41q39 -59 39 -115q0 -145 -182 -194v-936h-76l-10 190h-8q-184 -215 -388 -215q-180 0 -266 97.5t-86 298.5zM492 1393l8 65q248 -12 248 -153 q0 -124 -193 -177l-18 54q131 39 131 112q0 92 -176 99z" />
<glyph unicode="&#x1eee;" d="M182 506v844h94v-834q0 -244 93.5 -349.5t244.5 -105.5q154 0 249 105.5t95 349.5v834h29q96 14 140 47t44 94q1 39 -28 80l71 39q41 -57 41 -113q0 -154 -208 -201v-790q0 -285 -120 -408t-313 -123q-190 0 -311 123t-121 408zM348 1466q4 76 42 132.5t104 56.5 q57 0 130.5 -57.5t112.5 -57.5q33 0 55.5 31t28.5 84h60q-6 -76 -44 -132.5t-102 -56.5q-57 0 -131 58.5t-112 58.5q-33 0 -55.5 -31.5t-28.5 -85.5h-60z" />
<glyph unicode="&#x1eef;" d="M178 371v612h90v-600q0 -166 66.5 -246t210.5 -80q102 0 187 52.5t190 171.5v702h16q174 23 174 141q0 43 -29 80l72 41q39 -59 39 -115q0 -145 -182 -194v-936h-76l-10 190h-8q-184 -215 -388 -215q-180 0 -266 97.5t-86 298.5zM348 1190q6 78 40 131t104 53 q53 0 123.5 -57t101.5 -57q66 -1 78 114h63q-8 -78 -42 -131t-103 -53q-53 0 -122 57.5t-102 57.5q-63 0 -79 -115h-62z" />
<glyph unicode="&#x1ef0;" d="M182 506v844h94v-834q0 -244 93.5 -349.5t244.5 -105.5q154 0 249 105.5t95 349.5v834h29q96 14 140 47t44 94q1 39 -28 80l71 39q41 -57 41 -113q0 -154 -208 -201v-790q0 -285 -120 -408t-313 -123q-190 0 -311 123t-121 408zM518 -332q0 43 27.5 71t68.5 28t69 -28 t28 -71q0 -45 -28 -71.5t-69 -26.5t-68.5 26.5t-27.5 71.5z" />
<glyph unicode="&#x1ef1;" d="M178 371v612h90v-600q0 -166 66.5 -246t210.5 -80q102 0 187 52.5t190 171.5v702h16q174 23 174 141q0 43 -29 80l72 41q39 -59 39 -115q0 -145 -182 -194v-936h-76l-10 190h-8q-184 -215 -388 -215q-180 0 -266 97.5t-86 298.5zM535 -332q0 43 27.5 71t68.5 28t68.5 -28 t27.5 -71q0 -45 -27.5 -71.5t-68.5 -26.5t-68.5 26.5t-27.5 71.5z" />
<glyph unicode="&#x1ef2;" d="M104 1350h97l239 -447q35 -57 92.5 -165.5t81.5 -151.5h9q25 43 176 319l233 445h92l-462 -854v-496h-95v496zM383 1669h119l188 -217h-82z" />
<glyph unicode="&#x1ef3;" d="M123 983h94l287 -618q100 -213 135 -277h8q0 2 115 277l256 618h88l-463 -1106q-49 -139 -146.5 -232.5t-240.5 -93.5q-72 0 -119 21l25 80q49 -16 96 -17q205 0 307 261l35 86zM436 1454h111l186 -283h-76z" />
<glyph unicode="&#x1ef4;" d="M104 1350h97l239 -447q35 -57 92.5 -165.5t81.5 -151.5h9q25 43 176 319l233 445h92l-462 -854v-496h-95v496zM518 -332q0 43 27.5 71t68.5 28t69 -28t28 -71q0 -45 -28 -71.5t-69 -26.5t-68.5 26.5t-27.5 71.5z" />
<glyph unicode="&#x1ef5;" d="M123 983h94l287 -618q100 -213 135 -277h8q0 2 115 277l256 618h88l-463 -1106q-49 -139 -146.5 -232.5t-240.5 -93.5q-72 0 -119 21l25 80q49 -16 96 -17q205 0 307 261l35 86zM809 -330q0 43 27.5 71t68.5 28t68.5 -28t27.5 -71q0 -45 -27.5 -71.5t-68.5 -26.5 t-68.5 26.5t-27.5 71.5z" />
<glyph unicode="&#x1ef6;" d="M104 1350h97l239 -447q35 -57 92.5 -165.5t81.5 -151.5h9q25 43 176 319l233 445h92l-462 -854v-496h-95v496zM504 1702l8 65q109 -4 178.5 -41.5t69.5 -109.5q0 -125 -195 -178l-16 55q129 39 129 111q0 92 -174 98z" />
<glyph unicode="&#x1ef7;" d="M123 983h94l287 -618q100 -213 135 -277h8q0 2 115 277l256 618h88l-463 -1106q-49 -139 -146.5 -232.5t-240.5 -93.5q-72 0 -119 21l25 80q49 -16 96 -17q205 0 307 261l35 86zM526 1393l9 65q248 -12 247 -153q1 -126 -192 -177l-19 54q131 39 131 112q0 92 -176 99z " />
<glyph unicode="&#x1ef8;" d="M104 1350h97l239 -447q35 -57 92.5 -165.5t81.5 -151.5h9q25 43 176 319l233 445h92l-462 -854v-496h-95v496zM348 1466q4 76 42 132.5t104 56.5q57 0 130.5 -57.5t112.5 -57.5q33 0 55.5 31t28.5 84h60q-6 -76 -44.5 -132.5t-101.5 -56.5q-57 0 -131 58.5t-112 58.5 q-33 0 -55.5 -31.5t-28.5 -85.5h-60z" />
<glyph unicode="&#x1ef9;" d="M123 983h94l287 -618q100 -213 135 -277h8q0 2 115 277l256 618h88l-463 -1106q-49 -139 -146.5 -232.5t-240.5 -93.5q-72 0 -119 21l25 80q49 -16 96 -17q205 0 307 261l35 86zM365 1190q6 78 40.5 131t104.5 53q53 0 122.5 -57t100.5 -57q63 0 80 114h61 q-6 -76 -40.5 -130t-102.5 -54q-53 0 -122.5 57.5t-102.5 57.5q-63 0 -80 -115h-61z" />
<glyph unicode="&#x2000;" horiz-adv-x="961" />
<glyph unicode="&#x2001;" horiz-adv-x="1923" />
<glyph unicode="&#x2002;" horiz-adv-x="961" />
<glyph unicode="&#x2003;" horiz-adv-x="1923" />
<glyph unicode="&#x2004;" horiz-adv-x="641" />
<glyph unicode="&#x2005;" horiz-adv-x="480" />
<glyph unicode="&#x2006;" horiz-adv-x="320" />
<glyph unicode="&#x2007;" />
<glyph unicode="&#x2008;" horiz-adv-x="240" />
<glyph unicode="&#x2009;" horiz-adv-x="384" />
<glyph unicode="&#x200a;" horiz-adv-x="106" />
<glyph unicode="&#x2010;" d="M287 549v100h655v-100h-655z" />
<glyph unicode="&#x2011;" d="M287 549v100h655v-100h-655z" />
<glyph unicode="&#x2012;" d="M164 549v100h901v-100h-901z" />
<glyph unicode="&#x2013;" d="M164 549v100h901v-100h-901z" />
<glyph unicode="&#x2014;" d="M41 549v100h1147v-100h-1147z" />
<glyph unicode="&#x2015;" d="M41 549v100h1147v-100h-1147z" />
<glyph unicode="&#x2018;" d="M459 987q0 143 69.5 262t186.5 185l43 -64q-190 -127 -205 -350q35 20 63 20q51 0 85 -34.5t34 -87.5q0 -55 -34.5 -92.5t-90.5 -37.5q-63 0 -107 54.5t-44 144.5z" />
<glyph unicode="&#x2019;" d="M465 850q188 125 203 350q-35 -20 -62 -20q-53 0 -87 34.5t-34 88.5q0 57 35 94t90 37q63 0 107.5 -55.5t44.5 -145.5q0 -143 -69.5 -262.5t-186.5 -182.5z" />
<glyph unicode="&#x201a;" d="M465 -395q188 125 203 350q-35 -20 -62 -21q-53 0 -87 35t-34 88q0 57 35 94t90 37q63 0 107.5 -55t44.5 -145q0 -143 -69.5 -261t-186.5 -184z" />
<glyph unicode="&#x201c;" d="M246 987q0 143 69.5 262t186.5 185l43 -64q-190 -127 -205 -350q35 20 63 20q51 0 85 -34.5t34 -87.5q0 -55 -34.5 -92.5t-90.5 -37.5q-63 0 -107 54.5t-44 144.5zM672 987q0 143 69.5 262t186.5 185l43 -64q-193 -129 -205 -350q35 20 63 20q51 0 85 -34.5t34 -87.5 q0 -55 -34.5 -92.5t-90.5 -37.5q-63 0 -107 54.5t-44 144.5z" />
<glyph unicode="&#x201d;" d="M252 850q188 125 203 350q-35 -20 -62 -20q-53 0 -87 34.5t-34 88.5q0 57 35 94t90 37q63 0 107.5 -55.5t44.5 -145.5q0 -143 -69.5 -262.5t-186.5 -182.5zM678 850q188 125 203 350q-35 -20 -62 -20q-53 0 -87 34.5t-34 88.5q0 57 35 94t90 37q63 0 107.5 -55.5 t44.5 -145.5q0 -143 -69.5 -262.5t-186.5 -182.5z" />
<glyph unicode="&#x201e;" d="M252 -395q188 125 203 350q-35 -20 -62 -21q-53 0 -87 35t-34 88q0 57 35 94t90 37q63 0 107.5 -55t44.5 -145q0 -143 -69.5 -261t-186.5 -184zM678 -395q188 125 203 350q-35 -20 -62 -21q-53 0 -87 35t-34 88q0 57 35 94t90 37q63 0 107.5 -55t44.5 -145 q0 -143 -69.5 -261t-186.5 -184z" />
<glyph unicode="&#x2020;" d="M307 1065v86l271 -6l-7 313h86l-6 -313l271 6v-86l-271 4l6 -1233h-86l7 1233z" />
<glyph unicode="&#x2021;" d="M307 143v86l271 -6l-7 424l7 424l-271 -6v86l271 -6l-7 313h86l-6 -313l271 6v-86l-271 6l6 -424l-6 -424l271 6v-86l-271 7l6 -314h-86l7 314z" />
<glyph unicode="&#x2022;" d="M330 623q0 125 85 204.5t199.5 79.5t199.5 -79.5t85 -204.5t-85 -205t-199.5 -80t-199.5 80t-85 205z" />
<glyph unicode="&#x2026;" d="M104 104q0 59 35 94t82 35q45 0 81 -34.5t36 -94.5q0 -57 -36 -93t-81 -36q-47 0 -82 36t-35 93zM498 104q0 59 34.5 94t82 35t82 -34.5t34.5 -94.5q0 -57 -34.5 -93t-82 -36t-82 36t-34.5 93zM891 104q0 59 36 94t81 35q47 0 81.5 -34.5t34.5 -94.5q0 -57 -34.5 -93 t-81.5 -36q-45 0 -81 36t-36 93z" />
<glyph unicode="&#x202f;" horiz-adv-x="384" />
<glyph unicode="&#x2030;" d="M119 246q0 125 61.5 195.5t165.5 70.5q102 0 163.5 -70.5t61.5 -195.5q0 -129 -61.5 -200t-163.5 -71q-104 0 -165.5 71t-61.5 200zM119 1069q0 123 61.5 193.5t165.5 70.5q102 0 163.5 -70.5t61.5 -193.5q0 -129 -61.5 -199.5t-163.5 -70.5q-104 0 -165.5 70.5 t-61.5 199.5zM195 246q0 -102 40.5 -155.5t110.5 -53.5q68 0 109 53t41 156q0 96 -41 149.5t-109 53.5q-70 0 -110.5 -53.5t-40.5 -149.5zM195 1069q0 -102 40.5 -155.5t110.5 -53.5q68 0 109 53.5t41 155.5q0 96 -41 149.5t-109 53.5q-70 0 -110.5 -53.5t-40.5 -149.5z M229 625l908 417l32 -77l-917 -387zM657 246q0 125 61.5 195.5t166.5 70.5q102 0 163.5 -70.5t61.5 -195.5q0 -129 -61.5 -200t-163.5 -71q-104 0 -166 71t-62 200zM733 246q0 -102 41 -155.5t111 -53.5q68 0 108.5 53t40.5 156q0 96 -41 149.5t-108 53.5q-70 0 -111 -53.5 t-41 -149.5z" />
<glyph unicode="&#x2032;" d="M557 985l49 434h86l-20 -151l-56 -283h-59z" />
<glyph unicode="&#x2033;" d="M412 985l49 434h88l-23 -151l-53 -283h-61zM702 985l48 434h88l-21 -151l-55 -283h-60z" />
<glyph unicode="&#x2039;" d="M430 473v86l291 334l51 -47l-258 -330l258 -334l-51 -43z" />
<glyph unicode="&#x203a;" d="M457 182l258 334l-258 330l51 47l291 -334v-86l-291 -334z" />
<glyph unicode="&#x2044;" d="M72 129l370 403l45 -40l-350 -420zM741 858l351 420l65 -57l-371 -404z" />
<glyph unicode="&#x205f;" horiz-adv-x="480" />
<glyph unicode="&#x2070;" d="M340 1214q0 156 74.5 242t199.5 86t200 -86t75 -242q0 -158 -76 -247.5t-198.5 -89.5t-198.5 90t-76 247zM420 1214q0 -127 54 -199.5t140 -72.5t140.5 72.5t54.5 199.5t-54.5 195t-140.5 68t-140 -68t-54 -195z" />
<glyph unicode="&#x2071;" d="M367 1116v68h389v-652h-82v584h-307zM637 1405q0 33 21.5 54.5t54 21.5t54 -21.5t21.5 -54.5t-21.5 -52.5t-54 -19.5t-54 19.5t-21.5 52.5z" />
<glyph unicode="&#x2074;" d="M365 1065v41l337 412h70v-394h102v-59h-102v-164h-74v164h-333zM459 1124h239v156l9 147h-9l-102 -135z" />
<glyph unicode="&#x2075;" d="M360 1001l56 50q84 -109 198 -109q72 0 117 40t45 105q0 70 -43 109t-121 39q-70 0 -147 -59l-47 32l37 310h358v-72h-291l-26 -184q57 33 129 32q104 0 167.5 -54t63.5 -153q0 -96 -67.5 -153t-174.5 -57q-143 -1 -254 124z" />
<glyph unicode="&#x2076;" d="M375 1169q0 188 85 280.5t218 92.5q88 0 172 -55l-37 -60q-68 49 -137 50q-94 0 -157.5 -69t-69.5 -210q98 78 204 78q104 0 157.5 -54.5t53.5 -140.5t-63.5 -145t-161.5 -59q-111 0 -187.5 78.5t-76.5 213.5zM451 1124q12 -88 65 -135t125 -47q68 0 106.5 38t38.5 101 q0 133 -145 133q-100 0 -190 -90z" />
<glyph unicode="&#x2077;" d="M381 1450v68h471v-50q-129 -141 -176 -266t-58 -301h-77q10 172 59 295t158 254h-377z" />
<glyph unicode="&#x2078;" d="M369 1055q0 102 137 170v8q-111 66 -111 145q0 70 64.5 117t154.5 47q96 0 159 -47t63 -117q0 -90 -109 -155v-9q133 -53 133 -159q0 -76 -70.5 -127t-175.5 -51q-109 0 -177 52t-68 126zM446 1057q0 -49 48.5 -83t119.5 -34q66 0 117 33t51 80q0 16 -3 28.5t-12 24.5 t-16.5 20.5t-23.5 16.5t-25.5 14t-31.5 13l-32 11q-9 3 -34.5 11t-36.5 10q-121 -55 -121 -145zM473 1378q1 -82 191 -133q96 53 96 131q0 45 -39 74t-107 29q-66 0 -103.5 -29t-37.5 -72z" />
<glyph unicode="&#x2079;" d="M365 1339q0 86 63.5 144.5t161.5 58.5q111 0 187.5 -79t76.5 -214q0 -186 -85 -279t-218 -93q-84 0 -172 57l37 57q68 -49 137 -49q94 0 154.5 68.5t68.5 210.5q-94 -78 -201 -78q-104 0 -157 55t-53 141zM442 1339q0 -133 146 -133q100 0 186 84q-10 90 -62.5 138.5 t-123.5 48.5q-68 0 -107 -38.5t-39 -99.5z" />
<glyph unicode="&#x207d;" d="M510 1219q0 266 213 460l53 -49q-176 -162 -176 -411q0 -248 176 -410l-53 -49q-213 195 -213 459z" />
<glyph unicode="&#x207e;" d="M453 809q176 162 176 410q0 250 -176 411l53 49q213 -194 213 -460q0 -264 -213 -459z" />
<glyph unicode="&#x207f;" d="M381 532v652h70l6 -107h6q127 123 244 123q225 0 225 -252v-416h-84v406q0 98 -38 144t-124 46q-59 0 -107.5 -28.5t-113.5 -93.5v-474h-84z" />
<glyph unicode="&#x2080;" d="M340 -35q0 156 74.5 242t199.5 86t200 -86t75 -242q0 -158 -76 -248t-198.5 -90t-198.5 90t-76 248zM420 -35q0 -127 54 -199.5t140 -72.5t140.5 72.5t54.5 199.5t-54.5 194.5t-140.5 67.5t-140 -67.5t-54 -194.5z" />
<glyph unicode="&#x2081;" d="M440 145v60q100 18 183 63h63v-616h-78v493h-168z" />
<glyph unicode="&#x2082;" d="M375 174q92 119 223 119q104 0 161.5 -53.5t57.5 -151.5q0 -20 -4 -38.5t-15.5 -40t-19.5 -37t-29.5 -40t-34 -38t-43 -41t-45 -41t-51 -46t-53.5 -47.5h330v-67h-463v49q150 121 205 169t99 106.5t44 109.5q0 66 -37.5 102.5t-105.5 36.5q-96 0 -166 -94z" />
<glyph unicode="&#x2083;" d="M360 -248l56 49q72 -109 196 -108q150 0 150 119q0 125 -223 125v57q96 0 144 34.5t48 92.5q0 106 -133 106q-94 0 -160 -77l-47 47q76 96 217 96q92 0 147.5 -43t55.5 -123q0 -115 -119 -158q68 -12 109 -53t41 -106q0 -88 -63.5 -135.5t-168.5 -47.5q-72 0 -140.5 36 t-109.5 89z" />
<glyph unicode="&#x2084;" d="M365 -143l337 411h70v-393h102v-59h-102v-164h-74v164h-333v41zM459 -125h239v156l9 147h-9l-102 -135z" />
<glyph unicode="&#x2085;" d="M360 -248l56 49q84 -109 198 -108q72 0 117 40t45 105q0 70 -43 109t-121 39q-70 0 -147 -60l-47 33l37 309h358v-71h-291l-26 -185q57 33 129 33q104 0 167.5 -54t63.5 -153q0 -96 -67.5 -153.5t-174.5 -57.5q-143 0 -254 125z" />
<glyph unicode="&#x2086;" d="M375 -80q0 188 85 280.5t218 92.5q88 0 172 -55l-37 -60q-68 49 -137 49q-94 0 -157.5 -68.5t-69.5 -209.5q98 78 204 78q104 0 157.5 -54.5t53.5 -140.5t-63.5 -145.5t-161.5 -59.5q-111 0 -187.5 79t-76.5 214zM451 -125q12 -88 65 -135t125 -47q68 0 106.5 38 t38.5 101q0 133 -145 133q-100 0 -190 -90z" />
<glyph unicode="&#x2087;" d="M381 201v67h471v-49q-129 -141 -176 -266t-58 -301h-77q10 172 59 295t158 254h-377z" />
<glyph unicode="&#x2088;" d="M369 -195q0 102 137 170v9q-111 66 -111 145q0 70 64.5 117t154.5 47q96 0 159 -47t63 -117q0 -90 -109 -156v-8q133 -53 133 -160q0 -76 -70.5 -127t-175.5 -51q-109 0 -177 52t-68 126zM446 -193q0 -49 48.5 -82.5t119.5 -33.5q66 0 117 32.5t51 79.5q0 16 -3 28.5 t-12 25t-16.5 20.5t-23.5 16.5t-25.5 14.5t-32 13t-31.5 10l-34 11q-26 9 -37 11q-121 -56 -121 -146zM473 129q1 -82 191 -133q96 53 96 131q0 45 -39 73.5t-107 28.5q-66 0 -103.5 -28.5t-37.5 -71.5z" />
<glyph unicode="&#x2089;" d="M365 90q0 86 63.5 144.5t161.5 58.5q111 0 187.5 -79t76.5 -214q0 -186 -85 -279.5t-218 -93.5q-84 1 -172 58l37 57q68 -49 137 -49q94 0 154.5 68.5t68.5 209.5q-94 -78 -201 -77q-104 0 -157 55t-53 141zM442 90q0 -133 146 -133q100 0 186 84q-10 90 -62.5 138 t-123.5 48q-68 0 -107 -38t-39 -99z" />
<glyph unicode="&#x208d;" d="M510 -31q0 266 213 461l53 -49q-176 -162 -176 -412q0 -248 176 -409l-53 -49q-213 194 -213 458z" />
<glyph unicode="&#x208e;" d="M453 381l53 49q213 -195 213 -461q0 -264 -213 -458l-53 49q176 162 176 409q0 250 -176 412z" />
<glyph unicode="&#x2094;" d="M324 831q0 29 6 54h493q-4 113 -63.5 180.5t-167.5 67.5q-102 0 -195 -60l-30 60q102 68 233 67q141 0 224 -90t83 -250q0 -158 -83 -251t-216 -93q-129 0 -206.5 84t-77.5 231zM401 825q0 -119 55.5 -180t152 -61t151.5 63.5t65 177.5h-424z" />
<glyph unicode="&#x20a1;" d="M217 657q0 276 114.5 452.5t315.5 213.5l25 211h63l-24 -203q12 2 39 2q51 0 100 -12l24 213h64l-29 -236q96 -41 168 -124l-59 -56q-59 66 -117 96l-139 -1159q147 14 276 164l60 -51q-150 -180 -344 -191l-25 -202h-63l24 200q-80 6 -137 29l-27 -229h-63l31 258 q-131 76 -204 238.5t-73 385.5zM315 659q1 -378 189 -532l133 1114q-154 -39 -238 -192.5t-84 -389.5zM563 88q57 -29 135 -35l142 1188q-41 14 -95 14q-29 0 -43 -2z" />
<glyph unicode="&#x20a4;" d="M168 504v59l190 10h60q-12 49 -43 134h-207v63l182 6q-43 129 -43 209q0 162 109.5 255t298.5 93q215 0 346 -145l-60 -55q-121 121 -290 120q-152 0 -235 -75.5t-83 -192.5q0 -82 45 -209h449v-69h-424q29 -74 41 -134h383v-69h-373q2 -16 2 -51q0 -123 -43 -208 t-133 -155v-8h725v-82h-891v55q131 61 195.5 167t64.5 231q0 8 -1 25.5t-1 25.5h-264z" />
<glyph unicode="&#x20a6;" d="M119 498v59l157 8v140h-157v55l157 8v541h109l227 -541h256v541h84v-541h152v-63h-152v-140h152v-67h-152v-498h-108l-207 498h-277v-498h-84v498h-157zM342 1200l16 -432h166l-18 43l-156 389h-8zM360 565h248l-57 140h-191v-140zM639 705l57 -140h172v10v130h-229z M725 498l154 -387h8l-15 387h-147z" />
<glyph unicode="&#x20a7;" d="M113 897v64l166 10v338h260q420 0 440 -338h135v-74h-135q-12 -176 -130 -267t-310 -91h-172v-539h-88v897h-166zM367 612h149q350 0 371 285h-520v-285zM367 971h520q-8 143 -100.5 204.5t-270.5 61.5h-149v-266z" />
<glyph unicode="&#x20ab;" d="M246 604q0 162 104.5 264.5t247.5 102.5q78 0 135.5 -25.5t122.5 -79.5l-8 191v92h-320v70h320v159h84v-159h166v-60l-166 -10v-909h-68l-10 96h-8q-117 -117 -262 -117q-158 0 -248 100.5t-90 284.5zM266 0v70h727v-70h-727zM334 608q0 -145 68.5 -229t191.5 -84 q135 0 254 127v369q-72 57 -123 80.5t-123 23.5q-113 0 -190.5 -84t-77.5 -203z" />
<glyph unicode="&#x20ac;" d="M133 504v59l127 8q-2 29 -2 86q0 49 2 72h-127v59l133 9q31 252 169 394t353 142q98 0 186.5 -45t143.5 -114l-59 -56q-123 137 -273 137q-176 0 -285.5 -121.5t-135.5 -336.5h651v-68h-658q-2 -23 -2 -70q0 -59 2 -88h576v-67h-567q29 -211 132 -331t263 -120 q176 0 317 166l60 -51q-160 -193 -381 -193q-197 0 -327 141.5t-163 387.5h-135z" />
<glyph unicode="&#x20b1;" d="M113 809v57l166 8v138h-166v55l166 8v234h260q348 0 422 -234h153v-63h-139q6 -37 6 -76q0 -20 -4 -62h137v-65h-149q-37 -133 -148.5 -201.5t-277.5 -68.5h-172v-539h-88v809h-166zM367 612h149q289 0 354 197h-503v-197zM367 874h518q4 37 4 62q0 43 -6 76h-516v-138z M367 1075h497q-65 162 -348 162h-149v-162z" />
<glyph unicode="&#x20b2;" d="M193 657q0 289 123.5 468.5t338.5 203.5v205h80v-201q94 -4 177 -49t139 -110l-60 -56q-121 137 -270 137q-205 0 -317.5 -159.5t-112.5 -436.5q0 -279 107.5 -441.5t297.5 -162.5q84 0 161 31t118 74v401h-285v80h373v-518q-135 -133 -328 -146v-202h-80v202 q-211 14 -336.5 198.5t-125.5 481.5z" />
<glyph unicode="&#x20b5;" d="M217 657q0 289 126 469.5t341 202.5v207h76v-203q94 -2 179 -47t138 -112l-59 -56q-119 131 -258 137v-1200q149 14 278 164l60 -51q-147 -176 -338 -191v-202h-76v202q-213 14 -340 197.5t-127 482.5zM315 659q0 -264 97.5 -426t271.5 -178v1196q-176 -25 -272.5 -181.5 t-96.5 -410.5z" />
<glyph unicode="&#x20b9;" d="M244 575v80h168q420 0 428 297h-596v62l149 8h441q-43 209 -422 209h-168v78h831v-68h-332q74 -27 122 -85t63 -134h147v-70h-143q-4 -166 -109.5 -261t-287.5 -111l454 -580h-108l-449 575h-188z" />
<glyph unicode="&#x20ba;" d="M139 477v74l236 106v168l-236 -106v74l236 108v408h94v-363l401 189v-74l-401 -189v-167l401 188v-74l-401 -188v-568q121 2 237.5 41t203.5 128.5t87 207.5q0 61 -12 105l78 26q18 -80 18 -125q0 -233 -205.5 -354t-500.5 -117v609z" />
<glyph unicode="&#x2113;" d="M289 334q74 49 160 125v602q0 213 68.5 313.5t180.5 100.5q102 0 166 -78t64 -219q0 -186 -107.5 -381t-281.5 -359v-78q0 -156 56 -230.5t144 -74.5q91 0 185 90l43 -57q-117 -113 -238 -113q-119 0 -199.5 95.5t-80.5 267.5v20q-51 -43 -117 -88zM539 545 q303 317 303 629q0 223 -144 223q-68 0 -113.5 -81t-45.5 -233v-538z" />
<glyph unicode="&#x2117;" d="M76 659.5q0 307.5 149.5 491.5t389 184t389 -184t149.5 -491.5t-150.5 -496t-388 -188.5t-388 188.5t-150.5 496zM147 659.5q0 -278.5 128 -449.5t339 -171t339 171t128 449.5t-128 446.5t-339 168t-339 -168t-128 -446.5zM416 279v739h215q115 0 185.5 -57.5 t70.5 -165.5q0 -121 -72 -186.5t-184 -65.5h-131v-264h-84zM500 612h108q190 0 191 183q0 154 -191 153h-108v-336z" />
<glyph unicode="&#x2120;" d="M59 825l47 52q84 -80 179 -80q55 0 88 27.5t33 74.5q0 31 -11.5 50.5t-27 29.5t-56.5 31l-100 53q-119 59 -119 166q0 78 55.5 122t143.5 44q102 0 178 -76l-45 -53q-74 63 -137 63q-55 0 -87 -27.5t-32 -70.5q0 -61 90 -105l100 -51q123 -57 123 -174q0 -70 -55 -120 t-147 -50q-135 0 -220 94zM618 756v628h105l106 -258l64 -176h8l62 176l102 258h104v-628h-73v329l8 201h-8l-168 -428h-68l-168 428h-8l10 -201v-329h-76z" />
<glyph unicode="&#x2122;" d="M0 1313v71h514v-71h-219v-557h-78v557h-217zM618 756v628h105l106 -258l64 -176h8l62 176l102 258h104v-628h-73v329l8 201h-8l-168 -428h-68l-168 428h-8l10 -201v-329h-76z" />
<glyph unicode="&#x2126;" d="M27 0v80h295v8q-268 256 -269 625q0 301 153.5 482t407.5 181t408 -181t154 -482q0 -369 -269 -625v-8h295v-80h-440v68q315 217 315 645q0 262 -124 419.5t-339 157.5t-338.5 -157.5t-123.5 -419.5q0 -428 315 -645v-68h-440z" />
<glyph unicode="&#x212e;" d="M53 663.5q0 284.5 165 486.5t396.5 202t396.5 -202t165 -486v-17h-848q-8 0 -9 -8v-459q1 -16 17 -41q111 -123 282 -123q106 0 204 61.5t169 168.5h78q-86 -127 -202.5 -199t-252.5 -72q-231 0 -396 202t-165 486.5zM319 696q1 -12 9 -12h573q12 0 12 12v459 q0 25 -20 45q-111 111 -275 111q-170 0 -282 -119q-16 -25 -17 -45v-451z" />
<glyph unicode="&#x2153;" d="M72 129l370 403l45 -40l-350 -420zM158 1186v59q96 16 180 64h63v-617h-75v494h-168zM645 100l53 50q72 -109 197 -109q152 0 152 119q0 125 -224 125v57q96 0 143.5 35t47.5 92q0 106 -131 106q-96 0 -162 -77l-45 47q76 96 215 96q92 0 147.5 -43t55.5 -123 q0 -115 -117 -158q68 -12 108.5 -53t40.5 -106q0 -88 -63.5 -135.5t-167.5 -47.5q-72 0 -140.5 36t-109.5 89zM741 858l351 420l65 -57l-371 -404z" />
<glyph unicode="&#x2154;" d="M72 129l370 403l45 -40l-350 -420zM90 1214q96 119 223 119q104 0 163 -53t59 -152q0 -18 -4.5 -36.5t-10.5 -34t-19.5 -34.5t-22.5 -33.5t-29.5 -36t-33 -34t-40 -38t-42 -38t-48 -42t-47.5 -41.5h331v-68h-463v49q237 194 289 254q59 71 60 131q0 66 -38 103t-108 37 q-98 0 -164 -95zM645 100l53 50q72 -109 197 -109q152 0 152 119q0 125 -224 125v57q96 0 143.5 35t47.5 92q0 106 -131 106q-96 0 -162 -77l-45 47q76 96 215 96q92 0 147.5 -43t55.5 -123q0 -115 -117 -158q68 -12 108.5 -53t40.5 -106q0 -88 -63.5 -135.5t-167.5 -47.5 q-72 0 -140.5 36t-109.5 89zM741 858l351 420l65 -57l-371 -404z" />
<glyph unicode="&#x215b;" d="M72 129l370 403l45 -40l-350 -420zM158 1186v59q96 16 180 64h63v-617h-75v494h-168zM653 154q0 104 138 170v8q-111 66 -111 145q0 70 64.5 117t154.5 47q96 0 158.5 -47t62.5 -117q0 -90 -108 -155v-9q133 -53 133 -159q0 -76 -72 -127.5t-174 -51.5 q-109 0 -177.5 52.5t-68.5 126.5zM729 156q0 -49 49 -83t121 -34q66 0 117 32.5t51 80.5q0 16 -3 28.5t-12.5 24.5t-16.5 20t-23.5 16.5t-25.5 14.5t-31.5 13t-32 10.5t-35 11.5t-35.5 10q-123 -55 -123 -145zM741 858l351 420l65 -57l-371 -404zM758 477q0 -82 190 -133 q94 53 94 131q0 45 -37.5 74t-107.5 29q-63 0 -101 -29t-38 -72z" />
<glyph unicode="&#x215c;" d="M72 129l370 403l45 -40l-350 -420zM78 793l53 49q72 -109 197 -109q152 0 151 119q0 125 -223 125v57q96 0 143 35t47 92q0 106 -131 107q-94 0 -159 -78l-47 47q76 96 217 96q90 0 145 -44t55 -122q0 -115 -116 -157q68 -12 108.5 -53.5t40.5 -106.5q0 -88 -63.5 -135 t-167.5 -47q-72 0 -140.5 36t-109.5 89zM653 154q0 104 138 170v8q-111 66 -111 145q0 70 64.5 117t154.5 47q96 0 158.5 -47t62.5 -117q0 -90 -108 -155v-9q133 -53 133 -159q0 -76 -72 -127.5t-174 -51.5q-109 0 -177.5 52.5t-68.5 126.5zM729 156q0 -49 49 -83t121 -34 q66 0 117 32.5t51 80.5q0 16 -3 28.5t-12.5 24.5t-16.5 20t-23.5 16.5t-25.5 14.5t-31.5 13t-32 10.5t-35 11.5t-35.5 10q-123 -55 -123 -145zM741 858l351 420l65 -57l-371 -404zM758 477q0 -82 190 -133q94 53 94 131q0 45 -37.5 74t-107.5 29q-63 0 -101 -29t-38 -72z " />
<glyph unicode="&#x215d;" d="M72 129l370 403l45 -40l-350 -420zM78 793l53 49q86 -109 201 -109q72 0 117 40t45 106q0 70 -44 108.5t-122 38.5q-72 0 -146 -59l-47 32l37 310h358v-72h-292l-27 -184q57 33 131 32q104 0 167.5 -54t63.5 -152q0 -96 -68.5 -153.5t-172.5 -57.5q-143 0 -254 125z M653 154q0 104 138 170v8q-111 66 -111 145q0 70 64.5 117t154.5 47q96 0 158.5 -47t62.5 -117q0 -90 -108 -155v-9q133 -53 133 -159q0 -76 -72 -127.5t-174 -51.5q-109 0 -177.5 52.5t-68.5 126.5zM729 156q0 -49 49 -83t121 -34q66 0 117 32.5t51 80.5q0 16 -3 28.5 t-12.5 24.5t-16.5 20t-23.5 16.5t-25.5 14.5t-31.5 13t-32 10.5t-35 11.5t-35.5 10q-123 -55 -123 -145zM741 858l351 420l65 -57l-371 -404zM758 477q0 -82 190 -133q94 53 94 131q0 45 -37.5 74t-107.5 29q-63 0 -101 -29t-38 -72z" />
<glyph unicode="&#x215e;" d="M72 129l370 403l45 -40l-350 -420zM96 1241v68h473v-49q-129 -143 -177 -268.5t-56 -299.5h-80q10 170 59.5 294t157.5 255h-377zM653 154q0 104 138 170v8q-111 66 -111 145q0 70 64.5 117t154.5 47q96 0 158.5 -47t62.5 -117q0 -90 -108 -155v-9q133 -53 133 -159 q0 -76 -72 -127.5t-174 -51.5q-109 0 -177.5 52.5t-68.5 126.5zM729 156q0 -49 49 -83t121 -34q66 0 117 32.5t51 80.5q0 16 -3 28.5t-12.5 24.5t-16.5 20t-23.5 16.5t-25.5 14.5t-31.5 13t-32 10.5t-35 11.5t-35.5 10q-123 -55 -123 -145zM741 858l351 420l65 -57 l-371 -404zM758 477q0 -82 190 -133q94 53 94 131q0 45 -37.5 74t-107.5 29q-63 0 -101 -29t-38 -72z" />
<glyph unicode="&#x2190;" d="M39 512v8l551 541l53 -55l-471 -451h995v-78h-995l471 -450l-53 -56z" />
<glyph unicode="&#x2191;" d="M70 526l540 551h8l541 -551l-55 -53l-451 473v-995h-78v995l-450 -473z" />
<glyph unicode="&#x2192;" d="M57 477v78h998l-473 451l53 55l551 -541v-8l-551 -541l-53 56l473 450h-998z" />
<glyph unicode="&#x2193;" d="M70 502l55 53l450 -473v995h78v-995l451 473l55 -53l-541 -551h-8z" />
<glyph unicode="&#x2202;" d="M176 362q0 203 118 329t329 126q180 0 331 -158q2 29 2 84q0 553 -321 553q-138 1 -242 -108l-49 59q123 129 297 129q186 0 297 -155.5t111 -477.5q0 -344 -142.5 -556t-376.5 -212q-145 0 -249.5 106.5t-104.5 280.5zM268 369q0 -137 79 -225.5t192 -88.5 q164 0 269 140.5t136 369.5q-147 172 -321 172q-176 0 -265.5 -105.5t-89.5 -262.5z" />
<glyph unicode="&#x2206;" d="M98 0v55l467 1297h99l466 -1297v-55h-1032zM205 82h819l-252 711l-151 446h-9l-155 -446z" />
<glyph unicode="&#x220f;" d="M139 -246v1555h951v-1555h-99v1473h-758v-1473h-94z" />
<glyph unicode="&#x2211;" d="M156 -178l526 710l-504 709v68h873v-80h-752v-8l487 -686l-510 -691v-8h838v-82h-958v68z" />
<glyph unicode="&#x2212;" d="M195 596v78h839v-78h-839z" />
<glyph unicode="&#x2215;" d="M72 129l370 403l45 -40l-350 -420zM741 858l351 420l65 -57l-371 -404z" />
<glyph unicode="&#x2219;" d="M481 702.5q0 61.5 36 98.5t87 37q49 0 85 -37t36 -98.5t-36 -97.5t-85 -36q-51 0 -87 36t-36 97.5z" />
<glyph unicode="&#x221a;" d="M164 682l223 104l258 -772q8 -20 18.5 -60t12.5 -46h8q4 18 10 53t11 53l389 1665h77l-446 -1894h-82l-307 899l-141 -66z" />
<glyph unicode="&#x221e;" d="M4 672q0 137 81 221t198 84q172 0 292 -225h9q139 258 338 258q135 0 219 -91.5t84 -236.5t-83 -241.5t-214 -96.5q-109 0 -189 61.5t-161 192.5h-9q-133 -223 -303 -223q-106 0 -184 86t-78 211zM84 678q0 -98 57.5 -161.5t137.5 -63.5q152 0 251 215q-119 219 -251 219 q-86 0 -140.5 -55.5t-54.5 -153.5zM623 684q78 -139 148.5 -194.5t156.5 -55.5q100 0 158.5 69.5t58.5 174.5q0 111 -62.5 183.5t-171.5 72.5q-82 0 -150 -59.5t-138 -190.5z" />
<glyph unicode="&#x222b;" d="M426 -311l14 73q37 -8 72 -8q84 0 112.5 88t28.5 273q0 147 -46 530t-46 522q0 102 9.5 177t33 139.5t70.5 97.5t114 33q59 0 82 -12l-14 -74q-33 8 -70 8q-82 0 -110.5 -89t-28.5 -273q0 -145 45 -528.5t45 -522.5q0 -213 -48 -330t-175 -117q-59 0 -88 13z" />
<glyph unicode="&#x2248;" d="M186 322q76 236 246 235q66 0 133.5 -46t128 -92t107.5 -46q59 0 100 34.5t78 147.5l63 -29q-78 -231 -245 -231q-66 0 -133.5 46t-128 92t-107.5 46q-59 0 -100 -36.5t-78 -145.5zM186 739q76 236 246 236q66 0 133.5 -46t128 -92t107.5 -46q59 0 100 34.5t78 147.5 l63 -29q-78 -231 -245 -231q-66 0 -133.5 46t-128 92t-107.5 46q-59 0 -100 -36.5t-78 -145.5z" />
<glyph unicode="&#x2260;" d="M195 387v78h272l209 340h-481v78h528l162 264h84l-162 -264h227v-78h-272l-209 -340h481v-78h-528l-162 -264h-84l162 264h-227z" />
<glyph unicode="&#x2264;" d="M195 0v76h839v-76h-839zM195 598v94l839 328v-88l-473 -180l-272 -103v-8l272 -102l473 -181v-88z" />
<glyph unicode="&#x2265;" d="M195 0v76h839v-76h-839zM195 270v88l473 181l272 102v8l-272 103l-473 180v88l839 -328v-94z" />
<glyph unicode="&#x25a0;" d="M436 356v369h357v-369h-357z" />
<glyph unicode="&#x25b2;" d="M94 98v4l518 977h9l514 -977v-4h-1041z" />
<glyph unicode="&#x25b3;" d="M94 98v4l518 977h9l514 -977v-4h-1041zM231 172h768l-383 752z" />
<glyph unicode="&#x25b6;" d="M164 55v1041h4l975 -514v-9l-975 -518h-4z" />
<glyph unicode="&#x25b7;" d="M164 55v1041h4l975 -514v-9l-975 -518h-4zM242 193l739 385l-739 383v-768z" />
<glyph unicode="&#x25bc;" d="M94 1049v4h1041v-4l-514 -973h-9z" />
<glyph unicode="&#x25bd;" d="M94 1049v4h1041v-4l-514 -975h-9zM231 979l385 -750l383 750h-768z" />
<glyph unicode="&#x25c0;" d="M86 573v9l975 514h4v-1041h-4z" />
<glyph unicode="&#x25c1;" d="M86 573v9l975 514h4v-1041h-4zM248 578l739 -385v768z" />
<glyph unicode="&#x25c6;" d="M356 541l260 256l256 -256l-256 -258z" />
<glyph unicode="&#x25c9;" d="M268 541q0 160 101.5 256t245 96t245 -96.5t101.5 -255.5q0 -162 -101.5 -258.5t-245 -96.5t-245 96.5t-101.5 258.5zM346 541q0 -131 80 -208t188.5 -77t188.5 77t80 208t-80 207.5t-188.5 76.5t-188.5 -76.5t-80 -207.5zM508 541q0 49 31.5 79.5t74.5 30.5t75 -30.5 t32 -79.5q0 -51 -32 -83t-75 -32t-74.5 31.5t-31.5 83.5z" />
<glyph unicode="&#x25ca;" d="M225 676l338 696h103l338 -696l-338 -696h-103zM315 676l156 -334l139 -285h8l140 285l155 334l-155 330l-140 288h-8l-139 -288z" />
<glyph unicode="&#x2610;" d="M-47 -20v1302l108 88h1215v-1282l-92 -108h-1231zM23 47h1116v1190h-1116v-1190z" />
<glyph unicode="&#x2611;" d="M-47 -20v1302l108 88h1104q111 138 215 236l66 -66q-86 -80 -170 -176v-1276l-92 -108h-1231zM23 47h1116v1147q-334 -449 -484 -973l-114 -14q-109 309 -287 575l72 49q180 -279 258 -536h8q139 479 473 942h-1042v-1190z" />
<glyph unicode="&#x266a;" d="M188 100q0 88 86 155t222 67q86 0 127 -25v1124h65q16 -45 42 -71.5t104 -81.5q127 -92 172 -183.5t45 -212.5q0 -119 -45 -249l-56 20q25 82 25 188q0 102 -70.5 189.5t-199.5 126.5v-889q0 -141 -98.5 -221t-225.5 -80q-82 0 -137.5 38.5t-55.5 104.5z" />
<glyph unicode="&#x2713;" d="M0 559l70 49q186 -276 278 -561h8q109 362 330 729t479 619l66 -66q-268 -252 -486 -610.5t-329 -745.5l-115 -14q-117 332 -301 600z" />
<glyph unicode="&#x2752;" d="M365 274v422l108 90h391v-403l-88 -109h-411zM426 332h303v319h-303v-319z" />
<glyph unicode="&#xe000;" horiz-adv-x="985" d="M0 985h985v-985h-985v985z" />
<glyph unicode="&#xfb01;" d="M160 905v70l135 8v219q0 145 63.5 220t180.5 75q72 0 143 -33l-25 -73q-57 29 -116 28q-156 0 -156 -223v-213h227v-78h-227v-905h-90v905h-135zM805 1317q0 45 28.5 72.5t67.5 27.5q41 0 69.5 -27.5t28.5 -72.5q0 -43 -28.5 -69.5t-69.5 -26.5q-39 0 -67.5 27.5 t-28.5 68.5zM856 0v983h92v-983h-92z" />
<glyph unicode="&#xfb02;" d="M170 905v70l135 8v219q0 145 63.5 220t180.5 75q72 0 143 -33l-24 -73q-57 29 -117 28q-156 0 -156 -223v-213h228v-78h-228v-905h-90v905h-135zM829 131v1342h93v-1354q0 -63 41 -64q18 0 36 4l17 -73q-31 -10 -66 -11q-121 0 -121 156z" />
<glyph d="M121 678q0 319 159.5 507.5t421.5 188.5q209 0 359 -162l-55 -61q-123 137 -304 137q-223 0 -353 -165t-130 -445q0 -283 126 -450t345 -167q195 0 293 103v420h-311v80h403v-535q-139 -154 -391 -154q-254 0 -408.5 190.5t-154.5 512.5zM414 1466q4 76 42 132.5 t103 56.5q55 0 129 -57.5t113 -57.5q72 0 86 115h57q-6 -76 -44 -132.5t-101 -56.5q-55 0 -129 58.5t-113 58.5q-33 0 -55.5 -31.5t-28.5 -85.5h-59z" />
<glyph d="M172 -188q0 129 166 231v8q-102 51 -102 158q0 104 118 186v8q-117 94 -116 254q0 150 107.5 250.5t258.5 100.5q76 0 135 -25h410v-76h-299q117 -113 117 -252q0 -150 -104.5 -246t-258.5 -96q-98 0 -186 45q-96 -59 -96 -137q0 -137 227 -137h244q188 0 273 -52 t85 -169q0 -133 -145.5 -234.5t-374.5 -101.5q-225 0 -342 76t-117 209zM258 -190q0 -92 94 -150.5t273 -58.5q193 0 312.5 76.5t119.5 175.5q0 80 -61.5 112.5t-194.5 32.5h-234q-92 0 -149 18q-160 -85 -160 -206zM330 657.5q0 -118.5 79.5 -195.5t194.5 -77t195 77 t80 195.5t-80 197.5t-195 79t-194.5 -79t-79.5 -197.5zM379 1190q6 78 41 131t102 53q53 0 124 -57t102 -57q66 0 77 114h64q-6 -76 -41 -130t-105 -54q-53 0 -121.5 57.5t-101.5 57.5q-63 0 -80 -115h-61z" />
<glyph d="M199 905v78h583v-983q-125 -129 -125 -238q0 -49 29 -77.5t72 -28.5q47 0 88 29l33 -54q-57 -47 -134 -47q-74 0 -120.5 43t-46.5 123q0 113 129 250h-15v905h-493z" />
<glyph d="M137 489q0 231 137.5 375t327.5 144q164 0 322 -138h4l10 113h76v-983h-78l-10 145h-4q-162 -170 -351 -170q-197 0 -315.5 135t-118.5 379zM233 489q0 -197 94.5 -315.5t256.5 -118.5q168 0 338 181v546q-154 145 -316 146q-156 0 -264.5 -127.5t-108.5 -311.5z" />
<glyph d="M137 489q0 231 137.5 375t327.5 144q164 0 322 -138h4l10 113h76v-983h-78l-10 145h-4q-162 -170 -351 -170q-197 0 -315.5 135t-118.5 379zM233 489q0 -197 94.5 -315.5t256.5 -118.5q168 0 338 181v546q-154 145 -316 146q-156 0 -264.5 -127.5t-108.5 -311.5z M438 1454h109l188 -283h-78z" />
<glyph d="M137 489q0 231 137.5 375t327.5 144q164 0 322 -138h4l10 113h76v-983h-78l-10 145h-4q-162 -170 -351 -170q-197 0 -315.5 135t-118.5 379zM233 489q0 -197 94.5 -315.5t256.5 -118.5q168 0 338 181v546q-154 145 -316 146q-156 0 -264.5 -127.5t-108.5 -311.5z M508 1171l186 283h111l-221 -283h-76z" />
<glyph d="M137 489q0 231 137.5 375t327.5 144q164 0 322 -138h4l10 113h76v-983h-78l-10 145h-4q-162 -170 -351 -170q-197 0 -315.5 135t-118.5 379zM233 489q0 -197 94.5 -315.5t256.5 -118.5q168 0 338 181v546q-154 145 -316 146q-156 0 -264.5 -127.5t-108.5 -311.5z M387 1171l195 283h80l194 -283h-78l-153 207h-9l-153 -207h-76z" />
<glyph d="M137 489q0 231 137.5 375t327.5 144q164 0 322 -138h4l10 113h76v-983h-78l-10 145h-4q-162 -170 -351 -170q-197 0 -315.5 135t-118.5 379zM233 489q0 -197 94.5 -315.5t256.5 -118.5q168 0 338 181v546q-154 145 -316 146q-156 0 -264.5 -127.5t-108.5 -311.5z M367 1190q6 78 40.5 131t102.5 53q53 0 124 -57t101 -57q63 0 80 114h62q-6 -76 -41 -130t-105 -54q-51 0 -120.5 57.5t-102.5 57.5q-63 0 -80 -115h-61z" />
<glyph d="M137 489q0 231 137.5 375t327.5 144q164 0 322 -138h4l10 113h76v-983h-78l-10 145h-4q-162 -170 -351 -170q-197 0 -315.5 135t-118.5 379zM233 489q0 -197 94.5 -315.5t256.5 -118.5q168 0 338 181v546q-154 145 -316 146q-156 0 -264.5 -127.5t-108.5 -311.5z M358 1309q0 37 22.5 61.5t59.5 24.5q35 0 57.5 -24.5t22.5 -61.5q0 -35 -22.5 -59.5t-57.5 -24.5q-37 0 -59.5 23.5t-22.5 60.5zM723 1309q0 37 22.5 61.5t57.5 24.5t58.5 -26t23.5 -60.5t-23.5 -59t-58.5 -24.5t-57.5 24.5t-22.5 59.5z" />
<glyph d="M137 489q0 231 137.5 375t327.5 144q164 0 322 -138h4l10 113h76v-983h-78l-10 145h-4q-162 -170 -351 -170q-197 0 -315.5 135t-118.5 379zM233 489q0 -197 94.5 -315.5t256.5 -118.5q168 0 338 181v546q-154 145 -316 146q-156 0 -264.5 -127.5t-108.5 -311.5z M389 1241v74h465v-74h-465z" />
<glyph d="M137 489q0 231 137.5 375t327.5 144q164 0 322 -138h4l10 113h76v-983h-78l-10 145h-4q-162 -170 -351 -170q-197 0 -315.5 135t-118.5 379zM233 489q0 -197 94.5 -315.5t256.5 -118.5q168 0 338 181v546q-154 145 -316 146q-156 0 -264.5 -127.5t-108.5 -311.5z M377 1427h65q10 -76 55.5 -129t123 -53t122.5 53.5t56 128.5h67q-10 -96 -70.5 -171.5t-175 -75.5t-174 75.5t-69.5 171.5z" />
<glyph d="M137 489q0 231 137.5 375t327.5 144q164 0 322 -138h4l10 113h76v-983h-78l-10 145h-4q-162 -170 -351 -170q-197 0 -315.5 135t-118.5 379zM233 489q0 -197 94.5 -315.5t256.5 -118.5q168 0 338 181v546q-154 145 -316 146q-156 0 -264.5 -127.5t-108.5 -311.5z M453 1280q0 78 48 128t120 50q74 0 122 -49t48 -129q0 -78 -48 -127t-122 -49q-72 0 -120 49t-48 127zM514 1280q0 -55 31 -89t76 -34q47 0 77.5 34t30.5 89t-30.5 90t-77.5 35q-45 0 -76 -35t-31 -90z" />
<glyph d="M137 489q0 231 137.5 375t327.5 144q164 0 322 -138h4l10 113h76v-983h-78l-10 145h-4q-162 -170 -351 -170q-197 0 -315.5 135t-118.5 379zM233 489q0 -197 94.5 -315.5t256.5 -118.5q168 0 338 181v546q-154 145 -316 146q-156 0 -264.5 -127.5t-108.5 -311.5z M387 1454h76l153 -207h9l153 207h78l-194 -283h-80z" />
<glyph d="M137 489q0 231 137.5 375t327.5 144q164 0 322 -138h4l10 113h76v-983h-78l-10 145h-4q-162 -170 -351 -170q-197 0 -315.5 135t-118.5 379zM233 489q0 -197 94.5 -315.5t256.5 -118.5q168 0 338 181v546q-154 145 -316 146q-156 0 -264.5 -127.5t-108.5 -311.5z M528 -332q0 43 28 71t69 28q43 0 69.5 -27t26.5 -72t-26.5 -71.5t-69.5 -26.5q-41 0 -69 26.5t-28 71.5z" />
<glyph d="M137 489q0 231 137.5 375t327.5 144q164 0 322 -138h4l10 113h76v-983h-78l-10 145h-4q-162 -170 -351 -170q-197 0 -315.5 135t-118.5 379zM233 489q0 -197 94.5 -315.5t256.5 -118.5q168 0 338 181v546q-154 145 -316 146q-156 0 -264.5 -127.5t-108.5 -311.5z M512 1393l6 65q248 -12 248 -153q0 -126 -193 -177l-18 54q131 39 131 112q0 92 -174 99z" />
<glyph d="M137 489q0 231 137.5 375t327.5 144q164 0 322 -138h4l10 113h76v-983h-78l-10 145h-4q-162 -170 -351 -170q-197 0 -315.5 135t-118.5 379zM233 489q0 -197 94.5 -315.5t256.5 -118.5q168 0 338 181v546q-154 145 -316 146q-156 0 -264.5 -127.5t-108.5 -311.5z M410 1171l172 234h80l169 -234h-71l-135 160h-9l-133 -160h-73zM780 1305l158 227h96l-186 -227h-68z" />
<glyph d="M137 489q0 231 137.5 375t327.5 144q164 0 322 -138h4l10 113h76v-983h-78l-10 145h-4q-162 -170 -351 -170q-197 0 -315.5 135t-118.5 379zM233 489q0 -197 94.5 -315.5t256.5 -118.5q168 0 338 181v546q-154 145 -316 146q-156 0 -264.5 -127.5t-108.5 -311.5z M410 1171l172 234h80l169 -234h-71l-135 160h-9l-133 -160h-73zM723 1532h94l158 -227h-68z" />
<glyph d="M137 489q0 231 137.5 375t327.5 144q164 0 322 -138h4l10 113h76v-983h-78l-10 145h-4q-162 -170 -351 -170q-197 0 -315.5 135t-118.5 379zM233 489q0 -197 94.5 -315.5t256.5 -118.5q168 0 338 181v546q-154 145 -316 146q-156 0 -264.5 -127.5t-108.5 -311.5z M410 1171l172 234h80l169 -234h-71l-135 160h-9l-133 -160h-73zM770 1526l8 59q215 -8 215 -143q0 -63 -44 -98t-118 -58l-16 51q100 35 100 95q0 88 -145 94z" />
<glyph d="M137 489q0 231 137.5 375t327.5 144q164 0 322 -138h4l10 113h76v-983h-78l-10 145h-4q-162 -170 -351 -170q-197 0 -315.5 135t-118.5 379zM233 489q0 -197 94.5 -315.5t256.5 -118.5q168 0 338 181v546q-154 145 -316 146q-156 0 -264.5 -127.5t-108.5 -311.5z M373 1446q6 66 42 112t103 46q53 0 114.5 -46.5t94.5 -46.5q72 0 84 93h59q-6 -66 -41.5 -112t-103.5 -46q-53 0 -114.5 46t-94.5 46q-72 0 -84 -92h-59zM393 1167l187 205h84l184 -205h-74l-149 142h-9l-147 -142h-76z" />
<glyph d="M137 489q0 231 137.5 375t327.5 144q164 0 322 -138h4l10 113h76v-983h-78l-10 145h-4q-162 -170 -351 -170q-197 0 -315.5 135t-118.5 379zM233 489q0 -197 94.5 -315.5t256.5 -118.5q168 0 338 181v546q-154 145 -316 146q-156 0 -264.5 -127.5t-108.5 -311.5z M387 1171l195 283h80l194 -283h-78l-153 207h-9l-153 -207h-76zM526 -332q0 45 28 72t69 27t68.5 -28t27.5 -71q0 -45 -27.5 -71.5t-68.5 -26.5q-43 0 -70 26.5t-27 71.5z" />
<glyph d="M137 489q0 231 137.5 375t327.5 144q164 0 322 -138h4l10 113h76v-983h-78l-10 145h-4q-162 -170 -351 -170q-197 0 -315.5 135t-118.5 379zM233 489q0 -197 94.5 -315.5t256.5 -118.5q168 0 338 181v546q-154 145 -316 146q-156 0 -264.5 -127.5t-108.5 -311.5z M379 1423h61q10 -76 56.5 -128t124 -52t124 52.5t56.5 127.5h63q-10 -94 -69 -168.5t-174 -74.5q-113 0 -172.5 74.5t-69.5 168.5zM555 1366l152 225h94l-176 -225h-70z" />
<glyph d="M137 489q0 231 137.5 375t327.5 144q164 0 322 -138h4l10 113h76v-983h-78l-10 145h-4q-162 -170 -351 -170q-197 0 -315.5 135t-118.5 379zM233 489q0 -197 94.5 -315.5t256.5 -118.5q168 0 338 181v546q-154 145 -316 146q-156 0 -264.5 -127.5t-108.5 -311.5z M379 1423h61q10 -76 56.5 -128t124 -52t124 52.5t56.5 127.5h63q-10 -94 -69 -168.5t-174 -74.5q-113 0 -172.5 74.5t-69.5 168.5zM440 1591h97l149 -225h-68z" />
<glyph d="M137 489q0 231 137.5 375t327.5 144q164 0 322 -138h4l10 113h76v-983h-78l-10 145h-4q-162 -170 -351 -170q-197 0 -315.5 135t-118.5 379zM233 489q0 -197 94.5 -315.5t256.5 -118.5q168 0 338 181v546q-154 145 -316 146q-156 0 -264.5 -127.5t-108.5 -311.5z M379 1423h61q10 -76 56.5 -128t124 -52t124 52.5t56.5 127.5h63q-10 -94 -69 -168.5t-174 -74.5q-113 0 -172.5 74.5t-69.5 168.5zM516 1622l6 59q217 -8 217 -141q0 -66 -43.5 -99.5t-117.5 -58.5l-19 54q102 33 103 92q0 88 -146 94z" />
<glyph d="M137 489q0 231 137.5 375t327.5 144q164 0 322 -138h4l10 113h76v-983h-78l-10 145h-4q-162 -170 -351 -170q-197 0 -315.5 135t-118.5 379zM233 489q0 -197 94.5 -315.5t256.5 -118.5q168 0 338 181v546q-154 145 -316 146q-156 0 -264.5 -127.5t-108.5 -311.5z M373 1446q6 66 42 112t103 46q53 0 114.5 -46.5t94.5 -46.5q72 0 84 93h59q-6 -66 -41.5 -112t-103.5 -46q-53 0 -114.5 46t-94.5 46q-72 0 -84 -92h-59zM381 1382h65q10 -59 54.5 -99t120 -40t120.5 40t56 99h63q-8 -84 -66.5 -143t-173 -59t-172 59t-67.5 143z" />
<glyph d="M137 489q0 231 137.5 375t327.5 144q164 0 322 -138h4l10 113h76v-983h-78l-10 145h-4q-162 -170 -351 -170q-197 0 -315.5 135t-118.5 379zM233 489q0 -197 94.5 -315.5t256.5 -118.5q168 0 338 181v546q-154 145 -316 146q-156 0 -264.5 -127.5t-108.5 -311.5z M377 1427h65q10 -76 55.5 -129t123 -53t122.5 53.5t56 128.5h67q-10 -96 -70.5 -171.5t-175 -75.5t-174 75.5t-69.5 171.5zM526 -332q0 45 28 72t69 27t68.5 -28t27.5 -71q0 -45 -27.5 -71.5t-68.5 -26.5q-43 0 -70 26.5t-27 71.5z" />
<glyph d="M137 489q0 231 137.5 375t327.5 144q164 0 322 -138h4l10 113h76v-983q-178 -109 -178 -238q0 -49 29.5 -77.5t70.5 -28.5q51 0 88 29l33 -54q-55 -47 -133 -47q-72 0 -119 43t-47 123q0 133 178 264l-10 131h-4q-162 -170 -351 -170q-197 0 -315.5 135t-118.5 379z M233 489q0 -197 94.5 -315.5t256.5 -118.5q168 0 338 181v546q-154 145 -316 146q-156 0 -264.5 -127.5t-108.5 -311.5z" />
<glyph d="M137 504q0 225 136.5 364.5t328.5 139.5q168 0 322 -138h4l10 113h76v-1065q0 -178 -116 -282.5t-312 -104.5q-211 0 -373 107l41 71q150 -102 332 -102q158 0 247 86t91 235v242q-68 -74 -162 -122t-191 -48q-197 0 -315.5 133t-118.5 371zM231 504q0 -193 94.5 -308.5 t258.5 -115.5q170 0 338 180v522q-154 145 -316 146q-156 0 -265.5 -123t-109.5 -301z" />
<glyph d="M137 504q0 225 136.5 364.5t328.5 139.5q168 0 322 -138h4l10 113h76v-1065q0 -178 -116 -282.5t-312 -104.5q-211 0 -373 107l41 71q150 -102 332 -102q158 0 247 86t91 235v242q-68 -74 -162 -122t-191 -48q-197 0 -315.5 133t-118.5 371zM231 504q0 -193 94.5 -308.5 t258.5 -115.5q170 0 338 180v522q-154 145 -316 146q-156 0 -265.5 -123t-109.5 -301zM393 1171l195 283h80l194 -283h-78l-153 207h-8l-154 -207h-76z" />
<glyph d="M137 504q0 225 136.5 364.5t328.5 139.5q168 0 322 -138h4l10 113h76v-1065q0 -178 -116 -282.5t-312 -104.5q-211 0 -373 107l41 71q150 -102 332 -102q158 0 247 86t91 235v242q-68 -74 -162 -122t-191 -48q-197 0 -315.5 133t-118.5 371zM231 504q0 -193 94.5 -308.5 t258.5 -115.5q170 0 338 180v522q-154 145 -316 146q-156 0 -265.5 -123t-109.5 -301zM383 1427h66q10 -76 55 -129t123 -53t123 53.5t55 128.5h67q-10 -96 -70.5 -171.5t-175 -75.5t-174 75.5t-69.5 171.5z" />
<glyph d="M137 504q0 225 136.5 364.5t328.5 139.5q168 0 322 -138h4l10 113h76v-1065q0 -178 -116 -282.5t-312 -104.5q-211 0 -373 107l41 71q150 -102 332 -102q158 0 247 86t91 235v242q-68 -74 -162 -122t-191 -48q-197 0 -315.5 133t-118.5 371zM231 504q0 -193 94.5 -308.5 t258.5 -115.5q170 0 338 180v522q-154 145 -316 146q-156 0 -265.5 -123t-109.5 -301zM530 1319q0 43 28 70.5t69 27.5t68.5 -26.5t27.5 -71.5t-27.5 -71.5t-68.5 -26.5t-69 27.5t-28 70.5z" />
<glyph d="M137 504q0 225 136.5 364.5t328.5 139.5q168 0 322 -138h4l10 113h76v-1065q0 -178 -116 -282.5t-312 -104.5q-211 0 -373 107l41 71q150 -102 332 -102q158 0 247 86t91 235v242q-68 -74 -162 -122t-191 -48q-197 0 -315.5 133t-118.5 371zM231 504q0 -193 94.5 -308.5 t258.5 -115.5q170 0 338 180v522q-154 145 -316 146q-156 0 -265.5 -123t-109.5 -301zM506 1253q0 74 72.5 117t183.5 57l14 -61q-190 -29 -190 -102q0 -76 114 -101l-24 -59q-86 16 -128 52t-42 97z" />
<glyph d="M137 504q0 225 136.5 364.5t328.5 139.5q168 0 322 -138h4l10 113h76v-1065q0 -178 -116 -282.5t-312 -104.5q-211 0 -373 107l41 71q150 -102 332 -102q158 0 247 86t91 235v242q-68 -74 -162 -122t-191 -48q-197 0 -315.5 133t-118.5 371zM231 504q0 -193 94.5 -308.5 t258.5 -115.5q170 0 338 180v522q-154 145 -316 146q-156 0 -265.5 -123t-109.5 -301zM393 1454h76l154 -207h8l153 207h78l-194 -283h-80z" />
<glyph d="M137 504q0 225 136.5 364.5t328.5 139.5q168 0 322 -138h4l10 113h76v-1065q0 -178 -116 -282.5t-312 -104.5q-211 0 -373 107l41 71q150 -102 332 -102q158 0 247 86t91 235v242q-68 -74 -162 -122t-191 -48q-197 0 -315.5 133t-118.5 371zM231 504q0 -193 94.5 -308.5 t258.5 -115.5q170 0 338 180v522q-154 145 -316 146q-156 0 -265.5 -123t-109.5 -301zM395 1241v74h465v-74h-465z" />
<glyph d="M137 504q0 225 136.5 364.5t328.5 139.5q168 0 322 -138h4l10 113h76v-1065q0 -178 -116 -282.5t-312 -104.5q-211 0 -373 107l41 71q150 -102 332 -102q158 0 247 86t91 235v242q-68 -74 -162 -122t-191 -48q-197 0 -315.5 133t-118.5 371zM231 504q0 -193 94.5 -308.5 t258.5 -115.5q170 0 338 180v522q-154 145 -316 146q-156 0 -265.5 -123t-109.5 -301zM373 1190q6 78 41 131t102 53q53 0 124 -57t101 -57q63 0 80 114h62q-6 -76 -41 -130t-105 -54q-53 0 -120.5 57.5t-102.5 57.5q-63 0 -80 -115h-61z" />
<glyph d="M166 592q0 289 117.5 445.5t330.5 156.5t331 -156.5t118 -445.5q0 -295 -117 -456t-332 -161t-331.5 161t-116.5 456zM256 592q0 -262 97.5 -400.5t261 -138.5t261 138.5t97.5 400.5q0 252 -97.5 388t-261 136t-261 -136t-97.5 -388zM502 610.5q0 57.5 33.5 90t78.5 32.5 t79 -32.5t34 -90t-34 -91.5t-79 -34t-78.5 34t-33.5 91.5z" />
<glyph d="M221 0v80h391v944h-284v63q176 23 307 82h67v-1089h367v-80h-848z" />
<glyph d="M162 999q195 195 411 195q190 0 298 -102.5t108 -278.5q0 -154 -162 -330t-491 -411q205 10 245 10h482v-82h-885v57q371 252 546 433.5t175 320.5q0 137 -81 220t-243 83q-188 0 -344 -170z" />
<glyph d="M137 14l51 64q168 -168 410 -168q154 0 254 80t100 211q0 141 -129 222t-393 81v80q242 0 357.5 79.5t115.5 206.5q0 111 -86 177.5t-225 66.5q-203 0 -346 -143l-56 63q178 160 404 160q174 0 288.5 -85t114.5 -232q0 -123 -80.5 -205t-216.5 -121v-8q145 -27 246 -117 t101 -223q0 -168 -128 -270.5t-321 -102.5q-273 0 -461 184z" />
<glyph d="M86 207v57l717 907h71v-882h228v-82h-228v-352h-88v352h-700zM207 289h579v555q2 33 5.5 99.5t5.5 98.5h-13q-53 -84 -127 -182z" />
<glyph d="M127 6l51 64q84 -76 176 -118t234 -42q156 0 265.5 99.5t109.5 254.5q0 158 -99.5 248t-271.5 90q-137 0 -293 -86l-63 39l49 614h704v-82h-622l-43 -473q139 68 282 68q203 0 327 -103.5t124 -310.5q0 -201 -139.5 -319.5t-329.5 -118.5q-160 0 -264.5 47t-196.5 129z " />
<glyph d="M180 594q0 199 44 346t121 230t171 123t205 40q193 0 334 -127l-56 -61q-115 109 -280 108q-195 0 -320 -153.5t-127 -491.5q188 182 402 183q190 0 298.5 -105.5t108.5 -300.5q0 -176 -122.5 -293t-292.5 -117q-225 0 -355.5 162t-130.5 457zM274 514q16 -215 115 -338 t279 -123q139 0 231 95.5t92 236.5q0 158 -84 243t-245 85q-209 0 -388 -199z" />
<glyph d="M152 1087v82h929v-55q-260 -301 -360 -578.5t-119 -680.5h-100q14 393 119.5 668.5t343.5 563.5h-813z" />
<glyph d="M147 336q0 229 304 366v9q-205 117 -205 303q0 141 107.5 230t271.5 89q186 0 290.5 -95t104.5 -247q0 -90 -58.5 -176t-150.5 -151v-9q135 -66 200.5 -137.5t65.5 -200.5q0 -147 -121.5 -244.5t-332.5 -97.5q-215 0 -345.5 101.5t-130.5 259.5zM238 340 q0 -125 105.5 -207t281.5 -82q170 0 265 76t95 192q0 59 -23.5 106.5t-51 76t-94 60.5t-106.5 46.5t-134 42.5q-37 12 -58 19q-135 -66 -207.5 -141.5t-72.5 -188.5zM334 1014q0 -127 100 -197t297 -131q201 135 201 303q0 115 -82 191.5t-227 76.5q-129 0 -209 -68.5 t-80 -174.5z" />
<glyph d="M154 782q0 176 122.5 294t292.5 118q225 0 355.5 -162t130.5 -457q0 -387 -152.5 -566t-386.5 -179q-193 0 -336 127l56 61q115 -109 280 -108q195 0 321 154.5t128 494.5q-188 -184 -402 -184q-190 0 -299.5 105.5t-109.5 301.5zM244 782q0 -158 83.5 -244.5 t245.5 -86.5q209 0 390 200q-14 217 -113.5 341t-282.5 124q-137 0 -230 -96t-93 -238z" />
<glyph d="M123 670q0 330 166 517t428 187q193 0 294 -114.5t101 -292.5v-602h-65l-11 127h-8q-51 -61 -132 -106.5t-155 -45.5q-113 0 -188.5 67.5t-75.5 190.5q0 147 138.5 231t420.5 117v25q0 145 -81 238.5t-244 93.5q-217 0 -361.5 -172.5t-144.5 -466.5q0 -283 138 -451 t357 -168q176 0 299 98l41 -57q-152 -115 -340 -115q-248 0 -412.5 187.5t-164.5 511.5zM561 598q0 -86 53.5 -135t143.5 -49q135 0 274 164v301q-250 -35 -360.5 -101.5t-110.5 -179.5z" />
<glyph d="M541 963q0 35 21.5 55t52 20t52 -20.5t21.5 -54.5q0 -37 -20.5 -57.5t-53 -20.5t-53 20.5t-20.5 57.5z" />
<glyph d="M520 735q115 49 117 164q-6 -2 -19 -2q-31 0 -52 16.5t-21 49.5q0 35 22.5 55t50.5 20q90 0 91 -120q0 -76 -45 -140.5t-117 -95.5z" />
<glyph d="M541 -287q0 35 21.5 55.5t52 20.5t52 -20.5t21.5 -55.5q0 -37 -20.5 -57.5t-53 -20.5t-53 20.5t-20.5 57.5z" />
<glyph d="M520 -514q115 49 117 164q-6 -2 -19 -2q-31 0 -52 16.5t-21 48.5q0 35 22.5 55.5t50.5 20.5q90 0 91 -121q0 -76 -45 -140t-117 -95z" />
<glyph d="M340 313q0 156 74.5 242t199.5 86t200 -86t75 -242q0 -158 -76 -248t-198.5 -90t-198.5 90.5t-76 247.5zM420 313q0 -127 54 -199.5t140 -72.5t140.5 72.5t54.5 199.5t-54.5 194.5t-140.5 67.5t-140 -67.5t-54 -194.5z" />
<glyph d="M440 494v59q100 18 183 63h63v-616h-78v494h-168z" />
<glyph d="M373 522q96 119 225 119q104 0 161.5 -53t57.5 -152q0 -20 -4 -38.5t-15.5 -40t-19.5 -37t-29.5 -40t-34 -38t-43 -41t-45 -41t-51 -46t-53.5 -46.5h330v-68h-463v49q150 121 205 169t99 106.5t44 109.5q0 66 -37.5 102.5t-105.5 36.5q-96 0 -166 -94z" />
<glyph d="M360 100l56 50q72 -109 196 -109q150 0 150 119q0 125 -223 125v57q96 0 144 35t48 92q0 106 -133 106q-94 0 -160 -77l-47 47q76 96 217 96q92 0 147.5 -43t55.5 -123q0 -115 -119 -158q68 -12 109 -53t41 -106q0 -88 -63.5 -135.5t-168.5 -47.5q-72 0 -140.5 36 t-109.5 89z" />
<glyph d="M365 164v41l337 411h70v-393h102v-59h-102v-164h-74v164h-333zM459 223h239v156l9 147h-9l-102 -135z" />
<glyph d="M360 100l56 50q84 -109 198 -109q72 0 117 40t45 105q0 70 -43 109t-121 39q-70 0 -147 -60l-47 33l37 309h358v-71h-291l-26 -185q57 33 129 33q104 0 167.5 -54t63.5 -153q0 -96 -67.5 -153.5t-174.5 -57.5q-143 0 -254 125z" />
<glyph d="M379 268q0 188 84 280.5t219 92.5q88 0 172 -55l-37 -60q-68 49 -137 49q-94 0 -157.5 -68.5t-69.5 -209.5q98 78 202 78q106 0 159.5 -54.5t53.5 -140.5t-63.5 -145.5t-161.5 -59.5q-111 0 -187.5 79t-76.5 214zM455 225q12 -88 65 -136t125 -48q68 0 107 38t39 101 q0 133 -146 133q-96 0 -190 -88z" />
<glyph d="M381 549v67h471v-49q-129 -141 -176 -266t-58 -301h-77q10 172 59 295t158 254h-377z" />
<glyph d="M369 154q0 102 137 170v8q-111 66 -111 145q0 70 64.5 117t154.5 47q96 0 159 -47t63 -117q0 -90 -109 -155v-9q133 -53 133 -159q0 -76 -70.5 -127.5t-175.5 -51.5q-109 0 -177 52.5t-68 126.5zM446 156q0 -49 48.5 -83t119.5 -34q66 0 117 32.5t51 80.5q0 16 -3 28.5 t-12 24.5t-16.5 20t-23.5 16.5t-25.5 14.5t-32 13t-31.5 10.5t-34.5 11.5t-36.5 10q-121 -55 -121 -145zM473 477q1 -82 191 -133q96 53 96 131q0 45 -39 74t-107 29q-66 0 -103.5 -29t-37.5 -72z" />
<glyph d="M365 438q0 86 63.5 144.5t161.5 58.5q111 0 187.5 -79t76.5 -214q0 -186 -85 -279.5t-218 -93.5q-84 1 -172 58l37 57q68 -49 137 -49q94 0 154.5 68.5t68.5 209.5q-94 -78 -201 -77q-104 0 -157 55t-53 141zM442 438q0 -133 146 -133q100 0 186 84q-10 90 -62.5 138 t-123.5 48q-68 0 -107 -38t-39 -99z" />
<glyph d="M510 317q0 266 213 461l53 -49q-176 -162 -176 -412q0 -248 176 -409l-53 -49q-213 194 -213 458z" />
<glyph d="M453 -92q176 162 176 409q0 250 -176 412l53 49q213 -195 213 -461q0 -264 -213 -458z" />
<glyph d="M541 61q0 35 21.5 55.5t52 20.5t52 -20.5t21.5 -55.5q0 -37 -20.5 -57t-53 -20t-53 20t-20.5 57z" />
<glyph d="M520 -166q115 49 117 164q-6 -2 -19 -2q-31 0 -52 16.5t-21 48.5q0 35 22.5 55.5t50.5 20.5q90 0 91 -121q0 -76 -45 -140t-117 -95z" />
<glyph d="M340 1006q0 156 74.5 241.5t199.5 85.5t200 -86t75 -241q0 -158 -76 -248t-198.5 -90t-198.5 90t-76 248zM420 1006q0 -127 54 -200t140 -73t140.5 73t54.5 200t-54.5 194.5t-140.5 67.5t-140 -67.5t-54 -194.5z" />
<glyph d="M440 1186v59q100 18 183 64h63v-617h-78v494h-168z" />
<glyph d="M375 1214q92 119 223 119q104 0 161.5 -53t57.5 -152q0 -20 -4 -38.5t-15.5 -40t-19.5 -37t-29.5 -40t-34 -37.5t-43 -41t-45 -41t-51 -46t-53.5 -47h330v-68h-463v49q150 121 205 169t99 106.5t44 109.5q0 66 -37.5 103t-105.5 37q-96 0 -166 -95z" />
<glyph d="M360 793l56 49q72 -109 196 -109q150 0 150 119q0 125 -223 125v57q96 0 144 35t48 92q0 106 -133 107q-94 0 -160 -78l-47 47q76 96 217 96q92 0 147.5 -44t55.5 -122q0 -115 -119 -157q68 -12 109 -53.5t41 -106.5q0 -88 -63.5 -135t-168.5 -47q-72 0 -140.5 36 t-109.5 89z" />
<glyph d="M365 856v41l337 412h70v-394h102v-59h-102v-164h-74v164h-333zM459 915h239v156l9 148h-9l-102 -136z" />
<glyph d="M360 793l56 49q84 -109 198 -109q72 0 117 40t45 106q0 70 -43 108.5t-121 38.5q-70 0 -147 -59l-47 32l37 310h358v-72h-291l-26 -184q57 33 129 32q104 0 167.5 -54t63.5 -152q0 -96 -67.5 -153.5t-174.5 -57.5q-143 0 -254 125z" />
<glyph d="M375 961q0 188 85 280t218 92q88 0 172 -55l-37 -59q-68 49 -137 49q-94 0 -157.5 -69t-69.5 -210q98 78 204 78q104 0 157.5 -54.5t53.5 -140.5t-63.5 -145t-161.5 -59q-111 0 -187.5 78.5t-76.5 214.5zM451 915q12 -88 65 -135t125 -47q68 0 106.5 38t38.5 101 q0 133 -145 134q-100 0 -190 -91z" />
<glyph d="M381 1241v68h471v-49q-129 -141 -176 -266.5t-58 -301.5h-77q10 172 59 295t158 254h-377z" />
<glyph d="M369 846q0 102 137 170v8q-111 66 -111 145q0 70 64.5 117t154.5 47q96 0 159 -47t63 -117q0 -90 -109 -155v-8q133 -53 133 -160q0 -76 -70.5 -127t-175.5 -51q-109 0 -177 52t-68 126zM446 848q0 -49 48.5 -83t119.5 -34q66 0 117 33t51 80q0 16 -3 28.5t-12 24.5 t-16.5 20.5t-23.5 16.5t-25.5 14t-31.5 14l-32 10q-9 3 -34.5 11t-36.5 10q-121 -55 -121 -145zM473 1169q1 -82 191 -133q96 53 96 131q0 45 -39 74t-107 29q-66 0 -103.5 -29t-37.5 -72z" />
<glyph d="M365 1130.5q0 86.5 63.5 144.5t161.5 58q111 0 187.5 -78.5t76.5 -214.5q0 -186 -85 -279t-218 -93q-90 0 -172 57l37 57q68 -49 137 -49q94 0 154.5 68.5t68.5 210.5q-94 -78 -201 -78q-104 0 -157 55t-53 141.5zM442 1130q0 -133 146 -133q100 0 186 84 q-10 90 -62.5 138.5t-123.5 48.5q-68 0 -107 -38.5t-39 -99.5z" />
<glyph d="M510 868q0 266 213 461l53 -49q-176 -162 -176 -412q0 -248 176 -409l-53 -49q-213 194 -213 458z" />
<glyph d="M453 459q176 162 176 409q0 250 -176 412l53 49q213 -195 213 -461q0 -264 -213 -458z" />
<glyph d="M541 612.5q0 34.5 21.5 55t52 20.5t52 -20.5t21.5 -55t-20.5 -56t-53 -21.5t-53 21.5t-20.5 56z" />
<glyph d="M520 385q115 49 117 164q-6 -2 -19 -2q-31 0 -52 17.5t-21 47.5q0 35 22.5 55.5t50.5 20.5q90 0 91 -121q0 -76 -45 -140t-117 -95z" />
<glyph d="M291 858q0 154 89 248t214 94q109 0 205 -78h4l6 62h70v-652h-70l-8 82h-2q-106 -98 -224 -98q-131 0 -207.5 90t-76.5 252zM377 858q0 -125 56 -197.5t159 -72.5q104 0 203 98v367q-94 78 -190.5 77.5t-162 -78t-65.5 -194.5z" />
<glyph d="M291 858q0 154 89 248t214 94q104 0 205 -76h4l8 60h68v-938h-84v243l6 121q-113 -94 -226 -94q-131 0 -207.5 90t-76.5 252zM377 858q0 -125 56 -197.5t159 -72.5q104 0 203 98v367q-94 78 -190.5 77.5t-162 -78t-65.5 -194.5z" />
<glyph d="M342 858q0 154 92 248t217 94q129 0 203 -81t74 -222q0 -29 -6 -53h-496q4 -117 73.5 -188.5t180.5 -71.5q96 0 186 55l33 -57q-115 -66 -229 -66q-139 0 -233.5 93t-94.5 249zM426 903h426q0 111 -53.5 170.5t-145.5 59.5q-86 0 -151.5 -63t-75.5 -167zM514 1499h94 l125 -192h-67z" />
<glyph d="M342 858q0 154 92 248t217 94q129 0 203 -81t74 -222q0 -29 -6 -53h-496q4 -117 73.5 -188.5t180.5 -71.5q96 0 186 55l33 -57q-115 -66 -229 -66q-139 0 -233.5 93t-94.5 249zM426 903h426q0 111 -53.5 170.5t-145.5 59.5q-86 0 -151.5 -63t-75.5 -167zM567 1307 l127 192h92l-151 -192h-68z" />
<glyph d="M291 858q0 154 89 248t214 94q109 0 205 -78h4l6 62h70v-652h-70l-8 82h-2q-106 -98 -224 -98q-131 0 -207.5 90t-76.5 252zM377 858q0 -125 56 -197.5t159 -72.5q104 0 203 98v367q-94 78 -190.5 77.5t-162 -78t-65.5 -194.5z" />
<glyph d="M291 866q0 150 89 242t214 92q109 0 203 -76h2l8 60h72v-697q0 -119 -77 -187.5t-214 -68.5q-133 0 -246 70l33 61q100 -66 213 -65q100 0 153.5 52t53.5 145l2 137q-104 -96 -222 -96q-131 0 -207.5 88t-76.5 243zM377 868q0 -121 56.5 -191.5t158.5 -70.5 q104 0 203 101v346q-94 78 -190.5 77.5t-162 -75t-65.5 -187.5z" />
<glyph d="M72 129l370 403l45 -40l-350 -420zM741 858l351 420l65 -57l-371 -404z" />
<glyph d="M383 1669h119l188 -217h-82z" />
<glyph d="M539 1452l188 217h119l-225 -217h-82z" />
<glyph d="M375 1452l196 217h86l197 -217h-82l-154 147h-8l-153 -147h-82z" />
<glyph d="M348 1466q4 76 42 132.5t104 56.5q57 0 130.5 -57.5t112.5 -57.5q33 0 55.5 31t28.5 84h60q-6 -76 -44.5 -132.5t-101.5 -56.5q-57 0 -131 58.5t-112 58.5q-33 0 -55.5 -31.5t-28.5 -85.5h-60z" />
<glyph d="M381 1503v74h467v-74h-467z" />
<glyph d="M379 1669h67q10 -61 52.5 -104t116 -43t115.5 43t52 104h68q-10 -84 -69.5 -148.5t-166 -64.5t-166 64.5t-69.5 148.5z" />
<glyph d="M532 1561q0 35 24 57t58.5 22t58 -22.5t23.5 -56.5q0 -37 -23.5 -60.5t-58 -23.5t-58.5 23.5t-24 60.5z" />
<glyph d="M379 1559q0 35 20.5 55t53 20t54 -20.5t21.5 -54.5q0 -33 -21.5 -53.5t-54 -20.5t-53 20.5t-20.5 53.5zM700 1559q0 35 21.5 55t54.5 20t53.5 -20.5t20.5 -54.5q0 -33 -20.5 -53.5t-53.5 -20.5t-54.5 20.5t-21.5 53.5z" />
<glyph d="M504 1702l8 65q109 -4 178.5 -41.5t69.5 -109.5q0 -125 -195 -178l-16 55q129 39 129 111q0 92 -174 98z" />
<glyph d="M446 1602q0 74 47.5 120.5t120.5 46.5q70 0 119 -47t49 -120q0 -76 -48 -122t-120 -46q-74 0 -121 46t-47 122zM508 1602q0 -55 29.5 -85t76.5 -30q45 0 75 30.5t30 84.5q0 51 -31 82.5t-74 31.5q-45 0 -75.5 -30.5t-30.5 -83.5z" />
<glyph d="M426 1452l137 217h101l-164 -217h-74zM723 1452l137 217h101l-164 -217h-74z" />
<glyph d="M375 1669h82l153 -147h8l154 147h82l-197 -217h-86z" />
<glyph d="M268 1669h101l137 -217h-74zM565 1669h101l137 -217h-74z" />
<glyph d="M449 -365q188 27 188 105q0 73 -135 108l82 156h71l-59 -115q123 -43 123 -141q0 -141 -258 -174z" />
<glyph d="M506 -252q0 145 145 260h86q-152 -113 -151 -246q0 -51 30.5 -78.5t73.5 -27.5q51 0 88 29l35 -56q-61 -49 -135 -49t-123 43t-49 125z" />
<glyph d="M379 1530v67h467v-67h-467zM381 1298.5q0 30.5 20.5 51t51 20.5t52 -20.5t21.5 -51t-21.5 -52t-52 -21.5t-51 21.5t-20.5 52zM702 1298.5q0 30.5 21.5 51t52.5 20.5t51.5 -20.5t20.5 -51t-20.5 -52t-51.5 -21.5t-52.5 21.5t-21.5 52z" />
<glyph d="M381 1556.5q0 32.5 20.5 53t51 20.5t52 -20.5t21.5 -53t-21.5 -52t-52 -19.5t-51 19.5t-20.5 52zM381 1749v68h467v-68h-467zM702 1556.5q0 32.5 21.5 53t52.5 20.5t51.5 -20.5t20.5 -53t-20.5 -52t-51.5 -19.5t-52.5 19.5t-21.5 52z" />
<glyph d="M381 1298.5q0 30.5 20.5 51t51 20.5t52 -20.5t21.5 -51t-21.5 -52t-52 -21.5t-51 21.5t-20.5 52zM526 1454l164 201h107l-197 -201h-74zM702 1298.5q0 30.5 21.5 51t52.5 20.5t51.5 -20.5t20.5 -51t-20.5 -52t-51.5 -21.5t-52.5 21.5t-21.5 52z" />
<glyph d="M381 1556.5q0 32.5 20.5 53t51 20.5t52 -20.5t21.5 -53t-21.5 -52t-52 -19.5t-51 19.5t-20.5 52zM539 1698l192 217h111l-224 -217h-79zM702 1556.5q0 32.5 21.5 53t52.5 20.5t51.5 -20.5t20.5 -53t-20.5 -52t-51.5 -19.5t-52.5 19.5t-21.5 52z" />
<glyph d="M381 1298.5q0 30.5 20.5 51t51 20.5t52 -20.5t21.5 -51t-21.5 -52t-52 -21.5t-51 21.5t-20.5 52zM383 1655h80l147 -137h8l148 137h80l-191 -201h-82zM702 1298.5q0 30.5 21.5 51t52.5 20.5t51.5 -20.5t20.5 -51t-20.5 -52t-51.5 -21.5t-52.5 21.5t-21.5 52z" />
<glyph d="M375 1915h82l153 -148h8l154 148h82l-197 -217h-86zM381 1556.5q0 32.5 20.5 53t51 20.5t52 -20.5t21.5 -53t-21.5 -52t-52 -19.5t-51 19.5t-20.5 52zM702 1556.5q0 32.5 21.5 53t52.5 20.5t51.5 -20.5t20.5 -53t-20.5 -52t-51.5 -19.5t-52.5 19.5t-21.5 52z" />
<glyph d="M381 1298.5q0 30.5 20.5 51t51 20.5t52 -20.5t21.5 -51t-21.5 -52t-52 -21.5t-51 21.5t-20.5 52zM432 1655h107l163 -201h-73zM702 1298.5q0 30.5 21.5 51t52.5 20.5t51.5 -20.5t20.5 -51t-20.5 -52t-51.5 -21.5t-52.5 21.5t-21.5 52z" />
<glyph d="M381 1556.5q0 32.5 20.5 53t51 20.5t52 -20.5t21.5 -53t-21.5 -52t-52 -19.5t-51 19.5t-20.5 52zM387 1915h111l192 -217h-80zM702 1556.5q0 32.5 21.5 53t52.5 20.5t51.5 -20.5t20.5 -53t-20.5 -52t-51.5 -19.5t-52.5 19.5t-21.5 52z" />
<glyph d="M403 1171l172 234h78l172 -234h-73l-134 160h-8l-133 -160h-74zM774 1305l158 227h94l-184 -227h-68z" />
<glyph d="M387 1452l186 205h82l187 -205h-80l-144 135h-8l-143 -135h-80zM776 1577l146 217h98l-176 -217h-68z" />
<glyph d="M403 1171l172 234h78l172 -234h-73l-134 160h-8l-133 -160h-74zM715 1532h96l158 -227h-68z" />
<glyph d="M387 1452l186 205h82l187 -205h-80l-144 135h-8l-143 -135h-80zM682 1794h96l148 -217h-68z" />
<glyph d="M403 1171l172 234h78l172 -234h-73l-134 160h-8l-133 -160h-74zM764 1526l6 59q217 -8 217 -143q0 -63 -44 -97t-118 -59l-16 51q100 35 100 95q0 88 -145 94z" />
<glyph d="M387 1452l186 205h82l187 -205h-80l-144 135h-8l-143 -135h-80zM758 1778l10 63q217 -10 217 -139q0 -113 -162 -152l-20 56q104 27 104 86q0 45 -35.5 63.5t-113.5 22.5z" />
<glyph d="M367 1446q4 66 40.5 112t102.5 46q53 0 114.5 -46.5t94.5 -46.5q72 0 86 93h57q-4 -66 -41 -112t-102 -46q-53 0 -114.5 46t-94.5 46q-72 0 -86 -92h-57zM387 1167l186 205h82l187 -205h-74l-150 142h-8l-149 -142h-74z" />
<glyph d="M365 1731q6 66 41.5 111.5t103.5 45.5q53 0 115.5 -46t95.5 -46q72 0 84 92h59q-6 -66 -42 -111.5t-103 -45.5q-53 0 -115.5 46t-95.5 46q-72 0 -84 -92h-59zM387 1452l186 205h82l187 -205h-80l-144 135h-8l-143 -135h-80z" />
<glyph d="M371 1423h63q10 -76 56.5 -128t124 -52t123.5 52.5t57 127.5h63q-12 -96 -70.5 -169.5t-173 -73.5t-173 73.5t-70.5 169.5zM549 1366l151 225h95l-177 -225h-69z" />
<glyph d="M383 1661h63q33 -141 168.5 -141t167.5 141h64q-10 -80 -69.5 -142.5t-162 -62.5t-162 62.5t-69.5 142.5zM543 1636l162 199h100l-195 -199h-67z" />
<glyph d="M371 1423h63q10 -76 56.5 -128t124 -52t123.5 52.5t57 127.5h63q-12 -96 -70.5 -169.5t-173 -73.5t-173 73.5t-70.5 169.5zM434 1591h94l152 -225h-70z" />
<glyph d="M383 1661h63q33 -141 168.5 -141t167.5 141h64q-10 -80 -69.5 -142.5t-162 -62.5t-162 62.5t-69.5 142.5zM424 1835h100l162 -199h-68z" />
</font>
</defs>
</svg>
